<?xml version="1.0" encoding="UTF-8" standalone="no"?>
<!-- Created with Inkscape (http://www.inkscape.org/) -->

<svg
   xmlns:dc="http://purl.org/dc/elements/1.1/"
   xmlns:cc="http://creativecommons.org/ns#"
   xmlns:rdf="http://www.w3.org/1999/02/22-rdf-syntax-ns#"
   xmlns:svg="http://www.w3.org/2000/svg"
   xmlns="http://www.w3.org/2000/svg"
   xmlns:sodipodi="http://sodipodi.sourceforge.net/DTD/sodipodi-0.dtd"
   xmlns:inkscape="http://www.inkscape.org/namespaces/inkscape"
   id="svg2"
   version="1.1"
   inkscape:version="0.91 r13725"
   xml:space="preserve"
   width="179.87962"
   height="32.577126"
   viewBox="0 0 179.87962 32.577125"
   sodipodi:docname="eth_logo_kurz_pos.svg"><metadata
     id="metadata8"><rdf:RDF><cc:Work
         rdf:about=""><dc:format>image/svg+xml</dc:format><dc:type
           rdf:resource="http://purl.org/dc/dcmitype/StillImage" /><dc:title></dc:title></cc:Work></rdf:RDF></metadata><defs
     id="defs6" /><sodipodi:namedview
     pagecolor="#ffffff"
     bordercolor="#666666"
     borderopacity="1"
     objecttolerance="10"
     gridtolerance="10"
     guidetolerance="10"
     inkscape:pageopacity="0"
     inkscape:pageshadow="2"
     inkscape:window-width="946"
     inkscape:window-height="647"
     id="namedview4"
     showgrid="false"
     fit-margin-top="2"
     fit-margin-left="2"
     fit-margin-right="2"
     fit-margin-bottom="2"
     inkscape:zoom="1.5349063"
     inkscape:cx="89.942122"
     inkscape:cy="16.402501"
     inkscape:window-x="50"
     inkscape:window-y="23"
     inkscape:window-maximized="0"
     inkscape:current-layer="g10" /><g
     id="g10"
     inkscape:groupmode="layer"
     inkscape:label="ink_ext_XXXXXX"
     transform="matrix(1.25,0,0,-1.25,-26.351625,58.693375)"><g
       id="g12"
       transform="scale(0.1,0.1)"><path
         d="m 1091.8,287.27 c -8.1,-40.165 -39.13,-42.211 -45.28,-42.211 -17.52,0 -27.97,10.121 -27.97,27.046 0,3.86 0.57,9.122 1.55,14.387 l 19.19,95.617 0.09,0.368 -22.68,0 -19.552,-98.047 -0.257,-1.403 c -0.84,-4.429 -1.625,-8.629 -1.625,-14.078 0,-26.344 17.294,-44.019 43.084,-44.019 18.86,0 34.01,6.187 45.07,18.41 l -2.94,-16.152 -0.07,-0.383 22.35,0 30.88,155.304 0.07,0.368 -23,0 -18.91,-95.207"
         style="fill:#231f20;fill-opacity:1;fill-rule:nonzero;stroke:none"
         id="path14"
         inkscape:connector-curvature="0" /><path
         d="m 1246.35,384.363 c -17.52,0 -33.04,-7.16 -42.81,-19.734 l 3.51,17.48 0.06,0.368 -22.35,0 -30.89,-155.289 -0.07,-0.383 22.69,0 18.91,95.246 c 4.83,24.449 23.6,42.176 44.65,42.176 9.04,0 16.16,-3.563 21.76,-10.872 l 0.21,-0.285 18.41,16.489 -0.19,0.238 c -8.5,9.82 -19.6,14.566 -33.89,14.566"
         style="fill:#231f20;fill-opacity:1;fill-rule:nonzero;stroke:none"
         id="path16"
         inkscape:connector-curvature="0" /><path
         d="m 871.492,362.73 -0.066,-0.386 77.359,0 -102.992,-116.446 -0.055,-0.058 -3.883,-19.035 109.782,0 3.906,20.144 -82.066,0 103.308,116.449 0.051,0.067 3.871,19.012 -105.371,0 -3.844,-19.747"
         style="fill:#231f20;fill-opacity:1;fill-rule:nonzero;stroke:none"
         id="path18"
         inkscape:connector-curvature="0" /><path
         d="m 1283.32,227.188 -0.08,-0.383 22.67,0 30.93,155.672 -22.29,0 -31.23,-155.289"
         style="fill:#231f20;fill-opacity:1;fill-rule:nonzero;stroke:none"
         id="path20"
         inkscape:connector-curvature="0" /><path
         d="m 1590.72,384.355 c -18.65,0 -33.21,-5.714 -44.4,-17.496 l 17.59,86.688 -22.68,0 -45.56,-226.762 22.68,0 18.91,95.258 c 8.1,40.148 39.41,42.18 45.59,42.18 17.34,0 27.69,-10.114 27.69,-27.039 0,-3.84 -0.59,-9.079 -1.58,-14.403 l -19.24,-95.996 22.65,0 19.89,98.086 c 0.95,5.219 1.59,9.621 1.59,15.469 0,26.332 -17.36,44.015 -43.13,44.015"
         style="fill:#231f20;fill-opacity:1;fill-rule:nonzero;stroke:none"
         id="path22"
         inkscape:connector-curvature="0" /><path
         d="m 1440.41,384.363 c -41.13,0 -70,-28.972 -79.23,-79.492 -1.66,-8.461 -2.23,-17.922 -2.23,-23.969 0,-34.519 20.95,-55.972 54.71,-55.972 19.63,0 37.55,7.527 51.81,21.773 l 0.2,0.215 -13.07,15.953 -0.24,0.281 -0.24,-0.265 c -12.03,-12.657 -22.81,-17.828 -37.21,-17.828 -16.09,0 -33.3,9.578 -33.3,36.48 0,8.418 1,15.375 2.49,23.215 2.43,13.199 7.9,31.641 20.05,44.469 9.66,9.957 21.11,15.004 34.06,15.004 13.52,0 21.98,-4.809 30.22,-17.149 l 0.19,-0.305 16.64,14.063 0.24,0.195 -0.18,0.254 c -11.36,15.969 -25.22,23.078 -44.91,23.078"
         style="fill:#231f20;fill-opacity:1;fill-rule:nonzero;stroke:none"
         id="path24"
         inkscape:connector-curvature="0" /><path
         d="m 1322.96,425.199 22.72,0 5.65,28.348 -22.64,0 -5.73,-28.348"
         style="fill:#231f20;fill-opacity:1;fill-rule:nonzero;stroke:none"
         id="path26"
         inkscape:connector-curvature="0" /><path
         d="m 1102.49,425.199 22.73,0 5.62,28.348 -22.61,0 -5.74,-28.348"
         style="fill:#231f20;fill-opacity:1;fill-rule:nonzero;stroke:none"
         id="path28"
         inkscape:connector-curvature="0" /><path
         d="m 1042.03,425.199 22.72,0 5.64,28.348 -22.62,0 -5.74,-28.348"
         style="fill:#231f20;fill-opacity:1;fill-rule:nonzero;stroke:none"
         id="path30"
         inkscape:connector-curvature="0" /><path
         d="m 739.102,365.68 -51.016,0 17.914,87.867 -433.645,0 -45.542,-226.762 172.898,0 11.324,56.68 -102.086,0 6.192,31.183 102.05,0 10.274,51.032 -102.074,0 6.179,31.183 161.805,0 -34.16,-170.078 70.867,0 34.156,170.078 59.496,0 -34.156,-170.078 70.883,0 17.488,87.863 51.004,0 -17.488,-87.863 70.863,0 45.563,226.762 -70.871,0 -17.918,-87.867"
         style="fill:#231f20;fill-opacity:1;fill-rule:nonzero;stroke:none"
         id="path32"
         inkscape:connector-curvature="0" /></g></g></svg>