<?xml version="1.0" encoding="UTF-8" standalone="no"?>
<svg
   xmlns:dc="http://purl.org/dc/elements/1.1/"
   xmlns:cc="http://creativecommons.org/ns#"
   xmlns:rdf="http://www.w3.org/1999/02/22-rdf-syntax-ns#"
   xmlns:svg="http://www.w3.org/2000/svg"
   xmlns="http://www.w3.org/2000/svg"
   xmlns:sodipodi="http://sodipodi.sourceforge.net/DTD/sodipodi-0.dtd"
   xmlns:inkscape="http://www.inkscape.org/namespaces/inkscape"
   inkscape:version="1.0beta1 (32d4812, 2019-09-19)"
   height="351.67487"
   width="234.81464"
   sodipodi:docname="noun_Museum Visit_68542.svg"
   id="svg70"
   xml:space="preserve"
   enable-background="new 0 0 100 100"
   viewBox="0 0 234.81464 351.67487"
   y="0px"
   x="0px"
   version="1.1">
  <metadata
     id="metadata76">
    <rdf:RDF>
      <cc:Work
         rdf:about="">
        <dc:format>image/svg+xml</dc:format>
        <dc:type
           rdf:resource="http://purl.org/dc/dcmitype/StillImage" />
        <dc:title></dc:title>
      </cc:Work>
    </rdf:RDF>
  </metadata>
  <defs
     id="defs74" />
  <sodipodi:namedview
     inkscape:current-layer="svg70"
     inkscape:window-maximized="0"
     inkscape:window-y="30"
     inkscape:window-x="1221"
     inkscape:cy="175.83743"
     inkscape:cx="117.40732"
     inkscape:zoom="2.9459029"
     fit-margin-bottom="5"
     fit-margin-right="5"
     fit-margin-left="5"
     fit-margin-top="5"
     showgrid="false"
     id="namedview72"
     inkscape:window-height="1202"
     inkscape:window-width="1285"
     inkscape:pageshadow="2"
     inkscape:pageopacity="0"
     guidetolerance="10"
     gridtolerance="10"
     objecttolerance="10"
     borderopacity="1"
     inkscape:document-rotation="0"
     bordercolor="#666666"
     pagecolor="#ffffff" />
  <g
     transform="matrix(3.0315279,0,0,3.0315279,-37.865805,3.156831)"
     id="g102">
    <path
       inkscape:connector-curvature="0"
       d="M 79.006,11.559 72.898,0.608 64.97,15.496 59.226,17.107 V 47.294 L 85.545,68.077 V 9.725 Z m -6.064,-6.391 3.902,6.998 -8.966,2.515 z m 7.713,11.009 V 28.706 L 73.829,39.602 69.273,23.467 64.117,34.004 V 20.815 Z M 64.117,44.924 v -5.952 l 4.606,-9.417 4.343,15.377 7.589,-12.115 v 25.165 z"
       id="path56" />
    <g
       id="g62">
      <path
         inkscape:connector-curvature="0"
         d="m 44.18,33.333 c 3.574,-0.716 5.899,-4.234 5.177,-7.849 -0.727,-3.621 -4.224,-5.963 -7.8,-5.247 -3.583,0.718 -5.897,4.222 -5.172,7.845 0.722,3.612 4.213,5.967 7.795,5.251"
         id="path58" />
      <path
         inkscape:connector-curvature="0"
         d="M 15.036,46.282 29.477,31.938 c 0.931,-0.993 2.058,-1.492 3.388,-1.492 1.394,0 3.715,1.019 4.399,3.147 l 3.181,11.374 1.815,-5.922 c 0.573,-1.713 2.423,-2.64 4.143,-2.067 1.714,0.574 2.639,2.429 2.067,4.143 l -4.779,14.297 c -0.447,1.335 -1.698,2.236 -3.105,2.236 -0.004,0 -0.009,0 -0.013,0 -1.413,-0.006 -2.663,-0.919 -3.1,-2.261 l -2.921,-8.979 -9.558,9.631 v 33.766 c 0,1.528 -0.532,2.806 -1.594,3.839 -1.062,1.026 -2.354,1.541 -3.883,1.541 -1.462,0 -2.724,-0.515 -3.785,-1.541 C 14.671,92.617 14.14,91.339 14.14,89.811 V 48.475 c 10e-4,-0.865 0.298,-1.594 0.896,-2.193 z"
         id="path60" />
    </g>
    <path
       inkscape:connector-curvature="0"
       d="M 76.044,96.295 H 70.665 V 64.047 c 0,-0.795 -0.571,-1.476 -1.355,-1.612 -0.78,-0.129 -1.551,0.311 -1.82,1.059 -1.058,2.927 -3.607,7.953 -5.961,8.975 -0.479,0.21 -0.883,0.22 -1.312,0.035 -2.924,-1.252 -5.443,-10.219 -6.299,-16.186 -0.122,-0.851 -0.886,-1.464 -1.735,-1.4 -0.857,0.061 -1.521,0.774 -1.521,1.633 v 28.972 h -5.083 c -0.905,0 -1.637,0.733 -1.637,1.637 0,0.904 0.732,1.636 1.637,1.636 H 59.02 c 0.904,0 1.636,-0.732 1.636,-1.636 0,-0.904 -0.731,-1.637 -1.636,-1.637 H 53.935 V 69.232 c 1.239,2.89 2.874,5.371 4.994,6.28 1.257,0.539 2.608,0.523 3.91,-0.043 1.774,-0.773 3.32,-2.537 4.554,-4.429 v 25.254 h -5.378 c -0.904,0 -1.636,0.733 -1.636,1.638 0,0.903 0.731,1.636 1.636,1.636 h 14.031 c 0.903,0 1.636,-0.732 1.636,-1.636 -0.002,-0.904 -0.735,-1.637 -1.638,-1.637 z"
       id="path64" />
  </g>
  <text
     style="font-style:normal;font-variant:normal;font-weight:normal;font-stretch:normal;font-size:10.6667px;font-family:'Helvetica Neue', Helvetica, Arial-Unicode, Arial, Sans-serif;-inkscape-font-specification:'Helvetica Neue, Helvetica, Arial-Unicode, Arial, Sans-serif'"
     dy="0 0 0 0 0 0 0"
     id="text66"
     font-family="'Helvetica Neue', Helvetica, Arial-Unicode, Arial, Sans-serif"
     font-weight="bold"
     font-size="5px"
     fill="#000000"
     y="331.57352"
     x="123.47147">Created by Luis Prado</text>
  <text
     style="font-style:normal;font-variant:normal;font-weight:normal;font-stretch:normal;font-size:10.6667px;font-family:'Helvetica Neue', Helvetica, Arial-Unicode, Arial, Sans-serif;-inkscape-font-specification:'Helvetica Neue, Helvetica, Arial-Unicode, Arial, Sans-serif'"
     id="text68"
     font-family="'Helvetica Neue', Helvetica, Arial-Unicode, Arial, Sans-serif"
     font-weight="bold"
     font-size="5px"
     fill="#000000"
     y="344.57355"
     x="123.47147">from the Noun Project</text>
</svg>
