<?xml version="1.0" encoding="UTF-8" standalone="no"?>
<svg
   xmlns:dc="http://purl.org/dc/elements/1.1/"
   xmlns:cc="http://creativecommons.org/ns#"
   xmlns:rdf="http://www.w3.org/1999/02/22-rdf-syntax-ns#"
   xmlns:svg="http://www.w3.org/2000/svg"
   xmlns="http://www.w3.org/2000/svg"
   xmlns:sodipodi="http://sodipodi.sourceforge.net/DTD/sodipodi-0.dtd"
   xmlns:inkscape="http://www.inkscape.org/namespaces/inkscape"
   inkscape:version="1.0beta1 (32d4812, 2019-09-19)"
   height="346.89011"
   width="246.53418"
   sodipodi:docname="noun_puppet_57357.svg"
   id="svg48"
   xml:space="preserve"
   enable-background="new 0 0 100 100"
   viewBox="0 0 246.53418 346.89011"
   y="0px"
   x="0px"
   version="1.1">
  <metadata
     id="metadata54">
    <rdf:RDF>
      <cc:Work
         rdf:about="">
        <dc:format>image/svg+xml</dc:format>
        <dc:type
           rdf:resource="http://purl.org/dc/dcmitype/StillImage" />
        <dc:title></dc:title>
      </cc:Work>
    </rdf:RDF>
  </metadata>
  <defs
     id="defs52" />
  <sodipodi:namedview
     inkscape:current-layer="svg48"
     inkscape:window-maximized="0"
     inkscape:window-y="53"
     inkscape:window-x="39"
     inkscape:cy="180.76201"
     inkscape:cx="114.27603"
     inkscape:zoom="3.0067159"
     fit-margin-bottom="5"
     fit-margin-right="20"
     fit-margin-left="10"
     fit-margin-top="5"
     showgrid="false"
     id="namedview50"
     inkscape:window-height="1209"
     inkscape:window-width="1600"
     inkscape:pageshadow="2"
     inkscape:pageopacity="0"
     guidetolerance="10"
     gridtolerance="10"
     objecttolerance="10"
     borderopacity="1"
     inkscape:document-rotation="0"
     bordercolor="#666666"
     pagecolor="#ffffff" />
  <g
     transform="matrix(1.3116852,0,0,1.3116852,-97.552146,-19.13501)"
     id="g95">
    <ellipse
       fill="#000000"
       stroke="#010101"
       stroke-miterlimit="10"
       cx="200.89728"
       cy="40.580475"
       rx="22.907703"
       ry="22.180473"
       id="ellipse10"
       style="stroke-width:3.63614" />
    <rect
       x="-223.24118"
       y="93.099045"
       transform="rotate(-102.36847)"
       fill="#000000"
       stroke="#010101"
       stroke-miterlimit="10"
       width="89.813637"
       height="0.36361796"
       id="rect12"
       style="stroke-width:3.63618" />
    <polygon
       fill="#000000"
       stroke="#010101"
       stroke-miterlimit="10"
       points="35.9,59.4 35.7,59.3 35.9,43.8 36.1,43.9 "
       id="polygon14"
       transform="matrix(3.6361433,0,0,3.6361433,-15.81686,-48.505036)" />
    <rect
       x="-163.95512"
       y="136.40158"
       transform="rotate(-74.543365)"
       fill="#000000"
       stroke="#010101"
       stroke-miterlimit="10"
       width="89.809715"
       height="0.3636021"
       id="rect16"
       style="stroke-width:3.63602" />
    <rect
       x="180.17126"
       y="69.669617"
       fill="#000000"
       width="47.63348"
       height="103.9937"
       id="rect18"
       style="stroke-width:3.63614" />
    <path
       fill="#000000"
       d="m 245.62184,78.396364 c 0,5.817829 -3.27253,10.544815 -7.27229,10.544815 h -67.63226 c -3.99976,0 -7.27229,-4.726986 -7.27229,-10.544815 v 0 c 0,-5.81783 3.27253,-10.544816 7.27229,-10.544816 h 67.99588 c 3.63614,-0.363614 6.90867,4.726986 6.90867,10.544816 z"
       id="path20"
       inkscape:connector-curvature="0"
       style="stroke-width:3.63614" />
    <polyline
       fill="#000000"
       stroke="#010101"
       stroke-width="6"
       stroke-linecap="round"
       stroke-miterlimit="10"
       points="51.3,34.9   46.7,41 36.1,41.4 "
       id="polyline22"
       transform="matrix(3.6361433,0,0,3.6361433,-15.81686,-48.505036)" />
    <polyline
       fill="#000000"
       stroke="#010101"
       stroke-width="6"
       stroke-linecap="round"
       stroke-miterlimit="10"
       points="56.8,59.7   53.9,68.5 53.1,79 "
       id="polyline24"
       transform="matrix(3.6361433,0,0,3.6361433,-15.81686,-48.505036)" />
    <polyline
       fill="#000000"
       stroke="#010101"
       stroke-width="6"
       stroke-linecap="round"
       stroke-miterlimit="10"
       points="63.9,59.7   63.9,68.9 65.7,79.6 "
       id="polyline26"
       transform="matrix(3.6361433,0,0,3.6361433,-15.81686,-48.505036)" />
    <polyline
       fill="#000000"
       stroke="#010101"
       stroke-width="6"
       stroke-linecap="round"
       stroke-miterlimit="10"
       points="69.9,34.9   72.3,43.9 71.9,51.1 "
       id="polyline28"
       transform="matrix(3.6361433,0,0,3.6361433,-15.81686,-48.505036)" />
    <ellipse
       fill="#000000"
       cx="114.35706"
       cy="174.75417"
       rx="8.7267447"
       ry="7.6359005"
       id="ellipse30"
       style="stroke-width:3.63614" />
    <rect
       x="105.26671"
       y="184.57175"
       fill="#000000"
       width="17.817102"
       height="35.997818"
       id="rect32"
       style="stroke-width:3.63614" />
    <path
       fill="#000000"
       d="m 128.90164,187.84428 c 0,2.18168 -1.09084,3.99975 -2.5453,3.99975 h -24.36216 c -1.45446,0 -2.545298,-1.81807 -2.545298,-3.99975 v 0 c 0,-2.18169 1.090838,-3.99976 2.545298,-3.99976 h 24.36216 c 1.45446,0 2.5453,1.81807 2.5453,3.99976 z"
       id="path34"
       inkscape:connector-curvature="0"
       style="stroke-width:3.63614" />
    <polyline
       fill="#000000"
       stroke="#010101"
       stroke-width="2"
       stroke-linecap="round"
       stroke-miterlimit="10"
       points="32.3,65   30,67.4 26.9,67.6 "
       id="polyline36"
       transform="matrix(3.6361433,0,0,3.6361433,-15.81686,-48.505036)" />
    <polyline
       fill="#000000"
       stroke="#010101"
       stroke-width="2"
       stroke-linecap="round"
       stroke-miterlimit="10"
       points="34.2,73.9   32.7,77.3 32.3,81.3 "
       id="polyline38"
       transform="matrix(3.6361433,0,0,3.6361433,-15.81686,-48.505036)" />
    <polyline
       fill="#000000"
       stroke="#010101"
       stroke-width="2"
       stroke-linecap="round"
       stroke-miterlimit="10"
       points="37.4,73.9   39,77.2 39,80.8 "
       id="polyline40"
       transform="matrix(3.6361433,0,0,3.6361433,-15.81686,-48.505036)" />
    <polyline
       fill="#000000"
       stroke="#010101"
       stroke-width="2"
       stroke-linecap="round"
       stroke-miterlimit="10"
       points="39,65.1   40.7,67.5 43.7,67.9 "
       id="polyline42"
       transform="matrix(3.6361433,0,0,3.6361433,-15.81686,-48.505036)" />
  </g>
  <text
     style="font-style:normal;font-variant:normal;font-weight:normal;font-stretch:normal;font-size:10.6667px;font-family:'Helvetica Neue', Helvetica, Arial-Unicode, Arial, Sans-serif;-inkscape-font-specification:'Helvetica Neue, Helvetica, Arial-Unicode, Arial, Sans-serif';stroke-width:3.63614"
     id="text44"
     font-family="'Helvetica Neue', Helvetica, Arial-Unicode, Arial, Sans-serif"
     font-weight="bold"
     font-size="5px"
     fill="#000000"
     y="326.45892"
     x="120.07495">Created by Alexis Lilly</text>
  <text
     style="font-style:normal;font-variant:normal;font-weight:normal;font-stretch:normal;font-size:10.6667px;font-family:'Helvetica Neue', Helvetica, Arial-Unicode, Arial, Sans-serif;-inkscape-font-specification:'Helvetica Neue, Helvetica, Arial-Unicode, Arial, Sans-serif';stroke-width:3.63614"
     id="text46"
     font-family="'Helvetica Neue', Helvetica, Arial-Unicode, Arial, Sans-serif"
     font-weight="bold"
     font-size="5px"
     fill="#000000"
     y="339.78876"
     x="119.7896">from the Noun Project</text>
</svg>
