<svg height='100px' width='100px'  fill="#000000" xmlns:x="http://ns.adobe.com/Extensibility/1.0/" xmlns:i="http://ns.adobe.com/AdobeIllustrator/10.0/" xmlns:graph="http://ns.adobe.com/Graphs/1.0/" xmlns="http://www.w3.org/2000/svg" xmlns:xlink="http://www.w3.org/1999/xlink" version="1.1" x="0px" y="0px" viewBox="0 0 100 100" style="enable-background:new 0 0 100 100;" xml:space="preserve"><g><g i:extraneous="self"><g><path d="M5273.1,2400.1v-2c0-2.8-5-4-9.7-4s-9.7,1.3-9.7,4v2c0,1.8,0.7,3.6,2,4.9l5,4.9c0.3,0.3,0.4,0.6,0.4,1v6.4     c0,0.4,0.2,0.7,0.6,0.8l2.9,0.9c0.5,0.1,1-0.2,1-0.8v-7.2c0-0.4,0.2-0.7,0.4-1l5.1-5C5272.4,2403.7,5273.1,2401.9,5273.1,2400.1z      M5263.4,2400c-4.8,0-7.4-1.3-7.5-1.8v0c0.1-0.5,2.7-1.8,7.5-1.8c4.8,0,7.3,1.3,7.5,1.8C5270.7,2398.7,5268.2,2400,5263.4,2400z"></path><path d="M5268.4,2410.3c-0.6,0-1,0.4-1,1c0,0.6,0.4,1,1,1h4.3c0.6,0,1-0.4,1-1c0-0.6-0.4-1-1-1H5268.4z"></path><path d="M5272.7,2413.7h-4.3c-0.6,0-1,0.4-1,1c0,0.6,0.4,1,1,1h4.3c0.6,0,1-0.4,1-1C5273.7,2414.1,5273.3,2413.7,5272.7,2413.7z"></path><path d="M5272.7,2417h-4.3c-0.6,0-1,0.4-1,1c0,0.6,0.4,1,1,1h4.3c0.6,0,1-0.4,1-1C5273.7,2417.5,5273.3,2417,5272.7,2417z"></path></g><g><path d="M88.7,38.6h-0.9c3.6,0,6.4-3.2,6-6.8c-0.4-3-3.1-5.2-6.2-5.2h-0.7c3.6,0,6.4-3.2,6-6.8c-0.4-3-3.1-5.2-6.2-5.2h-0.7     c3.3,0,6-2.7,6-6s-2.7-6-6-6c0,0-13.3,0-22,0c-14.1,0-18.9,4-23.1,5.7c-1.1,0.5-1.9,1.6-1.9,2.8v34.2c0,1,0.5,1.9,1.3,2.5     c3.9,2.8,15.7,12.4,18.9,26.7c1.7,7.6,13.5,6.2,12.6-2.1c-0.8-8.6-2.6-11.4-3.8-19.7c-0.2-1.1,0.6-2,1.7-2h19.1c3.3,0,6-2.7,6-6     C94.7,41.3,92,38.6,88.7,38.6z"></path><path d="M15.8,46.9h14.8c1.7,0,3.1-1.4,3.1-3.1V12.1c0-1.7-1.4-3.1-3.1-3.1H15.8c-1.7,0-3.1,1.4-3.1,3.1v31.8     C12.7,45.5,14.1,46.9,15.8,46.9z M23.2,15.8c1.8,0,3.2,1.4,3.2,3.2s-1.4,3.2-3.2,3.2c-1.8,0-3.2-1.4-3.2-3.2S21.4,15.8,23.2,15.8     z"></path><path d="M25.7,56.6c-11.3,0-20.4,9.1-20.4,20.4s9.1,20.4,20.4,20.4c11.3,0,20.4-9.1,20.4-20.4S37,56.6,25.7,56.6z M32.7,80H18.7     c-1.6,0-2.9-1.3-2.9-2.9s1.3-2.9,2.9-2.9h14.1c1.6,0,2.9,1.3,2.9,2.9S34.3,80,32.7,80z"></path></g></g></g></svg>