<svg height='100px' width='100px'  fill="#000000" xmlns="http://www.w3.org/2000/svg" data-name="Layer 1" viewBox="0 0 100 100" x="0px" y="0px"><title>Artboard 6</title><path d="M96.22,51.6A6.18,6.18,0,0,1,90,58H88.39a6.17,6.17,0,0,1,3.08,6,6.32,6.32,0,0,1-6.35,5.55H83.66a6.17,6.17,0,0,1,3.08,6,6.32,6.32,0,0,1-6.35,5.55H78.94A6.17,6.17,0,0,1,82,87a6.32,6.32,0,0,1-6.35,5.55H72.58L35.6,93a1.94,1.94,0,0,1-2-1.94V53.68h0a2,2,0,0,1,1.29-1.92l4.3-1.51L53.67,19.56a4.82,4.82,0,0,1,9.5.93L59.79,45.61h30A6.35,6.35,0,0,1,96.22,51.6ZM3.77,53.4a3.16,3.16,0,0,1,3.16-3.16H25a3.16,3.16,0,0,1,3.16,3.16V89.88A3.16,3.16,0,0,1,25,93h-18a3.16,3.16,0,0,1-3.16-3.16Zm9,31.43A2.82,2.82,0,1,0,15.64,82,2.82,2.82,0,0,0,12.81,84.83ZM9.42,38.6a18.54,18.54,0,1,1,26.22,0A18.56,18.56,0,0,1,9.42,38.6Zm3.46-13.11a2.64,2.64,0,0,0,2.64,2.64h4.36v4.36a2.64,2.64,0,0,0,2.64,2.64h0a2.64,2.64,0,0,0,2.64-2.64V28.13h4.36a2.64,2.64,0,0,0,2.64-2.64h0a2.64,2.64,0,0,0-2.64-2.64H25.17V18.49a2.64,2.64,0,0,0-5.28,0v4.36H15.52a2.64,2.64,0,0,0-2.64,2.64Z"></path></svg>