<?xml version="1.0" encoding="UTF-8" standalone="no"?>
<svg
   xmlns:dc="http://purl.org/dc/elements/1.1/"
   xmlns:cc="http://creativecommons.org/ns#"
   xmlns:rdf="http://www.w3.org/1999/02/22-rdf-syntax-ns#"
   xmlns:svg="http://www.w3.org/2000/svg"
   xmlns="http://www.w3.org/2000/svg"
   xmlns:sodipodi="http://sodipodi.sourceforge.net/DTD/sodipodi-0.dtd"
   xmlns:inkscape="http://www.inkscape.org/namespaces/inkscape"
   inkscape:version="1.0beta1 (32d4812, 2019-09-19)"
   sodipodi:docname="PSI-Logo.pdf"
   viewBox="0 0 384.33398 138.86667"
   height="138.86667"
   width="384.33398"
   xml:space="preserve"
   id="svg10"
   version="1.1">
  <metadata
     id="metadata16">
    <rdf:RDF>
      <cc:Work
         rdf:about="">
        <dc:format>image/svg+xml</dc:format>
        <dc:type
           rdf:resource="http://purl.org/dc/dcmitype/StillImage" />
        <dc:title></dc:title>
      </cc:Work>
    </rdf:RDF>
  </metadata>
  <defs
     id="defs14" />
  <sodipodi:namedview
     inkscape:current-layer="svg10"
     inkscape:window-maximized="0"
     inkscape:window-y="23"
     inkscape:window-x="44"
     inkscape:cy="560"
     inkscape:cx="400"
     inkscape:zoom="0.35"
     showgrid="false"
     id="namedview12"
     inkscape:window-height="1209"
     inkscape:window-width="1600"
     inkscape:pageshadow="2"
     inkscape:pageopacity="0"
     guidetolerance="10"
     gridtolerance="10"
     objecttolerance="10"
     borderopacity="1"
     inkscape:document-rotation="0"
     bordercolor="#666666"
     pagecolor="#ffffff" />
  <g
     transform="matrix(1.3333333,0,0,-1.3333333,0,138.86667)"
     inkscape:label="PSI-Logo"
     inkscape:groupmode="layer"
     id="g18">
    <g
       id="g20">
      <path
         inkscape:connector-curvature="0"
         id="path22"
         style="fill:#aaa9a9;fill-opacity:1;fill-rule:evenodd;stroke:none"
         d="M 64.848,53.509 H 16.023 L 15.313,53.486 14.625,53.455 13.945,53.392 13.277,53.283 12.621,53.154 11.965,52.99 11.352,52.798 10.727,52.603 10.121,52.357 9.52,52.107 8.961,51.818 8.41,51.517 7.871,51.181 7.363,50.838 6.871,50.47 6.387,50.072 5.945,49.662 5.512,49.244 5.113,48.791 4.715,48.349 4.371,47.873 4.047,47.369 3.746,46.873 3.469,46.357 3.23,45.83 3.023,45.267 2.82,44.72 2.68,44.146 2.563,43.568 2.477,42.974 2.422,42.392 2.398,41.787 V 29.564 l 0.024,-0.605 0.055,-0.59 0.086,-0.582 0.117,-0.594 0.14,-0.559 0.203,-0.562 0.207,-0.547 0.239,-0.531 0.277,-0.516 0.301,-0.504 0.324,-0.496 0.344,-0.476 0.398,-0.45 0.399,-0.445 0.433,-0.43 0.442,-0.41 0.484,-0.387 0.492,-0.378 0.508,-0.332 0.539,-0.332 0.551,-0.305 0.559,-0.289 0.601,-0.25 0.606,-0.235 0.625,-0.203 0.613,-0.195 0.656,-0.152 0.656,-0.141 0.668,-0.105 0.68,-0.067 0.688,-0.043 0.71,-0.008 h 48.825 z" />
      <path
         inkscape:connector-curvature="0"
         id="path24"
         style="fill:#aaa9a9;fill-opacity:1;fill-rule:evenodd;stroke:none"
         d="m 224.074,53.509 h 48.153 l 0.711,-0.023 0.687,-0.031 0.68,-0.063 0.668,-0.109 0.656,-0.129 0.656,-0.164 0.617,-0.192 0.625,-0.195 0.602,-0.246 0.582,-0.25 0.582,-0.289 0.547,-0.301 0.539,-0.336 0.508,-0.343 0.492,-0.368 0.488,-0.398 0.438,-0.41 0.433,-0.418 0.399,-0.453 0.398,-0.442 0.344,-0.476 0.324,-0.504 0.301,-0.496 0.281,-0.516 0.238,-0.527 0.204,-0.563 0.203,-0.547 0.14,-0.574 0.118,-0.578 0.085,-0.594 0.055,-0.582 0.024,-0.605 V 29.564 l -0.024,-0.605 -0.055,-0.59 -0.085,-0.582 -0.118,-0.594 -0.14,-0.559 -0.203,-0.562 -0.204,-0.547 -0.238,-0.531 -0.281,-0.516 -0.301,-0.504 -0.324,-0.496 -0.344,-0.476 -0.398,-0.45 -0.399,-0.445 -0.433,-0.43 -0.438,-0.41 -0.488,-0.387 -0.492,-0.378 -0.508,-0.332 -0.539,-0.332 -0.547,-0.305 -0.582,-0.289 -0.582,-0.25 -0.602,-0.235 -0.625,-0.203 -0.617,-0.195 -0.656,-0.152 -0.656,-0.141 -0.668,-0.105 -0.68,-0.067 -0.687,-0.043 -0.711,-0.008 h -48.219 z" />
      <path
         inkscape:connector-curvature="0"
         id="path26"
         style="fill:#aaa9a9;fill-opacity:1;fill-rule:evenodd;stroke:none"
         d="M 127.895,17.963 129.746,28.58 88.09,28.677 88.281,17.865 Z" />
      <path
         inkscape:connector-curvature="0"
         id="path28"
         style="fill:#ffffff;fill-opacity:1;fill-rule:evenodd;stroke:none"
         d="m 128.367,33.763 v -0.308 l -0.031,-0.325 -0.043,-0.324 -0.043,-0.312 -0.074,-0.313 -0.086,-0.301 -0.11,-0.3 -0.109,-0.282 -0.129,-0.289 -0.137,-0.281 -0.152,-0.269 -0.16,-0.246 -0.184,-0.25 -0.195,-0.247 -0.195,-0.234 -0.215,-0.207 -0.203,-0.215 -0.238,-0.195 -0.247,-0.203 -0.25,-0.172 -0.246,-0.16 -0.281,-0.164 -0.269,-0.141 -0.278,-0.129 -0.281,-0.117 -0.301,-0.086 -0.301,-0.098 -0.304,-0.062 -0.321,-0.055 -0.324,-0.043 -0.312,-0.031 H 88.176 V 10.595 L 88.168,10.283 88.145,9.959 88.09,9.638 88.039,9.314 87.973,9.013 87.887,8.713 87.789,8.408 87.672,8.13 87.543,7.838 87.402,7.56 87.262,7.291 87.09,7.041 86.906,6.795 86.734,6.548 86.52,6.31 86.305,6.107 86.09,5.888 85.863,5.673 85.613,5.49 85.367,5.318 85.117,5.134 84.852,4.998 84.57,4.857 84.289,4.728 84,4.611 83.695,4.521 83.395,4.427 83.094,4.361 82.781,4.306 82.457,4.252 82.145,4.232 H 71.707 l -0.344,0.02 -0.312,0.054 -0.301,0.055 -0.324,0.066 -0.301,0.094 -0.281,0.09 -0.301,0.117 -0.281,0.129 -0.27,0.141 -0.269,0.136 -0.258,0.184 -0.246,0.172 -0.239,0.183 -0.226,0.215 -0.227,0.219 -0.214,0.203 -0.196,0.238 -0.179,0.247 -0.172,0.246 -0.184,0.25 -0.141,0.269 -0.14,0.278 -0.141,0.292 -0.109,0.278 -0.106,0.305 -0.066,0.3 -0.074,0.301 -0.075,0.324 -0.035,0.321 -0.019,0.324 -0.012,0.312 v 56.344 l 0.012,0.332 0.019,0.324 0.035,0.321 0.075,0.304 0.074,0.313 0.066,0.301 0.106,0.289 0.109,0.3 0.141,0.282 0.281,0.539 0.184,0.269 0.172,0.246 0.179,0.227 0.196,0.238 0.214,0.227 0.227,0.215 0.226,0.191 0.239,0.195 0.246,0.184 0.258,0.16 0.269,0.16 0.27,0.121 0.281,0.141 0.301,0.105 0.281,0.11 0.301,0.094 0.324,0.066 0.301,0.055 0.312,0.031 0.344,0.023 0.313,0.02 h 50.003 l 0.325,-0.02 0.312,-0.023 0.324,-0.031 0.321,-0.055 0.304,-0.066 0.301,-0.094 0.301,-0.11 0.281,-0.105 0.278,-0.141 0.269,-0.121 0.281,-0.16 0.246,-0.16 0.25,-0.184 0.247,-0.195 0.238,-0.191 0.203,-0.215 0.215,-0.227 0.195,-0.238 0.195,-0.227 0.184,-0.246 0.16,-0.269 0.152,-0.27 0.137,-0.269 0.129,-0.282 0.109,-0.3 0.11,-0.289 0.086,-0.301 0.074,-0.313 0.043,-0.304 0.043,-0.321 0.031,-0.324 z" />
      <path
         inkscape:connector-curvature="0"
         id="path30"
         style="fill:#000000;fill-opacity:1;fill-rule:evenodd;stroke:none"
         d="m 122.016,25.576 0.406,0.019 0.41,0.035 0.41,0.032 0.41,0.097 0.387,0.086 0.41,0.106 0.364,0.121 0.378,0.16 0.356,0.16 0.344,0.188 0.343,0.191 0.336,0.215 0.325,0.227 0.312,0.25 0.301,0.246 0.281,0.269 0.266,0.281 0.25,0.313 0.246,0.301 0.238,0.336 0.203,0.336 0.196,0.343 0.183,0.332 0.16,0.379 0.153,0.379 0.129,0.387 0.105,0.387 0.09,0.402 0.074,0.406 0.055,0.403 0.031,0.41 0.012,0.41 h -3.633 v -0.231 l -0.008,-0.222 -0.043,-0.239 -0.035,-0.214 -0.055,-0.231 -0.062,-0.215 -0.074,-0.215 -0.079,-0.214 -0.086,-0.196 -0.105,-0.191 -0.109,-0.195 -0.118,-0.184 -0.128,-0.172 -0.141,-0.16 -0.141,-0.188 -0.14,-0.148 -0.16,-0.152 -0.165,-0.161 -0.171,-0.121 -0.18,-0.129 -0.172,-0.117 -0.195,-0.109 -0.196,-0.106 -0.214,-0.085 -0.192,-0.079 -0.219,-0.074 -0.214,-0.066 -0.227,-0.051 -0.215,-0.035 -0.226,-0.043 -0.227,-0.012 h -0.234 z" />
      <path
         inkscape:connector-curvature="0"
         id="path32"
         style="fill:#000000;fill-opacity:1;fill-rule:evenodd;stroke:none"
         d="m 89.992,27.4 -1.808,-1.824 h 33.832 v 3.64 H 88.184 L 86.367,27.4 88.184,29.216 H 86.367 V 27.4 Z" />
      <path
         inkscape:connector-curvature="0"
         id="path34"
         style="fill:#000000;fill-opacity:1;fill-rule:evenodd;stroke:none"
         d="m 86.363,27.404 h 3.621 V 10.607 h -3.621 z" />
      <path
         inkscape:connector-curvature="0"
         id="path36"
         style="fill:#000000;fill-opacity:1;fill-rule:evenodd;stroke:none"
         d="m 81.82,2.4 0.41,0.023 0.411,0.032 0.418,0.031 0.386,0.098 0.41,0.066 0.387,0.129 0.379,0.117 0.363,0.164 0.379,0.16 0.356,0.172 0.336,0.207 0.332,0.203 0.324,0.239 0.301,0.246 0.301,0.25 0.281,0.269 0.269,0.282 0.246,0.3 0.25,0.313 0.223,0.312 0.219,0.344 0.191,0.336 0.184,0.355 0.152,0.379 0.16,0.364 0.129,0.402 0.117,0.363 0.079,0.41 0.085,0.403 0.032,0.418 0.043,0.41 0.011,0.41 H 86.355 V 10.38 L 86.332,10.142 86.27,9.689 86.16,9.259 86.086,9.045 86,8.826 85.914,8.634 85.695,8.244 85.578,8.064 85.449,7.888 85.332,7.705 85.191,7.545 85.031,7.384 84.867,7.232 84.707,7.08 84.535,6.963 84.352,6.834 84.18,6.713 83.984,6.607 83.789,6.498 83.586,6.412 83.383,6.314 83.164,6.252 82.949,6.197 82.746,6.142 82.508,6.111 82.281,6.068 82.047,6.056 H 81.82 Z" />
      <path
         inkscape:connector-curvature="0"
         id="path38"
         style="fill:#000000;fill-opacity:1;fill-rule:evenodd;stroke:none"
         d="m 72.02,6.041 h 9.801 V 2.4 H 72.02 Z" />
      <path
         inkscape:connector-curvature="0"
         id="path40"
         style="fill:#000000;fill-opacity:1;fill-rule:evenodd;stroke:none"
         d="m 63.855,10.607 0.024,-0.41 0.008,-0.41 0.054,-0.422 0.075,-0.399 0.086,-0.41 0.128,-0.386 0.122,-0.375 0.136,-0.368 0.164,-0.359 0.184,-0.375 0.203,-0.336 0.215,-0.344 0.219,-0.312 0.246,-0.313 0.258,-0.3 0.269,-0.282 0.281,-0.269 0.301,-0.25 0.301,-0.246 0.324,-0.239 0.332,-0.203 0.336,-0.207 0.356,-0.172 0.375,-0.16 0.355,-0.164 0.391,-0.117 0.386,-0.129 0.387,-0.066 0.41,-0.098 0.41,-0.031 0.43,-0.032 L 72.02,2.4 v 3.656 h -0.25 l -0.223,0.012 -0.215,0.043 -0.23,0.031 -0.43,0.11 L 70.469,6.314 70.254,6.412 70.059,6.498 69.863,6.607 69.672,6.713 69.488,6.834 69.316,6.963 69.133,7.08 68.973,7.232 68.66,7.545 68.52,7.705 68.391,7.888 68.25,8.06 68.121,8.248 68.035,8.439 67.926,8.634 67.84,8.83 67.754,9.045 67.68,9.259 l -0.11,0.43 -0.062,0.453 -0.024,0.238 v 0.227 z" />
      <path
         inkscape:connector-curvature="0"
         id="path42"
         style="fill:#000000;fill-opacity:1;fill-rule:evenodd;stroke:none"
         d="m 63.855,66.947 h 3.641 v -56.34 h -3.641 z" />
      <path
         inkscape:connector-curvature="0"
         id="path44"
         style="fill:#000000;fill-opacity:1;fill-rule:evenodd;stroke:none"
         d="m 72.02,75.154 h -0.422 l -0.407,-0.031 -0.41,-0.055 -0.41,-0.078 -0.387,-0.086 -0.386,-0.129 -0.391,-0.117 -0.355,-0.141 -0.375,-0.164 -0.356,-0.18 -0.336,-0.207 -0.332,-0.203 -0.324,-0.226 -0.301,-0.25 -0.301,-0.27 -0.281,-0.269 -0.269,-0.282 -0.258,-0.3 -0.246,-0.301 -0.219,-0.324 -0.215,-0.332 -0.203,-0.348 -0.184,-0.356 -0.16,-0.378 -0.14,-0.356 -0.122,-0.387 -0.128,-0.386 -0.086,-0.403 -0.075,-0.41 -0.054,-0.406 -0.008,-0.422 -0.024,-0.41 h 3.629 v 0.246 l 0.024,0.23 0.031,0.215 0.031,0.239 0.055,0.203 0.055,0.215 0.074,0.214 0.086,0.219 0.086,0.192 0.109,0.195 0.086,0.195 0.129,0.184 0.141,0.172 0.129,0.183 0.14,0.16 0.16,0.161 0.153,0.164 0.16,0.14 0.183,0.117 0.172,0.153 0.184,0.117 0.191,0.086 0.196,0.109 0.195,0.106 0.215,0.078 0.191,0.062 0.227,0.055 0.218,0.055 0.223,0.043 0.219,0.031 0.246,0.023 h 0.227 z" />
      <path
         inkscape:connector-curvature="0"
         id="path46"
         style="fill:#000000;fill-opacity:1;fill-rule:evenodd;stroke:none"
         d="m 72.02,75.154 h 49.996 V 71.49 H 72.02 Z" />
      <path
         inkscape:connector-curvature="0"
         id="path48"
         style="fill:#000000;fill-opacity:1;fill-rule:evenodd;stroke:none"
         d="m 130.18,66.947 -0.012,0.422 -0.031,0.41 -0.055,0.41 -0.074,0.406 -0.086,0.403 -0.109,0.386 -0.129,0.375 -0.153,0.368 -0.16,0.378 -0.183,0.356 -0.196,0.344 -0.203,0.336 -0.238,0.324 -0.246,0.301 -0.25,0.3 -0.27,0.282 -0.301,0.269 -0.277,0.27 -0.312,0.25 -0.325,0.226 -0.336,0.203 -0.343,0.204 -0.344,0.187 -0.356,0.16 -0.378,0.141 -0.387,0.117 -0.387,0.129 -0.387,0.086 -0.41,0.078 -0.41,0.051 -0.41,0.035 h -0.406 v -3.645 h 0.234 l 0.227,-0.023 0.226,-0.031 0.215,-0.043 0.227,-0.055 0.214,-0.055 0.215,-0.062 0.196,-0.078 0.214,-0.106 0.196,-0.109 0.195,-0.086 0.172,-0.117 0.18,-0.153 0.175,-0.117 0.161,-0.14 0.16,-0.164 0.14,-0.149 0.141,-0.172 0.141,-0.183 0.128,-0.172 0.118,-0.188 0.109,-0.191 0.105,-0.195 0.086,-0.192 0.079,-0.195 0.074,-0.215 0.062,-0.238 0.055,-0.207 0.035,-0.235 0.043,-0.218 0.008,-0.247 v -0.226 z" />
      <path
         inkscape:connector-curvature="0"
         id="path50"
         style="fill:#000000;fill-opacity:1;fill-rule:evenodd;stroke:none"
         d="m 126.559,66.947 h 3.621 V 33.779 h -3.621 z" />
      <path
         inkscape:connector-curvature="0"
         id="path52"
         style="fill:#ffffff;fill-opacity:1;fill-rule:evenodd;stroke:none"
         d="m 191.352,66.939 0.023,0.332 0.02,0.324 0.035,0.321 0.05,0.3 0.067,0.317 0.098,0.301 0.097,0.289 0.106,0.3 0.129,0.282 0.14,0.269 0.16,0.27 0.164,0.269 0.172,0.246 0.196,0.227 0.191,0.238 0.215,0.223 0.226,0.219 0.239,0.191 0.226,0.195 0.246,0.184 0.27,0.16 0.258,0.16 0.269,0.121 0.281,0.141 0.29,0.105 0.304,0.11 0.301,0.094 0.313,0.066 0.3,0.055 0.325,0.031 0.312,0.019 0.344,0.024 h 19.73 l 0.332,-0.024 0.324,-0.019 0.325,-0.031 0.3,-0.055 0.313,-0.066 0.301,-0.094 0.281,-0.11 0.301,-0.105 0.293,-0.141 0.258,-0.121 0.539,-0.32 0.246,-0.184 0.226,-0.195 0.239,-0.191 0.222,-0.219 0.219,-0.223 0.191,-0.238 0.196,-0.227 0.172,-0.246 0.16,-0.269 0.164,-0.27 0.117,-0.269 0.152,-0.282 0.094,-0.3 0.109,-0.289 0.098,-0.301 0.063,-0.317 0.054,-0.3 0.032,-0.321 0.023,-0.324 0.02,-0.332 V 10.595 l -0.02,-0.312 -0.023,-0.324 -0.032,-0.325 -0.054,-0.32 -0.063,-0.301 -0.098,-0.304 -0.109,-0.301 -0.094,-0.278 -0.152,-0.292 -0.117,-0.278 -0.164,-0.269 -0.16,-0.25 -0.172,-0.246 -0.196,-0.25 -0.191,-0.235 -0.219,-0.203 -0.222,-0.219 -0.239,-0.215 -0.226,-0.183 -0.246,-0.172 -0.27,-0.184 -0.269,-0.136 -0.258,-0.141 -0.293,-0.129 -0.301,-0.121 -0.281,-0.086 -0.301,-0.098 -0.313,-0.062 -0.3,-0.055 -0.325,-0.054 -0.324,-0.02 h -20.406 l -0.312,0.02 -0.325,0.054 -0.3,0.055 -0.313,0.062 -0.301,0.098 -0.304,0.086 -0.29,0.121 -0.281,0.129 -0.269,0.141 -0.258,0.136 -0.27,0.184 -0.246,0.172 -0.226,0.183 -0.239,0.215 -0.226,0.219 -0.215,0.203 -0.191,0.235 -0.196,0.25 -0.172,0.246 -0.164,0.25 -0.16,0.269 -0.14,0.278 -0.129,0.292 -0.106,0.278 -0.097,0.301 -0.098,0.304 -0.067,0.301 -0.05,0.32 -0.035,0.325 -0.02,0.324 -0.023,0.312 z" />
      <path
         inkscape:connector-curvature="0"
         id="path54"
         style="fill:#000000;fill-opacity:1;fill-rule:evenodd;stroke:none"
         d="m 197.707,75.154 h -0.43 l -0.41,-0.035 -0.398,-0.051 -0.406,-0.078 -0.387,-0.086 -0.399,-0.129 -0.386,-0.117 -0.356,-0.141 -0.367,-0.164 -0.355,-0.18 -0.333,-0.207 -0.343,-0.203 -0.313,-0.226 -0.324,-0.25 -0.277,-0.27 -0.282,-0.269 -0.269,-0.282 -0.27,-0.3 -0.246,-0.301 -0.226,-0.324 -0.192,-0.336 -0.215,-0.344 -0.183,-0.356 -0.152,-0.378 -0.137,-0.356 -0.153,-0.387 -0.105,-0.39 -0.09,-0.399 -0.062,-0.41 -0.055,-0.406 -0.043,-0.422 v -0.41 h 3.637 v 0.246 l 0.008,0.23 0.042,0.215 0.036,0.235 0.054,0.207 0.051,0.215 0.067,0.214 0.074,0.219 0.109,0.192 0.086,0.195 0.106,0.195 0.121,0.18 0.129,0.176 0.14,0.183 0.137,0.16 0.164,0.161 0.137,0.164 0.183,0.14 0.153,0.117 0.203,0.153 0.172,0.117 0.195,0.086 0.191,0.109 0.196,0.106 0.214,0.078 0.192,0.062 0.215,0.055 0.226,0.055 0.215,0.043 0.227,0.031 0.246,0.023 h 0.238 z" />
      <path
         inkscape:connector-curvature="0"
         id="path56"
         style="fill:#000000;fill-opacity:1;fill-rule:evenodd;stroke:none"
         d="m 197.707,75.154 h 19.754 V 71.49 h -19.754 z" />
      <path
         inkscape:connector-curvature="0"
         id="path58"
         style="fill:#000000;fill-opacity:1;fill-rule:evenodd;stroke:none"
         d="m 225.625,66.947 v 0.422 l -0.035,0.406 -0.051,0.41 -0.066,0.41 -0.098,0.403 -0.117,0.386 -0.129,0.375 -0.141,0.368 -0.16,0.378 -0.195,0.356 -0.195,0.344 -0.215,0.336 -0.203,0.324 -0.247,0.301 -0.273,0.3 -0.266,0.282 -0.281,0.269 -0.301,0.27 -0.304,0.25 -0.309,0.226 -0.348,0.203 -0.332,0.204 -0.355,0.183 -0.367,0.164 -0.379,0.141 -0.375,0.117 -0.387,0.129 -0.387,0.086 -0.41,0.074 -0.41,0.055 -0.398,0.035 h -0.43 v -3.645 h 0.234 l 0.25,-0.023 0.203,-0.031 0.239,-0.043 0.203,-0.055 0.238,-0.055 0.215,-0.062 0.195,-0.078 0.192,-0.106 0.195,-0.109 0.195,-0.086 0.172,-0.117 0.18,-0.153 0.176,-0.117 0.183,-0.14 0.137,-0.164 0.164,-0.149 0.137,-0.172 0.121,-0.183 0.14,-0.172 0.129,-0.188 0.106,-0.191 0.086,-0.195 0.109,-0.196 0.074,-0.191 0.067,-0.219 0.051,-0.234 0.054,-0.207 0.035,-0.235 0.043,-0.218 0.008,-0.247 v -0.226 z" />
      <path
         inkscape:connector-curvature="0"
         id="path60"
         style="fill:#000000;fill-opacity:1;fill-rule:evenodd;stroke:none"
         d="m 221.984,66.947 h 3.641 v -56.34 h -3.641 z" />
      <path
         inkscape:connector-curvature="0"
         id="path62"
         style="fill:#000000;fill-opacity:1;fill-rule:evenodd;stroke:none"
         d="m 217.461,2.4 0.406,0.023 0.422,0.032 0.41,0.031 0.41,0.098 0.387,0.066 0.387,0.129 0.398,0.117 0.356,0.164 0.367,0.16 0.355,0.172 0.332,0.207 0.344,0.203 0.317,0.239 0.3,0.246 0.301,0.25 0.281,0.269 0.266,0.282 0.27,0.3 0.25,0.313 0.203,0.312 0.215,0.344 0.195,0.336 0.195,0.355 0.16,0.379 0.141,0.364 0.129,0.398 0.117,0.367 0.098,0.41 0.066,0.399 0.051,0.422 0.035,0.41 v 0.41 h -3.633 V 10.38 L 221.984,10.142 221.941,9.916 221.906,9.689 221.855,9.474 221.801,9.259 221.734,9.045 221.66,8.826 221.551,8.634 221.465,8.439 221.359,8.244 221.23,8.06 221.09,7.888 220.969,7.705 220.832,7.545 220.668,7.384 220.508,7.232 220.344,7.08 220.172,6.963 219.992,6.834 219.82,6.713 219.625,6.607 219.43,6.498 219.238,6.412 219.023,6.314 218.805,6.248 218.59,6.197 218.387,6.142 218.148,6.111 217.945,6.068 217.707,6.056 h -0.246 z" />
      <path
         inkscape:connector-curvature="0"
         id="path64"
         style="fill:#000000;fill-opacity:1;fill-rule:evenodd;stroke:none"
         d="m 197.707,6.041 h 19.754 V 2.4 h -19.754 z" />
      <path
         inkscape:connector-curvature="0"
         id="path66"
         style="fill:#000000;fill-opacity:1;fill-rule:evenodd;stroke:none"
         d="m 189.543,10.607 v -0.41 l 0.043,-0.41 0.055,-0.422 0.062,-0.399 0.086,-0.41 0.109,-0.386 0.153,-0.379 0.137,-0.368 0.152,-0.355 0.183,-0.375 0.215,-0.336 0.192,-0.344 0.226,-0.312 0.25,-0.313 0.266,-0.304 0.269,-0.278 0.282,-0.269 0.277,-0.25 0.324,-0.246 0.313,-0.239 0.343,-0.207 0.333,-0.203 0.355,-0.172 0.367,-0.164 0.356,-0.16 0.386,-0.117 0.399,-0.129 0.387,-0.066 0.406,-0.098 0.398,-0.031 0.43,-0.032 0.41,-0.023 v 3.656 h -0.246 l -0.238,0.012 -0.227,0.043 -0.215,0.031 -0.226,0.055 -0.192,0.055 -0.215,0.062 -0.214,0.098 -0.207,0.086 -0.18,0.109 -0.195,0.106 -0.172,0.121 -0.203,0.129 -0.153,0.117 -0.183,0.152 -0.137,0.148 -0.164,0.165 -0.141,0.16 -0.136,0.183 -0.133,0.172 -0.117,0.184 -0.106,0.195 -0.086,0.195 -0.109,0.192 -0.074,0.219 -0.067,0.214 -0.055,0.215 -0.05,0.215 -0.036,0.227 -0.042,0.226 -0.008,0.238 v 0.227 z" />
      <path
         inkscape:connector-curvature="0"
         id="path68"
         style="fill:#000000;fill-opacity:1;fill-rule:evenodd;stroke:none"
         d="m 189.543,66.947 h 3.641 v -56.34 h -3.641 z" />
      <path
         inkscape:connector-curvature="0"
         id="path70"
         style="fill:#ffffff;fill-opacity:1;fill-rule:evenodd;stroke:none"
         d="m 185,50.271 0.332,-0.012 0.324,-0.019 0.313,-0.035 0.324,-0.051 0.301,-0.078 0.301,-0.086 0.3,-0.11 0.282,-0.105 0.281,-0.141 0.269,-0.129 0.266,-0.16 0.262,-0.164 0.246,-0.172 0.246,-0.195 0.238,-0.191 0.215,-0.215 0.207,-0.238 0.191,-0.227 0.196,-0.234 0.183,-0.25 0.161,-0.27 0.16,-0.258 0.14,-0.269 0.117,-0.289 0.11,-0.301 0.109,-0.281 0.086,-0.301 0.074,-0.324 0.055,-0.301 0.031,-0.324 0.032,-0.313 V 10.283 l -0.063,-0.649 -0.055,-0.32 -0.074,-0.301 -0.086,-0.304 -0.109,-0.301 -0.11,-0.278 -0.117,-0.292 -0.14,-0.282 -0.16,-0.265 -0.161,-0.25 -0.183,-0.246 -0.196,-0.25 -0.191,-0.235 -0.422,-0.422 -0.238,-0.215 -0.246,-0.183 -0.246,-0.172 -0.262,-0.184 -0.266,-0.136 -0.269,-0.141 -0.281,-0.133 -0.282,-0.117 -0.3,-0.086 -0.301,-0.098 -0.301,-0.062 -0.324,-0.055 -0.313,-0.054 -0.324,-0.02 H 134.41 l -0.336,0.02 -0.32,0.054 -0.301,0.055 -0.312,0.062 -0.305,0.098 -0.289,0.086 -0.301,0.117 -0.281,0.133 -0.27,0.141 -0.257,0.136 -0.27,0.184 -0.246,0.172 -0.227,0.183 -0.238,0.215 -0.227,0.215 -0.214,0.207 -0.192,0.235 -0.183,0.25 -0.172,0.246 -0.176,0.25 -0.148,0.265 -0.141,0.282 -0.141,0.292 -0.105,0.278 -0.11,0.301 -0.062,0.304 -0.078,0.301 -0.063,0.32 -0.043,0.325 -0.011,0.324 -0.024,0.312 v 10.422 l 0.024,0.324 0.011,0.332 0.043,0.325 0.063,0.3 0.078,0.325 0.062,0.3 0.11,0.278 0.105,0.304 0.141,0.266 0.141,0.293 0.148,0.258 0.176,0.258 0.172,0.258 0.183,0.238 0.192,0.226 0.214,0.239 0.227,0.191 0.238,0.215 0.227,0.172 0.246,0.183 0.27,0.172 0.257,0.153 0.27,0.14 0.281,0.117 0.301,0.129 0.289,0.11 0.305,0.062 0.312,0.074 0.301,0.079 0.32,0.031 0.336,0.023 0.32,0.008 h 37.055 -37.375 l -0.336,0.035 -0.32,0.043 -0.301,0.051 -0.312,0.066 -0.305,0.098 -0.289,0.086 -0.301,0.117 -0.281,0.129 -0.27,0.141 -0.257,0.16 -0.27,0.164 -0.246,0.172 -0.227,0.203 -0.238,0.195 -0.227,0.215 -0.214,0.203 -0.192,0.238 -0.183,0.247 -0.172,0.25 -0.176,0.246 -0.148,0.269 -0.141,0.281 -0.141,0.289 -0.105,0.282 -0.11,0.3 -0.062,0.301 -0.078,0.313 -0.063,0.312 -0.043,0.324 -0.011,0.321 -0.024,0.312 v 33.172 l 0.024,0.336 0.011,0.324 0.043,0.321 0.063,0.3 0.078,0.313 0.062,0.305 0.11,0.289 0.105,0.3 0.141,0.282 0.141,0.269 0.148,0.27 0.176,0.269 0.172,0.246 0.183,0.227 0.192,0.234 0.214,0.227 0.227,0.219 0.238,0.191 0.227,0.195 0.246,0.184 0.27,0.16 0.257,0.16 0.27,0.121 0.281,0.137 0.301,0.109 0.289,0.11 0.305,0.094 0.312,0.066 0.301,0.055 0.32,0.031 0.336,0.019 0.32,0.024 H 185 l 0.332,-0.024 0.324,-0.019 0.313,-0.031 0.324,-0.055 0.301,-0.066 0.301,-0.094 0.3,-0.11 0.282,-0.109 0.281,-0.137 0.269,-0.121 0.266,-0.16 0.262,-0.16 0.246,-0.184 0.246,-0.195 0.238,-0.191 0.215,-0.219 0.207,-0.227 0.191,-0.234 0.196,-0.227 0.183,-0.246 0.321,-0.539 0.14,-0.269 0.117,-0.282 0.11,-0.3 0.109,-0.289 0.086,-0.305 0.074,-0.313 0.055,-0.3 0.031,-0.321 0.032,-0.324 V 56.322 l -0.063,-0.649 -0.055,-0.308 -0.074,-0.317 -0.086,-0.3 -0.109,-0.301 -0.11,-0.277 -0.117,-0.293 -0.14,-0.258 -0.321,-0.539 -0.183,-0.246 -0.196,-0.25 -0.191,-0.235 -0.422,-0.422 -0.238,-0.191 -0.246,-0.207 -0.246,-0.172 -0.262,-0.16 -0.266,-0.164 -0.269,-0.141 -0.281,-0.129 -0.282,-0.093 -0.3,-0.11 -0.301,-0.097 -0.301,-0.063 -0.324,-0.055 -0.313,-0.043 -0.324,-0.031 h -37.019 z" />
      <path
         inkscape:connector-curvature="0"
         id="path72"
         style="fill:#000000;fill-opacity:1;fill-rule:evenodd;stroke:none"
         d="m 193.184,43.904 -0.024,0.43 -0.031,0.406 -0.055,0.41 -0.074,0.406 -0.086,0.387 -0.105,0.398 -0.141,0.364 -0.141,0.375 -0.164,0.379 -0.191,0.351 -0.195,0.336 -0.192,0.332 -0.238,0.32 -0.25,0.301 -0.246,0.301 -0.281,0.293 -0.278,0.258 -0.301,0.265 -0.304,0.247 -0.321,0.238 -0.336,0.195 -0.332,0.215 -0.355,0.168 -0.355,0.164 -0.391,0.137 -0.375,0.129 -0.387,0.129 -0.39,0.085 -0.407,0.067 -0.41,0.055 -0.41,0.043 H 185 v -3.641 h 0.246 l 0.227,-0.024 0.234,-0.031 0.207,-0.031 0.238,-0.055 0.203,-0.054 0.215,-0.075 0.196,-0.066 0.191,-0.106 0.195,-0.109 0.196,-0.086 0.203,-0.129 0.172,-0.136 0.172,-0.129 0.164,-0.141 0.3,-0.301 0.141,-0.183 0.148,-0.172 0.122,-0.18 0.128,-0.176 0.094,-0.191 0.11,-0.195 0.097,-0.204 0.067,-0.191 0.074,-0.215 0.055,-0.226 0.062,-0.215 0.043,-0.227 0.031,-0.215 v -0.246 l 0.012,-0.234 z" />
      <path
         inkscape:connector-curvature="0"
         id="path74"
         style="fill:#000000;fill-opacity:1;fill-rule:evenodd;stroke:none"
         d="m 189.543,43.904 h 3.641 V 10.607 h -3.641 z" />
      <path
         inkscape:connector-curvature="0"
         id="path76"
         style="fill:#000000;fill-opacity:1;fill-rule:evenodd;stroke:none"
         d="m 185,2.4 0.418,0.023 0.82,0.063 0.407,0.098 0.39,0.066 0.387,0.129 0.387,0.117 0.379,0.164 0.355,0.16 0.355,0.172 0.332,0.207 0.336,0.203 0.321,0.239 0.301,0.246 0.304,0.25 0.278,0.269 0.281,0.278 0.25,0.304 0.246,0.313 0.238,0.312 0.192,0.344 0.195,0.336 0.195,0.355 0.16,0.379 0.141,0.364 0.137,0.398 0.109,0.367 0.086,0.41 0.078,0.399 0.051,0.422 0.035,0.41 0.02,0.41 h -3.641 L 189.531,10.38 V 10.142 L 189.5,9.916 189.457,9.689 189.391,9.474 189.34,9.259 189.262,9.041 189.199,8.826 189.102,8.634 188.996,8.439 188.898,8.244 188.77,8.06 188.648,7.888 188.5,7.705 188.219,7.384 188.059,7.232 187.895,7.08 187.723,6.963 187.551,6.834 187.348,6.713 187.152,6.607 186.957,6.498 186.766,6.412 186.551,6.314 186.355,6.248 186.148,6.197 185.914,6.142 185.711,6.111 185.473,6.068 185.246,6.056 H 185 Z" />
      <path
         inkscape:connector-curvature="0"
         id="path78"
         style="fill:#000000;fill-opacity:1;fill-rule:evenodd;stroke:none"
         d="M 134.723,6.041 H 185 V 2.4 h -50.277 z" />
      <path
         inkscape:connector-curvature="0"
         id="path80"
         style="fill:#000000;fill-opacity:1;fill-rule:evenodd;stroke:none"
         d="m 126.559,10.607 0.023,-0.41 0.02,-0.41 0.054,-0.422 0.063,-0.399 0.086,-0.41 0.129,-0.386 0.121,-0.379 0.14,-0.368 0.16,-0.355 0.184,-0.375 0.203,-0.336 0.215,-0.344 0.215,-0.312 0.25,-0.313 0.266,-0.304 0.257,-0.278 0.293,-0.269 0.301,-0.25 0.301,-0.246 0.312,-0.239 0.332,-0.207 0.344,-0.203 0.356,-0.172 0.367,-0.164 0.355,-0.16 0.387,-0.117 0.387,-0.133 0.398,-0.062 0.399,-0.098 0.406,-0.031 0.43,-0.032 0.41,-0.023 v 3.656 h -0.246 l -0.239,0.012 -0.215,0.043 -0.226,0.031 -0.215,0.055 -0.203,0.055 -0.215,0.062 -0.215,0.098 -0.195,0.086 -0.191,0.109 -0.196,0.106 -0.183,0.121 -0.172,0.129 -0.184,0.117 -0.148,0.152 -0.16,0.148 -0.165,0.165 -0.14,0.16 -0.129,0.183 -0.141,0.172 -0.117,0.184 -0.098,0.195 -0.093,0.195 -0.098,0.192 -0.086,0.219 -0.066,0.214 -0.051,0.215 -0.055,0.215 -0.043,0.227 -0.031,0.226 -0.023,0.238 v 0.227 z" />
      <path
         inkscape:connector-curvature="0"
         id="path82"
         style="fill:#000000;fill-opacity:1;fill-rule:evenodd;stroke:none"
         d="m 126.559,21.029 h 3.621 V 10.607 h -3.621 z" />
      <path
         inkscape:connector-curvature="0"
         id="path84"
         style="fill:#000000;fill-opacity:1;fill-rule:evenodd;stroke:none"
         d="m 134.723,29.213 -0.43,-0.02 -0.41,-0.023 -0.406,-0.051 -0.399,-0.067 -0.398,-0.086 -0.774,-0.257 -0.355,-0.141 -0.367,-0.172 -0.356,-0.18 -0.344,-0.195 -0.332,-0.215 -0.312,-0.226 -0.301,-0.235 -0.301,-0.269 -0.293,-0.258 -0.257,-0.289 -0.266,-0.301 -0.25,-0.301 -0.215,-0.324 -0.215,-0.332 -0.203,-0.332 -0.184,-0.355 -0.16,-0.375 -0.14,-0.375 -0.117,-0.368 -0.129,-0.394 -0.09,-0.387 -0.063,-0.41 -0.054,-0.406 -0.02,-0.43 -0.023,-0.41 h 3.625 v 0.246 l 0.019,0.238 0.035,0.215 0.043,0.227 0.055,0.215 0.051,0.214 0.066,0.215 0.086,0.203 0.098,0.203 0.093,0.196 0.098,0.191 0.121,0.172 0.137,0.184 0.133,0.172 0.136,0.16 0.165,0.16 0.16,0.16 0.148,0.141 0.184,0.129 0.172,0.121 0.183,0.129 0.196,0.128 0.191,0.086 0.195,0.086 0.215,0.086 0.191,0.074 0.227,0.051 0.215,0.055 0.226,0.031 0.215,0.035 0.246,0.02 h 0.239 z" />
      <path
         inkscape:connector-curvature="0"
         id="path86"
         style="fill:#000000;fill-opacity:1;fill-rule:evenodd;stroke:none"
         d="m 171.773,29.213 h -37.05 v -3.637 h 37.05 z m 0,-3.637 v 3.637 -3.637 3.637 z" />
      <path
         inkscape:connector-curvature="0"
         id="path88"
         style="fill:#000000;fill-opacity:1;fill-rule:evenodd;stroke:none"
         d="m 134.723,29.213 h 37.051 v -3.637 h -37.051 z" />
      <path
         inkscape:connector-curvature="0"
         id="path90"
         style="fill:#000000;fill-opacity:1;fill-rule:evenodd;stroke:none"
         d="m 126.559,33.779 0.023,-0.41 0.02,-0.406 0.054,-0.403 0.063,-0.406 0.086,-0.402 0.129,-0.411 0.121,-0.363 0.14,-0.379 0.16,-0.355 0.184,-0.356 0.203,-0.355 0.215,-0.324 0.215,-0.336 0.25,-0.301 0.266,-0.313 0.257,-0.281 0.293,-0.269 0.301,-0.246 0.301,-0.25 0.312,-0.227 0.332,-0.215 0.344,-0.195 0.356,-0.184 0.367,-0.16 0.355,-0.16 0.387,-0.121 0.387,-0.106 0.398,-0.086 0.399,-0.097 0.406,-0.035 0.43,-0.032 0.41,-0.019 v 3.652 h -0.246 l -0.239,0.012 -0.215,0.043 -0.226,0.031 -0.215,0.055 -0.203,0.066 -0.215,0.074 -0.215,0.079 -0.195,0.085 -0.191,0.106 -0.196,0.109 -0.183,0.117 -0.172,0.129 -0.184,0.121 -0.148,0.161 -0.16,0.152 -0.165,0.148 -0.14,0.184 -0.129,0.164 -0.141,0.172 -0.117,0.191 -0.098,0.188 -0.093,0.191 -0.098,0.196 -0.086,0.214 -0.066,0.215 -0.051,0.215 -0.055,0.227 -0.043,0.218 -0.031,0.235 -0.023,0.226 v 0.227 z" />
      <path
         inkscape:connector-curvature="0"
         id="path92"
         style="fill:#000000;fill-opacity:1;fill-rule:evenodd;stroke:none"
         d="m 126.559,66.947 h 3.621 V 33.779 h -3.621 z" />
      <path
         inkscape:connector-curvature="0"
         id="path94"
         style="fill:#000000;fill-opacity:1;fill-rule:evenodd;stroke:none"
         d="m 134.723,75.154 h -0.43 l -0.41,-0.035 -0.406,-0.051 -0.399,-0.078 -0.398,-0.086 -0.387,-0.129 -0.387,-0.117 -0.355,-0.141 -0.367,-0.164 -0.356,-0.183 -0.344,-0.204 -0.332,-0.207 -0.312,-0.222 -0.301,-0.25 -0.301,-0.27 -0.293,-0.269 -0.257,-0.282 -0.266,-0.3 -0.25,-0.301 -0.215,-0.324 -0.215,-0.336 -0.203,-0.344 -0.184,-0.356 -0.16,-0.378 -0.14,-0.356 -0.117,-0.387 -0.129,-0.39 -0.09,-0.399 -0.063,-0.41 -0.054,-0.406 -0.02,-0.422 -0.023,-0.41 h 3.625 v 0.246 l 0.019,0.227 0.035,0.214 0.043,0.239 0.055,0.207 0.051,0.215 0.066,0.214 0.086,0.219 0.098,0.192 0.093,0.195 0.098,0.195 0.121,0.18 0.137,0.176 0.133,0.183 0.136,0.16 0.165,0.161 0.16,0.164 0.148,0.14 0.184,0.117 0.172,0.153 0.183,0.117 0.196,0.086 0.191,0.109 0.195,0.106 0.215,0.078 0.191,0.062 0.227,0.055 0.215,0.055 0.226,0.043 0.215,0.031 0.246,0.019 h 0.239 z" />
      <path
         inkscape:connector-curvature="0"
         id="path96"
         style="fill:#000000;fill-opacity:1;fill-rule:evenodd;stroke:none"
         d="M 134.723,75.154 H 185 V 71.49 h -50.277 z" />
      <path
         inkscape:connector-curvature="0"
         id="path98"
         style="fill:#000000;fill-opacity:1;fill-rule:evenodd;stroke:none"
         d="m 193.184,66.947 -0.024,0.418 -0.031,0.41 -0.055,0.41 -0.074,0.41 -0.086,0.399 -0.109,0.39 -0.137,0.375 -0.141,0.368 -0.164,0.378 -0.191,0.356 -0.195,0.344 -0.192,0.336 -0.238,0.324 -0.25,0.301 -0.246,0.3 -0.281,0.282 -0.278,0.269 -0.301,0.27 -0.304,0.246 -0.321,0.23 -0.336,0.203 -0.332,0.204 -0.355,0.183 -0.355,0.164 -0.391,0.141 -0.375,0.117 -0.387,0.129 -0.39,0.086 -0.407,0.074 -0.41,0.055 -0.41,0.035 H 185 v -3.645 h 0.246 l 0.227,-0.023 0.234,-0.031 0.207,-0.043 0.238,-0.055 0.203,-0.055 0.215,-0.066 0.196,-0.074 0.191,-0.106 0.195,-0.109 0.196,-0.086 0.203,-0.121 0.172,-0.149 0.172,-0.117 0.16,-0.14 0.164,-0.164 0.14,-0.149 0.141,-0.172 0.148,-0.187 0.122,-0.172 0.128,-0.184 0.094,-0.191 0.11,-0.195 0.097,-0.196 0.063,-0.191 0.078,-0.219 0.055,-0.234 0.062,-0.207 0.043,-0.235 0.031,-0.218 v -0.247 l 0.012,-0.226 z" />
      <path
         inkscape:connector-curvature="0"
         id="path100"
         style="fill:#000000;fill-opacity:1;fill-rule:evenodd;stroke:none"
         d="m 189.543,66.947 h 3.641 V 56.674 h -3.641 z" />
      <path
         inkscape:connector-curvature="0"
         id="path102"
         style="fill:#000000;fill-opacity:1;fill-rule:evenodd;stroke:none"
         d="m 185,48.447 0.418,0.023 0.41,0.032 0.41,0.054 0.407,0.074 0.39,0.086 0.387,0.106 0.375,0.121 0.391,0.16 0.355,0.164 0.355,0.184 0.332,0.191 0.336,0.219 0.321,0.223 0.301,0.25 0.304,0.246 0.278,0.273 0.281,0.277 0.25,0.313 0.246,0.312 0.238,0.325 0.192,0.336 0.195,0.343 0.195,0.356 0.16,0.355 0.141,0.379 0.137,0.387 0.109,0.387 0.086,0.402 0.078,0.41 0.051,0.399 0.035,0.41 0.02,0.429 h -3.641 l -0.012,-0.246 v -0.226 l -0.031,-0.238 -0.043,-0.215 -0.066,-0.227 -0.051,-0.215 -0.078,-0.218 -0.063,-0.192 -0.097,-0.219 -0.106,-0.191 -0.098,-0.195 -0.128,-0.184 -0.122,-0.172 -0.148,-0.16 -0.141,-0.187 -0.14,-0.149 -0.16,-0.152 -0.164,-0.141 -0.172,-0.141 -0.172,-0.128 -0.203,-0.118 -0.196,-0.109 -0.195,-0.105 -0.191,-0.086 -0.196,-0.079 -0.215,-0.074 -0.207,-0.066 -0.234,-0.051 -0.203,-0.035 -0.238,-0.043 -0.227,-0.008 H 185 Z" />
      <path
         inkscape:connector-curvature="0"
         id="path104"
         style="fill:#000000;fill-opacity:1;fill-rule:evenodd;stroke:none"
         d="m 148.316,48.447 h 36.68 v 3.641 h -36.68 z m 0,3.641 v -3.641 3.641 -3.641 z" />
      <path
         inkscape:connector-curvature="0"
         id="path106"
         style="fill:#000000;fill-opacity:1;fill-rule:evenodd;stroke:none"
         d="M 148.316,52.088 H 185 v -3.641 h -36.684 z" />
      <path
         inkscape:connector-curvature="0"
         id="path108"
         style="fill:#000000;fill-opacity:1;fill-rule:evenodd;stroke:none"
         d="m 107.668,50.271 v 1.817 h -21.52 v -3.641 h 21.52 z" />
      <path
         inkscape:connector-curvature="0"
         id="path110"
         style="fill:#000000;fill-opacity:1;fill-rule:evenodd;stroke:none"
         d="m 15.559,99.724 h 0.277 l 0.269,-0.051 0.239,-0.054 0.203,-0.086 0.195,-0.129 0.16,-0.129 0.141,-0.152 0.129,-0.184 0.105,-0.172 0.086,-0.215 0.067,-0.214 0.074,-0.239 0.031,-0.246 0.043,-0.25 V 97.334 L 17.59,97.076 17.578,96.755 17.559,96.431 17.527,96.15 17.484,95.88 17.418,95.634 17.332,95.42 17.223,95.205 17.117,95.029 16.957,94.869 16.793,94.728 16.602,94.623 16.387,94.525 16.16,94.459 15.879,94.427 15.59,94.404 15.258,94.427 v 5.297 z M 15.258,85.513 v 7.094 h 0.879 l 0.269,0.031 0.25,0.024 0.492,0.109 0.215,0.051 0.215,0.066 0.207,0.075 0.192,0.085 0.183,0.11 0.172,0.105 0.16,0.129 0.141,0.121 0.152,0.149 0.137,0.14 0.121,0.164 0.105,0.172 0.11,0.18 0.086,0.176 0.086,0.215 0.074,0.191 0.074,0.238 0.067,0.227 0.054,0.238 0.031,0.246 0.043,0.258 0.055,0.539 v 0.981 l -0.023,0.355 -0.032,0.324 -0.043,0.309 -0.066,0.293 -0.051,0.269 -0.086,0.246 -0.097,0.227 -0.086,0.215 -0.11,0.195 -0.117,0.195 -0.129,0.161 -0.117,0.14 -0.141,0.149 -0.152,0.117 -0.137,0.109 -0.164,0.11 -0.148,0.086 -0.164,0.074 -0.18,0.066 -0.336,0.106 -0.355,0.074 -0.352,0.055 -0.355,0.023 -0.344,0.012 H 13.148 V 85.513 Z" />
      <path
         inkscape:connector-curvature="0"
         id="path112"
         style="fill:#000000;fill-opacity:1;fill-rule:evenodd;stroke:none"
         d="m 29.934,90.295 h -2.559 l 1.281,8.148 h 0.035 l 0.821,-5.836 z m -2.063,11.238 -3.476,-16.02 h 2.07 l 0.594,3.133 h 3.199 l 0.582,-3.133 h 2.148 l -3.445,16.02 z" />
      <path
         inkscape:connector-curvature="0"
         id="path114"
         style="fill:#000000;fill-opacity:1;fill-rule:evenodd;stroke:none"
         d="M 41.352,101.537 V 89.412 l 0.035,-0.324 0.043,-0.301 0.031,-0.27 0.074,-0.226 0.067,-0.196 0.074,-0.183 0.086,-0.141 0.105,-0.129 0.121,-0.105 0.129,-0.086 0.117,-0.055 0.141,-0.055 0.148,-0.031 h 0.153 l 0.16,-0.023 0.25,0.023 0.234,0.031 0.203,0.055 0.165,0.074 0.16,0.086 0.129,0.11 0.097,0.117 0.106,0.152 0.078,0.16 0.051,0.153 0.035,0.203 0.031,0.195 0.055,0.418 0.019,0.484 v 11.989 h 2.11 v -12.18 l -0.024,-0.434 -0.031,-0.406 -0.055,-0.41 -0.086,-0.41 -0.05,-0.192 -0.055,-0.195 -0.074,-0.183 -0.067,-0.196 -0.105,-0.172 -0.098,-0.16 -0.117,-0.16 -0.133,-0.164 -0.137,-0.141 -0.164,-0.136 -0.148,-0.129 -0.195,-0.11 -0.204,-0.109 -0.203,-0.086 -0.25,-0.086 -0.246,-0.055 -0.293,-0.05 -0.277,-0.035 -0.324,-0.043 H 42.59 l -0.281,0.023 -0.278,0.031 -0.25,0.055 -0.246,0.055 -0.215,0.074 -0.215,0.066 -0.195,0.106 -0.191,0.086 -0.16,0.129 -0.164,0.128 -0.137,0.122 -0.121,0.136 -0.129,0.164 -0.106,0.16 -0.086,0.184 -0.086,0.172 -0.085,0.184 -0.079,0.195 -0.05,0.215 -0.11,0.418 -0.062,0.453 -0.055,0.472 -0.023,0.497 -0.02,0.515 -0.012,0.563 v 11.039 z" />
      <path
         inkscape:connector-curvature="0"
         id="path116"
         style="fill:#000000;fill-opacity:1;fill-rule:evenodd;stroke:none"
         d="M 56.109,101.537 V 87.365 h 3.567 v -1.852 h -5.664 v 16.024 z" />
      <path
         inkscape:connector-curvature="0"
         id="path118"
         style="fill:#000000;fill-opacity:1;fill-rule:evenodd;stroke:none"
         d="m 77.898,99.068 -0.214,0.152 -0.215,0.129 -0.196,0.11 -0.226,0.105 -0.215,0.086 -0.227,0.055 -0.246,0.031 -0.269,0.023 -0.215,-0.023 -0.195,-0.031 -0.192,-0.055 -0.175,-0.062 -0.18,-0.098 -0.141,-0.11 -0.14,-0.105 -0.141,-0.141 -0.109,-0.14 -0.106,-0.16 -0.086,-0.172 -0.074,-0.184 -0.055,-0.195 -0.031,-0.184 -0.035,-0.203 v -0.465 l 0.035,-0.234 0.031,-0.219 0.055,-0.203 0.086,-0.215 0.105,-0.195 0.129,-0.215 0.141,-0.191 1.617,-1.789 0.504,-0.528 0.441,-0.496 0.219,-0.269 0.18,-0.247 0.172,-0.269 0.281,-0.539 0.129,-0.281 0.109,-0.301 0.063,-0.324 0.078,-0.321 0.051,-0.355 0.023,-0.367 0.012,-0.399 -0.012,-0.41 L 78.609,88.658 78.535,88.267 78.418,87.88 78.289,87.525 78.113,87.17 78.008,87.009 77.91,86.845 77.793,86.685 77.684,86.545 77.566,86.404 77.414,86.275 77.297,86.158 77.156,86.029 76.996,85.92 76.832,85.814 76.672,85.728 76.5,85.642 76.316,85.545 76.145,85.49 75.949,85.423 75.766,85.392 75.563,85.349 75.367,85.318 75.152,85.295 h -0.527 l -0.324,0.043 -0.301,0.066 -0.301,0.074 -0.301,0.11 -0.281,0.14 -0.269,0.141 -0.246,0.191 v 2.153 l 0.226,-0.172 0.246,-0.161 0.25,-0.14 0.246,-0.129 0.27,-0.086 0.269,-0.074 0.278,-0.055 0.301,-0.023 0.25,0.023 0.214,0.031 0.196,0.055 0.191,0.074 0.164,0.11 0.16,0.105 0.141,0.121 0.117,0.16 0.109,0.161 0.086,0.164 0.075,0.195 0.054,0.191 0.055,0.196 0.031,0.214 0.024,0.215 v 0.516 l -0.035,0.281 -0.149,0.516 -0.109,0.238 -0.117,0.227 -0.141,0.238 -0.141,0.215 -0.16,0.203 -0.183,0.215 -0.196,0.195 -0.172,0.215 -0.41,0.398 -0.418,0.41 -0.41,0.407 -0.41,0.441 -0.191,0.219 -0.184,0.246 -0.172,0.246 -0.164,0.25 -0.16,0.27 -0.141,0.277 -0.105,0.305 -0.11,0.3 -0.086,0.344 -0.054,0.332 -0.032,0.379 -0.023,0.367 0.023,0.43 0.032,0.41 0.074,0.387 0.109,0.375 0.118,0.355 0.14,0.344 0.098,0.152 0.097,0.164 0.098,0.137 0.117,0.153 0.106,0.14 0.133,0.117 0.117,0.129 0.14,0.11 0.141,0.105 0.148,0.109 0.153,0.086 0.183,0.086 0.161,0.075 0.171,0.066 0.196,0.055 0.191,0.043 0.195,0.031 0.215,0.031 0.215,0.024 h 0.52 l 0.289,-0.024 0.293,-0.031 0.277,-0.055 0.281,-0.074 0.27,-0.098 0.269,-0.105 0.258,-0.152 z" />
      <path
         inkscape:connector-curvature="0"
         id="path120"
         style="fill:#000000;fill-opacity:1;fill-rule:evenodd;stroke:none"
         d="m 91.512,99.349 -0.16,0.074 -0.161,0.086 -0.164,0.055 -0.172,0.066 -0.16,0.051 -0.172,0.043 -0.183,0.012 -0.172,0.023 -0.27,-0.023 -0.265,-0.031 -0.227,-0.055 -0.215,-0.086 -0.207,-0.105 -0.203,-0.133 -0.172,-0.117 -0.16,-0.161 -0.164,-0.183 -0.117,-0.172 -0.141,-0.215 -0.105,-0.195 -0.109,-0.238 -0.086,-0.227 -0.094,-0.223 -0.067,-0.261 -0.128,-0.516 -0.086,-0.508 -0.067,-0.535 -0.051,-0.52 -0.043,-0.988 -0.011,-0.863 0.011,-0.406 v -0.465 l 0.02,-0.473 0.031,-0.496 0.078,-0.508 0.063,-0.515 0.109,-0.496 0.141,-0.473 0.074,-0.246 0.086,-0.219 0.105,-0.234 0.11,-0.196 0.129,-0.214 0.117,-0.172 0.141,-0.184 0.16,-0.164 0.164,-0.137 0.172,-0.121 0.191,-0.129 0.195,-0.086 0.235,-0.074 0.226,-0.055 0.246,-0.031 0.27,-0.023 h 0.16 l 0.176,0.023 0.32,0.063 0.16,0.043 0.141,0.054 0.16,0.067 0.141,0.074 V 85.748 L 91.32,85.619 91.125,85.533 90.91,85.459 90.695,85.392 90.48,85.349 90.277,85.318 90.063,85.295 h -0.239 l -0.398,0.023 -0.375,0.031 -0.332,0.055 -0.336,0.086 -0.32,0.129 -0.282,0.129 -0.289,0.152 -0.25,0.16 -0.246,0.195 -0.203,0.215 -0.215,0.215 -0.195,0.246 -0.184,0.25 -0.16,0.27 -0.141,0.289 -0.136,0.281 -0.121,0.301 -0.106,0.301 -0.086,0.324 -0.097,0.324 -0.086,0.332 -0.055,0.324 -0.063,0.332 -0.043,0.336 -0.085,0.7 -0.036,0.679 -0.043,0.656 v 1.258 l 0.024,0.657 0.031,0.703 0.074,0.711 0.035,0.351 0.051,0.36 0.078,0.351 0.063,0.336 0.074,0.356 0.086,0.332 0.109,0.347 0.129,0.321 0.118,0.312 0.14,0.301 0.141,0.304 0.183,0.29 0.172,0.269 0.215,0.246 0.215,0.227 0.226,0.215 0.247,0.195 0.281,0.16 0.289,0.164 0.312,0.129 0.321,0.086 0.355,0.086 0.367,0.031 0.399,0.024 h 0.258 l 0.246,-0.024 0.234,-0.031 0.227,-0.055 0.214,-0.054 0.215,-0.086 0.227,-0.086 0.215,-0.129 z" />
      <path
         inkscape:connector-curvature="0"
         id="path122"
         style="fill:#000000;fill-opacity:1;fill-rule:evenodd;stroke:none"
         d="m 100.148,101.537 v -6.246 h 3.184 v 6.246 h 2.117 V 85.513 h -2.117 v 7.934 h -3.184 V 85.513 H 98.02 v 16.024 z" />
      <path
         inkscape:connector-curvature="0"
         id="path124"
         style="fill:#000000;fill-opacity:1;fill-rule:evenodd;stroke:none"
         d="m 118.59,101.537 v -1.856 h -3.574 v -5.027 h 3.187 v -1.852 h -3.187 v -5.437 h 3.574 v -1.852 h -5.688 v 16.024 z" />
      <path
         inkscape:connector-curvature="0"
         id="path126"
         style="fill:#000000;fill-opacity:1;fill-rule:evenodd;stroke:none"
         d="m 127.234,94.439 v 5.285 h 0.625 l 0.246,-0.043 0.227,-0.062 0.203,-0.086 0.172,-0.11 0.141,-0.148 0.129,-0.152 0.109,-0.184 0.062,-0.195 0.075,-0.215 0.054,-0.223 0.032,-0.261 0.054,-0.504 v -0.875 l -0.019,-0.266 -0.035,-0.27 -0.051,-0.25 -0.078,-0.234 -0.063,-0.207 -0.109,-0.191 -0.106,-0.184 -0.14,-0.164 -0.16,-0.137 -0.172,-0.109 -0.196,-0.086 -0.214,-0.074 -0.239,-0.055 -0.258,-0.012 z m -2.117,-8.926 h 2.117 v 7.836 h 0.043 l 2.883,-7.836 h 2.192 l -2.934,7.805 0.16,0.023 0.141,0.055 0.16,0.051 0.141,0.066 0.117,0.075 0.129,0.085 0.121,0.11 0.105,0.086 0.196,0.234 0.191,0.25 0.141,0.281 0.152,0.289 0.094,0.325 0.109,0.3 0.074,0.332 0.067,0.325 0.043,0.312 0.031,0.324 0.023,0.301 v 0.656 l -0.043,0.344 -0.011,0.313 -0.055,0.312 -0.055,0.281 -0.074,0.27 -0.086,0.223 -0.086,0.238 -0.086,0.195 -0.109,0.192 -0.129,0.183 -0.117,0.153 -0.129,0.148 -0.141,0.121 -0.14,0.129 -0.137,0.086 -0.164,0.109 -0.137,0.063 -0.164,0.074 -0.16,0.078 -0.332,0.086 -0.336,0.074 -0.32,0.032 -0.336,0.023 -0.321,0.008 h -2.828 z" />
      <path
         inkscape:connector-curvature="0"
         id="path128"
         style="fill:#000000;fill-opacity:1;fill-rule:evenodd;stroke:none"
         d="m 140.914,94.439 v 5.285 h 0.621 l 0.25,-0.043 0.223,-0.062 0.195,-0.086 0.184,-0.11 0.14,-0.148 0.118,-0.152 0.105,-0.184 0.078,-0.195 0.074,-0.215 0.043,-0.223 0.043,-0.261 0.055,-0.504 v -0.875 l -0.023,-0.266 -0.032,-0.27 -0.054,-0.25 -0.075,-0.234 -0.066,-0.207 -0.105,-0.191 -0.11,-0.184 -0.137,-0.164 -0.164,-0.137 -0.183,-0.109 -0.192,-0.086 -0.203,-0.074 -0.238,-0.055 -0.258,-0.012 z m -2.121,-8.926 h 2.121 v 7.836 h 0.043 l 2.879,-7.836 h 2.195 l -2.937,7.805 0.152,0.023 0.16,0.055 0.141,0.051 0.152,0.066 0.117,0.075 0.129,0.085 0.118,0.11 0.109,0.086 0.215,0.234 0.172,0.25 0.16,0.281 0.117,0.289 0.129,0.325 0.086,0.3 0.078,0.332 0.062,0.325 0.043,0.312 0.036,0.324 0.019,0.301 v 0.656 l -0.019,0.344 -0.036,0.313 -0.05,0.312 -0.055,0.281 -0.078,0.27 -0.086,0.223 -0.086,0.238 -0.086,0.195 -0.105,0.192 -0.129,0.183 -0.118,0.153 -0.128,0.148 -0.141,0.121 -0.141,0.129 -0.14,0.086 -0.149,0.109 -0.152,0.063 -0.16,0.074 -0.16,0.078 -0.336,0.086 -0.332,0.074 -0.325,0.032 -0.332,0.023 -0.324,0.008 h -2.828 z" />
      <path
         inkscape:connector-curvature="0"
         id="path130"
         style="fill:#000000;fill-opacity:1;fill-rule:evenodd;stroke:none"
         d="m 158.18,101.537 v -1.856 h -3.582 v -5.027 h 3.195 v -1.852 h -3.195 v -5.437 h 3.582 v -1.852 h -5.707 v 16.024 z" />
      <path
         inkscape:connector-curvature="0"
         id="path132"
         style="fill:#000000;fill-opacity:1;fill-rule:evenodd;stroke:none"
         d="m 166.793,94.439 v 5.285 h 0.648 l 0.247,-0.043 0.226,-0.062 0.195,-0.086 0.164,-0.11 0.161,-0.148 0.121,-0.152 0.093,-0.184 0.086,-0.195 0.067,-0.215 0.054,-0.223 0.043,-0.261 0.032,-0.504 0.011,-0.571 v -0.304 l -0.011,-0.266 -0.032,-0.27 -0.054,-0.25 -0.074,-0.234 -0.079,-0.207 -0.093,-0.191 -0.133,-0.184 -0.117,-0.164 -0.164,-0.137 -0.18,-0.109 -0.195,-0.086 -0.219,-0.074 -0.246,-0.055 -0.258,-0.012 z m -2.105,-8.926 h 2.105 v 7.836 h 0.055 l 2.882,-7.836 h 2.215 l -2.961,7.805 0.172,0.023 0.141,0.055 0.152,0.051 0.141,0.066 0.14,0.075 0.118,0.085 0.109,0.11 0.129,0.086 0.195,0.234 0.172,0.25 0.164,0.281 0.141,0.289 0.105,0.325 0.11,0.3 0.074,0.332 0.043,0.325 0.055,0.312 0.043,0.324 0.011,0.301 v 0.289 l -0.011,0.367 -0.02,0.344 -0.035,0.313 -0.043,0.312 -0.043,0.281 -0.074,0.27 -0.086,0.223 -0.086,0.238 -0.098,0.195 -0.109,0.192 -0.117,0.183 -0.129,0.153 -0.121,0.148 -0.141,0.121 -0.141,0.129 -0.148,0.086 -0.152,0.109 -0.165,0.063 -0.16,0.074 -0.164,0.078 -0.312,0.086 -0.344,0.074 -0.336,0.032 -0.324,0.023 -0.313,0.008 h -2.839 z" />
      <path
         inkscape:connector-curvature="0"
         id="path134"
         style="fill:#000000;fill-opacity:1;fill-rule:evenodd;stroke:none"
         d="m 185.883,101.537 h 2.133 V 85.514 h -2.133 z" />
      <path
         inkscape:connector-curvature="0"
         id="path136"
         style="fill:#000000;fill-opacity:1;fill-rule:evenodd;stroke:none"
         d="m 197.258,96.775 0.324,-5.371 v -5.895 h -2.137 v 16.028 h 2.039 l 3.743,-12.18 0.043,0.051 -0.516,6.418 v 5.711 h 2.121 V 85.509 h -1.961 l -3.742,12.344 -0.043,-0.031 z" />
      <path
         inkscape:connector-curvature="0"
         id="path138"
         style="fill:#000000;fill-opacity:1;fill-rule:evenodd;stroke:none"
         d="m 215.242,99.068 -0.215,0.152 -0.218,0.129 -0.192,0.11 -0.226,0.105 -0.215,0.086 -0.238,0.055 -0.247,0.031 -0.257,0.023 -0.219,-0.023 -0.192,-0.031 -0.195,-0.055 -0.183,-0.062 -0.172,-0.098 -0.141,-0.11 -0.141,-0.105 -0.148,-0.141 -0.098,-0.14 -0.105,-0.16 -0.098,-0.172 -0.066,-0.184 -0.055,-0.195 -0.031,-0.184 -0.043,-0.203 v -0.465 l 0.043,-0.234 0.031,-0.219 0.078,-0.203 0.063,-0.215 0.109,-0.195 0.129,-0.215 0.141,-0.191 1.601,-1.789 0.52,-0.528 0.441,-0.496 0.215,-0.269 0.172,-0.247 0.183,-0.269 0.282,-0.539 0.129,-0.281 0.105,-0.301 0.066,-0.324 0.075,-0.321 0.054,-0.355 0.012,-0.367 0.02,-0.399 -0.02,-0.41 -0.055,-0.406 -0.066,-0.391 -0.105,-0.387 -0.141,-0.355 -0.184,-0.355 -0.086,-0.161 -0.105,-0.164 -0.109,-0.16 -0.118,-0.14 -0.132,-0.141 -0.118,-0.129 -0.14,-0.117 -0.149,-0.129 -0.152,-0.109 -0.16,-0.106 -0.164,-0.086 -0.172,-0.086 -0.184,-0.097 -0.172,-0.055 -0.183,-0.067 -0.192,-0.031 -0.214,-0.043 -0.196,-0.031 -0.203,-0.023 h -0.539 l -0.312,0.043 -0.301,0.066 -0.305,0.074 -0.289,0.11 -0.281,0.14 -0.278,0.141 -0.25,0.191 v 2.153 l 0.227,-0.172 0.246,-0.161 0.25,-0.14 0.246,-0.129 0.27,-0.086 0.269,-0.074 0.281,-0.055 0.301,-0.023 0.246,0.023 0.219,0.031 0.192,0.055 0.195,0.074 0.16,0.11 0.152,0.105 0.149,0.121 0.121,0.16 0.105,0.161 0.086,0.164 0.078,0.195 0.051,0.191 0.055,0.196 0.031,0.214 0.024,0.215 v 0.516 l -0.043,0.281 -0.067,0.258 -0.074,0.258 -0.106,0.238 -0.121,0.227 -0.14,0.238 -0.149,0.215 -0.152,0.203 -0.184,0.215 -0.191,0.195 -0.172,0.215 -0.41,0.398 -0.43,0.41 -0.41,0.407 -0.398,0.441 -0.196,0.219 -0.183,0.246 -0.172,0.246 -0.16,0.25 -0.164,0.27 -0.137,0.277 -0.109,0.305 -0.11,0.3 -0.086,0.344 -0.051,0.332 -0.035,0.379 -0.019,0.367 0.019,0.43 0.035,0.41 0.075,0.387 0.097,0.375 0.129,0.355 0.16,0.344 0.067,0.152 0.105,0.164 0.086,0.137 0.129,0.153 0.11,0.14 0.246,0.246 0.14,0.11 0.141,0.105 0.164,0.109 0.137,0.086 0.183,0.086 0.153,0.075 0.183,0.066 0.192,0.055 0.195,0.043 0.191,0.031 0.219,0.031 0.215,0.024 h 0.504 l 0.304,-0.024 0.29,-0.031 0.281,-0.055 0.277,-0.074 0.27,-0.098 0.269,-0.105 0.262,-0.152 z" />
      <path
         inkscape:connector-curvature="0"
         id="path140"
         style="fill:#000000;fill-opacity:1;fill-rule:evenodd;stroke:none"
         d="m 228.316,101.537 v -1.856 h -2.394 V 85.513 h -2.106 v 14.168 h -2.5 v 1.856 z" />
      <path
         inkscape:connector-curvature="0"
         id="path142"
         style="fill:#000000;fill-opacity:1;fill-rule:evenodd;stroke:none"
         d="m 234.391,101.537 h 2.133 V 85.514 h -2.133 z" />
      <path
         inkscape:connector-curvature="0"
         id="path144"
         style="fill:#000000;fill-opacity:1;fill-rule:evenodd;stroke:none"
         d="m 249.598,101.537 v -1.856 h -2.407 V 85.513 h -2.105 v 14.168 h -2.488 v 1.856 z" />
      <path
         inkscape:connector-curvature="0"
         id="path146"
         style="fill:#000000;fill-opacity:1;fill-rule:evenodd;stroke:none"
         d="M 257.785,101.537 V 89.412 l 0.031,-0.324 0.036,-0.301 0.031,-0.27 0.078,-0.226 0.074,-0.196 0.063,-0.183 0.086,-0.141 0.109,-0.129 0.129,-0.105 0.121,-0.086 0.129,-0.055 0.141,-0.055 0.14,-0.031 h 0.16 l 0.16,-0.023 0.25,0.023 0.227,0.031 0.215,0.055 0.164,0.074 0.148,0.086 0.129,0.11 0.11,0.117 0.109,0.152 0.063,0.16 0.054,0.153 0.055,0.203 0.019,0.195 0.055,0.418 0.012,0.484 v 11.989 h 2.113 v -12.18 l -0.023,-0.434 -0.032,-0.406 -0.054,-0.41 -0.086,-0.41 -0.031,-0.192 -0.075,-0.195 -0.066,-0.183 -0.074,-0.196 -0.086,-0.172 -0.11,-0.16 -0.129,-0.16 -0.121,-0.164 -0.136,-0.141 -0.164,-0.136 -0.161,-0.129 -0.39,-0.219 -0.215,-0.086 -0.246,-0.086 -0.25,-0.055 -0.281,-0.05 -0.289,-0.035 -0.313,-0.043 h -0.637 l -0.293,0.023 -0.277,0.031 -0.25,0.055 -0.246,0.055 -0.219,0.074 -0.215,0.066 -0.195,0.106 -0.172,0.086 -0.183,0.129 -0.149,0.128 -0.14,0.122 -0.133,0.136 -0.117,0.164 -0.106,0.16 -0.098,0.184 -0.086,0.172 -0.089,0.184 -0.075,0.195 -0.054,0.215 -0.094,0.418 -0.078,0.453 -0.055,0.472 -0.019,0.497 -0.012,0.515 v 11.602 z" />
      <path
         inkscape:connector-curvature="0"
         id="path148"
         style="fill:#000000;fill-opacity:1;fill-rule:evenodd;stroke:none"
         d="m 276.051,101.537 v -1.856 h -2.395 V 85.513 h -2.105 v 14.168 h -2.504 v 1.856 z" />
    </g>
  </g>
</svg>
