<?xml version="1.0" encoding="UTF-8"?>
<svg width="172.91" height="48.92" version="1.1" viewBox="0 0 172.91 48.92" xml:space="preserve" xmlns="http://www.w3.org/2000/svg" xmlns:cc="http://creativecommons.org/ns#" xmlns:dc="http://purl.org/dc/elements/1.1/" xmlns:rdf="http://www.w3.org/1999/02/22-rdf-syntax-ns#"><metadata><rdf:RDF><cc:Work rdf:about=""><dc:format>image/svg+xml</dc:format><dc:type rdf:resource="http://purl.org/dc/dcmitype/StillImage"/><dc:title/></cc:Work></rdf:RDF></metadata><defs><clipPath id="clipPath32"><path d="m217.99 436.84h8.4688v5.0449h-8.4688z"/></clipPath><clipPath id="clipPath36"><path d="m217.99 436.84h8.4688v5.0449h-8.4688z"/></clipPath><clipPath id="clipPath58"><path d="m205.51 436.84h20.95v5.0449h-20.95z"/></clipPath><clipPath id="clipPath62"><path d="m205.51 438.87h14.173v1h-14.173z"/></clipPath><clipPath id="clipPath66"><path d="m217.99 436.84h8.4688v5.0449h-8.4688z"/></clipPath><clipPath id="clipPath98"><path d="m267.6 436.84h8.4688v5.0449h-8.4688z"/></clipPath><clipPath id="clipPath102"><path d="m267.6 436.84h8.4688v5.0449h-8.4688z"/></clipPath><clipPath id="clipPath124"><path d="m255.12 436.84h20.949v5.0449h-20.949z"/></clipPath><clipPath id="clipPath128"><path d="m255.12 438.87h14.174v1h-14.174z"/></clipPath><clipPath id="clipPath132"><path d="m267.6 436.84h8.4688v5.0449h-8.4688z"/></clipPath></defs><g transform="matrix(1.3333 0 0 -1.3333 -253.33 608.92)"><path d="m255.12 425.2h-28.347v28.914h28.347z" fill="#fff" stroke="#000"/><text transform="matrix(1 0 0 -1 233.86 432.28)" fill="#000000" font-family="Myriad" font-size="24px"><tspan x="0" y="0">h</tspan></text><g clip-path="url(#clipPath32)"><g clip-path="url(#clipPath36)"><path d="m222.05 440.39c-1.6533 0.49902-2.728 0.95899-4.0542 1.4922v-5.0449c0.47461 0.22558 2.4009 0.99218 4.0542 1.4912 1.7695 0.53515 3.374 0.90039 4.4146 1.0312-1.0405 0.13086-2.645 0.49609-4.4146 1.0303z" fill="#fff"/></g></g><g clip-path="url(#clipPath58)"><g clip-path="url(#clipPath62)"><path d="m205.51 439.37h14.173" fill="none" stroke="#000"/></g><g clip-path="url(#clipPath66)"><path d="m222.05 440.39c-1.6533 0.49902-2.728 0.95899-4.0542 1.4922v-5.0449c0.47461 0.22558 2.4009 0.99218 4.0542 1.4912 1.7695 0.53515 3.374 0.90039 4.4146 1.0312-1.0405 0.13086-2.645 0.49609-4.4146 1.0303z"/></g></g><g clip-path="url(#clipPath98)"><g clip-path="url(#clipPath102)"><path d="m271.65 440.39c-1.6533 0.49902-2.7285 0.95899-4.0547 1.4922v-5.0449c0.47461 0.22558 2.4014 0.99218 4.0547 1.4912 1.7695 0.53515 3.374 0.90039 4.4141 1.0312-1.04 0.13086-2.6445 0.49609-4.4141 1.0303z" fill="#fff"/></g></g><g clip-path="url(#clipPath124)"><g clip-path="url(#clipPath128)"><path d="m255.12 439.37h14.174" fill="none" stroke="#000"/></g><g clip-path="url(#clipPath132)"><path d="m271.65 440.39c-1.6533 0.49902-2.7285 0.95899-4.0547 1.4922v-5.0449c0.47461 0.22558 2.4014 0.99218 4.0547 1.4912 1.7695 0.53515 3.374 0.90039 4.4141 1.0312-1.04 0.13086-2.6445 0.49609-4.4141 1.0303z"/></g></g><text transform="matrix(1 0 0 -1 191.34 432.28)" fill="#000000" font-family="Myriad" font-size="24px"><tspan x="0" y="0">f</tspan></text><text transform="matrix(1 0 0 -1 283.46 432.28)" fill="#000000" font-family="Myriad" font-size="24px"><tspan x="0 13.32 23.280001" y="0">h*f</tspan></text></g></svg>
