<?xml version="1.0" encoding="UTF-8"?>
<svg width="453.33" height="226.67" version="1.1" viewBox="0 0 453.33 226.67" xml:space="preserve" xmlns="http://www.w3.org/2000/svg" xmlns:cc="http://creativecommons.org/ns#" xmlns:dc="http://purl.org/dc/elements/1.1/" xmlns:rdf="http://www.w3.org/1999/02/22-rdf-syntax-ns#"><metadata><rdf:RDF><cc:Work rdf:about=""><dc:format>image/svg+xml</dc:format><dc:type rdf:resource="http://purl.org/dc/dcmitype/StillImage"/><dc:title/></cc:Work></rdf:RDF></metadata><defs><clipPath id="clipPath176"><path d="m443.33 1531.7v-1276.7h2644.2v1276.7z"/></clipPath><clipPath id="clipPath290"><path d="m2402.5 1481.7v-369.17h635v369.17z"/></clipPath><clipPath id="clipPath314"><path d="m2402.5 1481.7v-369.17h635v369.17z"/></clipPath></defs><g transform="matrix(1.3333 0 0 -1.3333 0 226.67)"><g transform="scale(.1)"><g fill="none" stroke-linejoin="round" stroke-miterlimit="10" stroke-width="5"><path d="m443.33 255.83v1275.8h2643.3v-1275.8h-2643.3" stroke="#fff"/><g stroke="#000"><path d="m443.33 1531.7h2643.3"/><path d="m443.33 255.83h2643.3"/><path d="m3086.7 255.83v1275.8"/><path d="m443.33 255.83v1275.8"/><path d="m443.33 255.83h2643.3"/><path d="m443.33 255.83v1275.8"/><path d="m443.33 255.83v26.668"/><path d="m443.33 1531.7v-25.84"/></g></g><g transform="scale(10)"><text transform="matrix(1 0 0 -1 41.583 13.5)" fill="#000000" font-family="Helvetica" font-size="10px"><tspan x="0" y="0">0</tspan></text></g><path d="m971.67 255.83v26.668" fill="none" stroke="#000" stroke-linejoin="round" stroke-miterlimit="10" stroke-width="5"/><path d="m971.67 1531.7v-25.84" fill="none" stroke="#000" stroke-linejoin="round" stroke-miterlimit="10" stroke-width="5"/><g transform="scale(10)"><text transform="matrix(1 0 0 -1 94.417 13.5)" fill="#000000" font-family="Helvetica" font-size="10px"><tspan x="0" y="0">5</tspan></text></g><path d="m1500 255.83v26.668" fill="none" stroke="#000" stroke-linejoin="round" stroke-miterlimit="10" stroke-width="5"/><path d="m1500 1531.7v-25.84" fill="none" stroke="#000" stroke-linejoin="round" stroke-miterlimit="10" stroke-width="5"/><g transform="scale(10)"><text transform="matrix(1,0,0,-1,144.5,13.5)" fill="#000000" font-family="Helvetica" font-size="10px"><tspan x="0 5.5599999" y="0">10</tspan></text></g><path d="m2029.2 255.83v26.668" fill="none" stroke="#000" stroke-linejoin="round" stroke-miterlimit="10" stroke-width="5"/><path d="m2029.2 1531.7v-25.84" fill="none" stroke="#000" stroke-linejoin="round" stroke-miterlimit="10" stroke-width="5"/><g transform="scale(10)"><text transform="matrix(1 0 0 -1 197.42 13.5)" fill="#000000" font-family="Helvetica" font-size="10px"><tspan x="0 5.5599999" y="0">15</tspan></text></g><path d="m2557.5 255.83v26.668" fill="none" stroke="#000" stroke-linejoin="round" stroke-miterlimit="10" stroke-width="5"/><path d="m2557.5 1531.7v-25.84" fill="none" stroke="#000" stroke-linejoin="round" stroke-miterlimit="10" stroke-width="5"/><g transform="scale(10)"><text transform="matrix(1,0,0,-1,250.25,13.5)" fill="#000000" font-family="Helvetica" font-size="10px"><tspan x="0 5.5599999" y="0">20</tspan></text></g><path d="m3086.7 255.83v26.668" fill="none" stroke="#000" stroke-linejoin="round" stroke-miterlimit="10" stroke-width="5"/><path d="m3086.7 1531.7v-25.84" fill="none" stroke="#000" stroke-linejoin="round" stroke-miterlimit="10" stroke-width="5"/><g transform="scale(10)"><text transform="matrix(1 0 0 -1 303.17 13.5)" fill="#000000" font-family="Helvetica" font-size="10px"><tspan x="0 5.5599999" y="0">25</tspan></text></g><path d="m443.33 255.83h25.836" fill="none" stroke="#000" stroke-linejoin="round" stroke-miterlimit="10" stroke-width="5"/><path d="m3086.7 255.83h-26.67" fill="none" stroke="#000" stroke-linejoin="round" stroke-miterlimit="10" stroke-width="5"/><g transform="scale(10)"><text transform="matrix(1 0 0 -1 35.917 21.917)" fill="#000000" font-family="Helvetica" font-size="10px"><tspan x="0" y="0">0</tspan></text></g><path d="m443.33 511.67h25.836" fill="none" stroke="#000" stroke-linejoin="round" stroke-miterlimit="10" stroke-width="5"/><path d="m3086.7 511.67h-26.67" fill="none" stroke="#000" stroke-linejoin="round" stroke-miterlimit="10" stroke-width="5"/><g transform="scale(10)"><text transform="matrix(1 0 0 -1 27.583 47.5)" fill="#000000" font-family="Helvetica" font-size="10px"><tspan x="0 5.5599999 8.3400002" y="0">0.5</tspan></text></g><path d="m443.33 766.67h25.836" fill="none" stroke="#000" stroke-linejoin="round" stroke-miterlimit="10" stroke-width="5"/><path d="m3086.7 766.67h-26.67" fill="none" stroke="#000" stroke-linejoin="round" stroke-miterlimit="10" stroke-width="5"/><g transform="scale(10)"><text transform="matrix(1 0 0 -1 35.917 73)" fill="#000000" font-family="Helvetica" font-size="10px"><tspan x="0" y="0">1</tspan></text></g><path d="m443.33 1021.7h25.836" fill="none" stroke="#000" stroke-linejoin="round" stroke-miterlimit="10" stroke-width="5"/><path d="m3086.7 1021.7h-26.67" fill="none" stroke="#000" stroke-linejoin="round" stroke-miterlimit="10" stroke-width="5"/><g transform="scale(10)"><text transform="matrix(1 0 0 -1 27.583 98.5)" fill="#000000" font-family="Helvetica" font-size="10px"><tspan x="0 5.5599999 8.3400002" y="0">1.5</tspan></text></g><path d="m443.33 1276.7h25.836" fill="none" stroke="#000" stroke-linejoin="round" stroke-miterlimit="10" stroke-width="5"/><path d="m3086.7 1276.7h-26.67" fill="none" stroke="#000" stroke-linejoin="round" stroke-miterlimit="10" stroke-width="5"/><g transform="scale(10)"><text transform="matrix(1 0 0 -1 35.917 124)" fill="#000000" font-family="Helvetica" font-size="10px"><tspan x="0" y="0">2</tspan></text></g><path d="m443.33 1531.7h25.836" fill="none" stroke="#000" stroke-linejoin="round" stroke-miterlimit="10" stroke-width="5"/><path d="m3086.7 1531.7h-26.67" fill="none" stroke="#000" stroke-linejoin="round" stroke-miterlimit="10" stroke-width="5"/><g transform="scale(10)" fill="#000000" font-family="Helvetica"><text transform="matrix(1 0 0 -1 27.583 149.5)" font-size="10px"><tspan x="0 5.5599999 8.3400002" y="0">2.5</tspan><tspan x="16.75 21.75 24.530001 30.09" y="-8.1667995">x 10</tspan></text><text transform="matrix(1 0 0 -1 63.167 163.83)" font-size="6.6667px"><tspan x="0" y="0">4</tspan></text></g><g fill="none" stroke="#000" stroke-linejoin="round" stroke-miterlimit="10" stroke-width="5"><path d="m443.33 1531.7h2643.3"/><path d="m443.33 255.83h2643.3"/><path d="m3086.7 255.83v1275.8"/><path d="m443.33 255.83v1275.8"/></g><g clip-path="url(#clipPath176)" fill="none" stroke-linejoin="round" stroke-miterlimit="10" stroke-width="10"><g stroke="#00f"><path d="m2824.2 270h114.16l2.5-0.832h145.84"/><path d="m2562.5 272.5h76.67l3.33-0.832h86.67l2.5-0.836h90l2.5-0.832"/><path d="m2300.8 275.83h45l3.34-0.832h50l2.5-0.832h65.83l2.5-0.836h82.5l2.5-0.832h7.5"/><path d="m2039.2 281.67h26.66l2.5-0.836h29.17l2.5-0.832h31.67l3.33-0.832h34.17l2.5-0.836h34.16l2.5-0.832h40l2.5-0.832h45l2.5-0.836h2.5"/><path d="m1777.5 291.67 3.33-0.836h15.84l2.5-0.832h18.33l2.5-0.832h15.83l2.5-0.836h19.17l2.5-0.832h20.83l2.5-0.832h18.34l3.33-0.836h20.83l2.5-0.832h21.67l2.5-0.832h23.33l2.5-0.836h26.67l2.5-0.832h26.67l2.5-0.832h2.5"/><path d="m1515.8 306.67h3.34l2.5-0.836h10l3.33-0.832h7.5l2.5-0.832h10.83l2.5-0.836h10.84l2.5-0.832h10.83l2.5-0.832h10l3.33-0.836h10l3.34-0.832h10l2.5-0.832h10.83l2.5-0.836h13.33l2.5-0.832h10.84l2.5-0.832h13.33l2.5-0.836h10.83l2.5-0.832h13.34l2.5-0.832h13.33l2.5-0.836h15.83l2.5-0.832h13.34l2.5-0.832h15.83"/><path d="m1254.2 335 2.5-0.832h3.33l2.5-0.836h2.5l2.5-0.832h2.5l3.33-0.832h2.5l2.5-0.836h5l2.5-0.832h3.34l2.5-0.832h2.5l2.5-0.836h5l3.33-0.832h2.5l2.5-0.832h5l2.5-0.836h3.33l2.5-0.832h5l2.5-0.832h5.84l2.5-0.836h2.5l2.5-0.832h5l3.33-0.832h5l2.5-0.836h5.83l2.5-0.832h2.5l2.5-0.832h5l3.34-0.836h5l2.5-0.832h5l3.33-0.832h7.5l2.5-0.836h5.83l2.5-0.832h5l2.5-0.832h5.84l2.5-0.836h7.5l3.33-0.832h5l2.5-0.832h8.33l2.5-0.836h5l2.5-0.832h8.34l2.5-0.832h7.5l3.33-0.836h7.5l2.5-0.832h8.33l2.5-0.832h5"/><path d="m992.5 390 2.5-0.832 3.332-0.836 2.498-0.832 2.5-0.832 2.5-0.836 5-1.664 3.34-0.836h2.5l5-1.664 2.5-0.836 3.33-0.832 2.5-0.832 2.5-0.836h2.5l5-1.664 3.33-0.836 2.5-0.832h2.5l2.5-0.832 2.5-0.836 2.5-0.832 3.34-0.832h2.5l2.5-0.836 5-1.664h2.5l3.33-0.836 5-1.664h2.5l2.5-0.836 2.5-0.832h3.33l2.5-0.832 2.5-0.836 2.5-0.832h2.5l3.34-0.832 2.5-0.836h2.5l5-1.664h2.5l3.33-0.836 2.5-0.832h2.5l2.5-0.832 2.5-0.836h2.5l3.33-0.832h2.5l2.5-0.832 2.5-0.836h2.5l2.5-0.832 3.34-0.832h2.5l2.5-0.836h2.5l5-1.664h3.33l2.5-0.836h2.5l2.5-0.832h2.5l2.5-0.832 3.33-0.836h2.5l2.5-0.832h2.5l2.5-0.832h3.34l2.5-0.836h2.5l5-1.664h2.5l3.33-0.836h2.5l2.5-0.832h2.5l2.5-0.832h2.5l3.33-0.836h2.5l2.5-0.832h2.5l2.5-0.832h2.5l3.34-0.836h5l2.5-0.832h2.5"/><path d="m730.83 491.67 2.5-1.668 3.336-0.832 2.5-1.668 2.5-0.832 5-3.336 2.5-0.832 3.332-1.668 2.5-0.832 2.5-1.668 2.5-0.832 2.5-1.668 2.5-0.832 3.332-1.668 2.5-0.832 2.5-1.668 2.5-0.832 2.5-1.668 3.336-0.832 2.5-1.668 5-1.664 2.5-1.668 2.5-0.832 3.332-1.668 2.5-0.832 2.5-0.836 2.5-1.664 2.5-0.836 2.5-0.832 3.332-1.668 5-1.664 2.5-1.668 2.5-0.832 2.5-0.836 3.336-1.664 2.5-0.836 5-1.664 2.5-1.668 2.5-0.832 3.332-0.836 2.5-0.832 2.5-1.668 5-1.664 3.332-0.836 2.5-1.664 2.5-0.836 5-1.664 2.5-0.836 3.336-1.664 2.5-0.836 5-1.664 2.5-0.836 2.5-0.832 3.332-1.668 5-1.664 2.5-0.836 5-1.664 3.332-0.836 2.5-0.832 2.5-1.668 5-1.664 2.5-0.836 3.336-0.832 2.5-0.832 2.5-0.836 5-1.664 2.5-0.836 3.332-0.832 2.5-1.668 5-1.664 2.5-0.836 3.332-0.832 2.5-0.832 2.5-0.836 5-1.664 2.5-0.836 3.336-0.832 2.5-0.832 2.5-0.836 5-1.664 2.5-0.836 3.332-0.832 2.5-0.832h2.5l2.5-0.836 2.5-0.832"/><path d="m469.17 1114.2 2.5-22.5 3.332-20.84 2.5-20.83 2.5-20 2.5-19.17 2.5-18.33 2.5-17.5 3.332-17.5 2.5-16.668 2.5-15 2.5-15.832 2.5-15 2.5-14.168 3.336-13.332 2.5-13.332 5-25 5-23.336 3.332-10.832 2.5-10 2.5-10.832 2.5-9.168 2.5-10 3.332-9.168 5-16.664 2.5-8.336 2.5-8.332 2.5-7.5 3.336-6.668 2.5-7.5 2.5-6.664 5-13.336 2.5-5.832 3.332-5.832 2.5-5.836 2.5-5 2.5-5.832 5-10 3.332-5 2.5-4.168 2.5-4.164 2.5-5 5-8.336 3.336-3.332 2.5-4.168 2.5-3.332 2.5-4.168 2.5-3.332 3.332-3.332 2.5-3.336 2.5-3.332 2.5-2.5 2.5-3.332 2.5-2.5 3.332-3.336 5-5 2.5-3.332 2.5-1.668 2.5-3.332 3.336-1.668 7.5-7.5 2.5-1.664 2.5-2.5 3.332-2.5 2.5-1.668 2.5-2.5 2.5-1.668 2.5-1.664 2.5-2.5 3.332-1.668 2.5-1.668 2.5-1.664 5-3.336 2.5-2.5 3.336-1.664 5-3.336 2.5-1.664 2.5-0.836 3.332-1.664 5-3.336 2.5-1.664 2.5-1.668 2.5-0.832 3.332-1.668 2.5-1.668 2.5-0.832 2.5-1.668 2.5-1.664"/><path d="m443.33 1402.5 2.5-56.67 2.5-14.16 2.5-40 2.5-24.17 2.5-30 3.336-25 2.5-26.67 2.5-24.16 2.5-25 2.5-22.5"/></g><g stroke="#f00"><path d="m2824.2 270.83h26.66l2.5-0.832h103.34l2.5-0.832h127.5"/><path d="m2562.5 272.5h82.5l2.5-0.832h108.33l2.5-0.836h65.84"/><path d="m2300.8 276.67h21.67l2.5-0.836h47.5l2.5-0.832h53.33l2.5-0.832h58.34l2.5-0.836h65.83l2.5-0.832h2.5"/><path d="m2039.2 282.5h8.33l2.5-0.832h29.17l2.5-0.836h31.66l2.5-0.832h31.67l3.33-0.832h36.67l2.5-0.836h37.5l2.5-0.832h42.5l2.5-0.832h25.83"/><path d="m1777.5 292.5h8.33l2.5-0.832h15.84l2.5-0.836h13.33l2.5-0.832h15.83l2.5-0.832h19.17l2.5-0.836h15.83l2.5-0.832h18.34l2.5-0.832h19.16l2.5-0.836h18.34l2.5-0.832h21.66l2.5-0.832h23.34l2.5-0.836h24.16l2.5-0.832h18.34"/><path d="m1515.8 310 3.34-0.832h7.5l2.5-0.836h8.33l2.5-0.832h5l2.5-0.832h10.83l2.5-0.836h8.34l2.5-0.832h7.5l3.33-0.832h7.5l2.5-0.836h10.83l2.5-0.832h8.34l2.5-0.832h10.83l2.5-0.836h10l3.33-0.832h7.5l2.5-0.832h10.84l2.5-0.836h10.83l2.5-0.832h13.33l2.5-0.832h10.84l2.5-0.836h13.33l2.5-0.832h10.83l2.5-0.832h13.34l2.5-0.836h15.83l2.5-0.832h5"/><path d="m1254.2 343.33 2.5-0.832 3.33-0.832h2.5l2.5-0.836h2.5l2.5-0.832h3.33l2.5-0.832h2.5l2.5-0.836 2.5-0.832h2.5l3.34-0.832h2.5l2.5-0.836h2.5l2.5-0.832h2.5l3.33-0.832h2.5l2.5-0.836h2.5l2.5-0.832h2.5l3.33-0.832h5l2.5-0.836h2.5l2.5-0.832h3.34l2.5-0.832h2.5l2.5-0.836h5l3.33-0.832h2.5l2.5-0.832h2.5l2.5-0.836h5.83l2.5-0.832h2.5l2.5-0.832h5.84l2.5-0.836h2.5l2.5-0.832h5l3.33-0.832h2.5l2.5-0.836h5l2.5-0.832h5.83l2.5-0.832h5l2.5-0.836h5.84l2.5-0.832h5l3.33-0.832h5l2.5-0.836h5l3.33-0.832h5l2.5-0.832h5l3.34-0.836h5l2.5-0.832h8.33l2.5-0.832h5l2.5-0.836h8.33l2.5-0.832h5"/><path d="m992.5 414.17 2.5-0.836 3.332-0.832 2.498-0.832 2.5-1.668 2.5-0.832 2.5-0.836 2.5-0.832 3.34-0.832 2.5-0.836 2.5-1.664 2.5-0.836 2.5-0.832 3.33-0.832 2.5-0.836 5-1.664 2.5-0.836 2.5-0.832 3.33-0.832 2.5-1.668 2.5-0.832 2.5-0.836 5-1.664 3.34-0.836 5-1.664 2.5-0.836 5-1.664 3.33-0.836 5-1.664 2.5-0.836 5-1.664h3.33l2.5-0.836 5-1.664 2.5-0.836 3.34-0.832 2.5-0.832 2.5-0.836 5-1.664h2.5l3.33-0.836 5-1.664 2.5-0.836 2.5-0.832h2.5l3.33-0.832 2.5-0.836 5-1.664 2.5-0.836h2.5l3.34-0.832 2.5-0.832 2.5-0.836h2.5l5-1.664 3.33-0.836h2.5l5-1.664 2.5-0.836h2.5l3.33-0.832 2.5-0.832 2.5-0.836h2.5l2.5-0.832 3.34-0.832h2.5l2.5-0.836 2.5-0.832h2.5l2.5-0.832 3.33-0.836h2.5l5-1.664h2.5l2.5-0.836h3.33l5-1.664h2.5l2.5-0.836 2.5-0.832h3.34l2.5-0.832h2.5l2.5-0.836h2.5"/><path d="m730.83 529.17 2.5-0.836 3.336-1.664 2.5-0.836 5-1.664 2.5-0.836 2.5-1.664 3.332-0.836 5-1.664 2.5-1.668 2.5-0.832 2.5-0.836 3.332-1.664 2.5-0.836 2.5-0.832 2.5-1.668 2.5-0.832 3.336-0.832 2.5-1.668 2.5-0.832 2.5-1.668 2.5-0.832 2.5-1.668 3.332-0.832 2.5-1.668 2.5-0.832 2.5-0.836 2.5-1.664 2.5-0.836 3.332-1.664 2.5-0.836 2.5-1.664 2.5-0.836 2.5-1.664 2.5-0.836 3.336-1.664 2.5-0.836 2.5-1.664 2.5-0.836 2.5-1.664 2.5-0.836 3.332-1.664 2.5-0.836 2.5-1.664 2.5-0.836 2.5-1.664 3.332-0.836 2.5-1.664 2.5-0.836 2.5-1.664 2.5-0.836 2.5-0.832 3.336-1.668 2.5-0.832 2.5-1.668 2.5-0.832 2.5-1.668 2.5-0.832 3.332-1.668 2.5-0.832 2.5-1.668 2.5-0.832 2.5-1.668 2.5-0.832 3.332-0.832 2.5-1.668 2.5-0.832 2.5-1.668 2.5-0.832 2.5-1.668 3.336-0.832 2.5-0.836 2.5-1.664 2.5-0.836 2.5-1.664 2.5-0.836 3.332-0.832 2.5-1.668 5-1.664 2.5-1.668 3.332-0.832 2.5-1.668 2.5-0.832 2.5-0.836 2.5-0.832 2.5-1.668 3.336-0.832 2.5-0.832 2.5-1.668 2.5-0.832 2.5-0.836 2.5-1.664 3.332-0.836 5-1.664 2.5-0.836 2.5-1.664"/><path d="m469.17 321.67 2.5 9.164 3.332 9.168 2.5 10 2.5 9.168 2.5 9.164 2.5 8.336 2.5 9.164 3.332 8.336 2.5 7.5 2.5 8.332 5 15 2.5 6.668 3.336 6.664 2.5 5.836 2.5 6.664 2.5 5 2.5 5.836 2.5 5 3.332 5 2.5 5 2.5 4.164 2.5 5 2.5 3.336 3.332 4.164 2.5 3.336 2.5 4.164 2.5 3.336 2.5 2.5 2.5 3.332 3.336 2.5 2.5 3.332 2.5 1.668 5 5 2.5 1.668 3.332 2.5 2.5 1.664 5 3.336 2.5 1.664 2.5 1.668 3.332 0.832 2.5 1.668 2.5 0.832 2.5 1.668 2.5 0.832 2.5 0.836 3.336 0.832 2.5 0.832 2.5 0.836 2.5 0.832h2.5l3.332 0.832 2.5 0.836h2.5l2.5 0.832h8.332l2.5 0.832h15.836l2.5-0.832h7.5l3.332-0.832h2.5l2.5-0.836h5l2.5-0.832 3.332-0.832h2.5l2.5-0.836 2.5-0.832h2.5l2.5-0.832 3.336-0.836h2.5l5-1.664 2.5-0.836 3.332-0.832 2.5-0.832 2.5-0.836 5-1.664 2.5-0.836 3.332-0.832 2.5-0.832 2.5-0.836 5-1.664"/><path d="m443.33 255.83 2.5 1.668 2.5 2.5 2.5 5 2.5 5.832 2.5 6.668 3.336 7.5 2.5 8.332 5 18.336 2.5 10"/></g></g><g transform="scale(10)" fill="#000000" font-family="Helvetica"><text transform="matrix(1 0 0 -1 165.33 1.5832)" font-size="10px"><tspan x="0 6.1100001 8.3299999 16.66" y="0">Time</tspan></text><text transform="matrix(0 1 1 0 16.25 73.833)" font-size="10px"><tspan x="0 2.5999999 5.1999998" y="0">||u</tspan></text><text transform="matrix(0 1 1 0 21.25 84.583)" font-size="8px"><tspan x="0" y="0">t</tspan></text><text transform="matrix(0,1,1,0,16.25,86.75)" font-size="10px"><tspan x="0 5.8400002 8.6199999 11.22" y="0">−f||</tspan></text><text transform="matrix(0,1,1,0,21.25,100.5)" font-size="8px"><tspan x="0" y="0">2</tspan><tspan x="0" y="-10">2</tspan></text></g><path d="m2402.5 1113.3h634.17v368.34h-634.17z" fill="#fff" fill-rule="evenodd"/><g fill="none" stroke-linejoin="round" stroke-miterlimit="10" stroke-width="5"><path d="m2402.5 1113.3v368.34h634.17v-368.34h-634.17" stroke="#fff"/><g stroke="#000"><path d="m2402.5 1481.7h634.17"/><path d="m2402.5 1113.3h634.17"/><path d="m3036.7 1113.3v368.34"/><path d="m2402.5 1113.3v368.34"/><path d="m2402.5 1113.3h634.17"/><path d="m2402.5 1113.3v368.34"/><path d="m2402.5 1481.7h634.17"/><path d="m2402.5 1113.3h634.17"/><path d="m3036.7 1113.3v368.34"/><path d="m2402.5 1113.3v368.34"/></g></g><g transform="scale(10)" fill="#000000" font-family="Helvetica"><text transform="matrix(1 0 0 -1 278.67 136.92)" font-size="10px"><tspan x="0" y="0">u</tspan></text><text transform="matrix(1 0 0 -1 284.17 131.92)" font-size="8px"><tspan x="0" y="0">0</tspan></text><text transform="matrix(1 0 0 -1 288.58 136.92)" font-size="10px"><tspan x="0 5.8400002" y="0">=0</tspan></text></g><g clip-path="url(#clipPath290)"><path d="m2460.8 1381.7h295" fill="none" stroke="#00f" stroke-linejoin="round" stroke-miterlimit="10" stroke-width="10"/></g><g transform="scale(10)" fill="#000000" font-family="Helvetica"><text transform="matrix(1 0 0 -1 278.67 120)" font-size="10px"><tspan x="0" y="0">u</tspan></text><text transform="matrix(1 0 0 -1 284.17 115)" font-size="8px"><tspan x="0" y="0">0</tspan></text><text transform="matrix(1 0 0 -1 288.58 120)" font-size="10px"><tspan x="0 5.8400002" y="0">=f</tspan></text></g><g clip-path="url(#clipPath314)"><path d="m2460.8 1214.2h295" fill="none" stroke="#f00" stroke-linejoin="round" stroke-miterlimit="10" stroke-width="10"/></g></g></g></svg>
