<?xml version="1.0" encoding="UTF-8"?>
<svg width="812.75" height="663.16" version="1.1" viewBox="0 0 812.75 663.16" xml:space="preserve" xmlns="http://www.w3.org/2000/svg" xmlns:cc="http://creativecommons.org/ns#" xmlns:dc="http://purl.org/dc/elements/1.1/" xmlns:rdf="http://www.w3.org/1999/02/22-rdf-syntax-ns#"><metadata><rdf:RDF><cc:Work rdf:about=""><dc:format>image/svg+xml</dc:format><dc:type rdf:resource="http://purl.org/dc/dcmitype/StillImage"/><dc:title/></cc:Work></rdf:RDF></metadata><defs><clipPath id="clipPath28"><path d="m-85.27 525.23v-576.33h756v576.33z"/></clipPath><clipPath id="clipPath34"><path d="m0 0h610v498h-610z"/></clipPath><pattern id="pattern346" width="610" height="498" patternUnits="userSpaceOnUse"><g clip-path="url(#clipPath34)"><g transform="rotate(-90,249,249)"><path d="m485.06 12.98h-469.66v585.92h469.66v-585.92" fill="none" stroke="#fff" stroke-linejoin="round" stroke-miterlimit="10" stroke-width=".5"/></g><g transform="rotate(-90,249,249)"><path d="m485.06 12.98v585.92" fill="none" stroke="#000" stroke-linejoin="round" stroke-miterlimit="10" stroke-width=".5"/></g><g transform="rotate(-90,249,249)"><path d="m15.395 12.98v585.92" fill="none" stroke="#000" stroke-linejoin="round" stroke-miterlimit="10" stroke-width=".5"/></g><g transform="rotate(-90,249,249)"><path d="m485.06 12.98h-469.66" fill="none" stroke="#000" stroke-linejoin="round" stroke-miterlimit="10" stroke-width=".5"/></g><g transform="rotate(-90,249,249)"><path d="m485.06 598.9h-469.66" fill="none" stroke="#000" stroke-linejoin="round" stroke-miterlimit="10" stroke-width=".5"/></g><g transform="rotate(-90,249,249)"><path d="m485.06 12.98v585.92" fill="none" stroke="#000" stroke-linejoin="round" stroke-miterlimit="10" stroke-width=".5"/></g><g transform="rotate(-90,249,249)"><path d="m485.06 12.98h-469.66" fill="none" stroke="#000" stroke-linejoin="round" stroke-miterlimit="10" stroke-width=".5"/></g><g transform="rotate(-90,249,249)"><path d="m485.06 12.98h-5.914" fill="none" stroke="#000" stroke-linejoin="round" stroke-miterlimit="10" stroke-width=".5"/></g><g transform="rotate(-90,249,249)"><path d="m15.395 12.98h5.832" fill="none" stroke="#000" stroke-linejoin="round" stroke-miterlimit="10" stroke-width=".5"/></g><text transform="matrix(1 0 0 -1 10.23 .85653)" fill="#000000" font-family="NimbusSansL" font-size="10" writing-mode="lr"><tspan x="0" y="0">0</tspan></text><g transform="rotate(-90,249,249)"><path d="m485.06 71.562h-5.914" fill="none" stroke="#000" stroke-linejoin="round" stroke-miterlimit="10" stroke-width=".5"/></g><g transform="rotate(-90,249,249)"><path d="m15.395 71.562h5.832" fill="none" stroke="#000" stroke-linejoin="round" stroke-miterlimit="10" stroke-width=".5"/></g><text transform="matrix(1 0 0 -1 63.23 .85653)" fill="#000000" font-family="NimbusSansL" font-size="10" writing-mode="lr"><tspan x="0 5.56 11.12" y="0">100</tspan></text><g transform="rotate(-90,249,249)"><path d="m485.06 130.15h-5.914" fill="none" stroke="#000" stroke-linejoin="round" stroke-miterlimit="10" stroke-width=".5"/></g><g transform="rotate(-90,249,249)"><path d="m15.395 130.15h5.832" fill="none" stroke="#000" stroke-linejoin="round" stroke-miterlimit="10" stroke-width=".5"/></g><text transform="matrix(1 0 0 -1 121.81 .85653)" fill="#000000" font-family="NimbusSansL" font-size="10" writing-mode="lr"><tspan x="0 5.56 11.12" y="0">200</tspan></text><g transform="rotate(-90,249,249)"><path d="m485.06 188.73h-5.914" fill="none" stroke="#000" stroke-linejoin="round" stroke-miterlimit="10" stroke-width=".5"/></g><g transform="rotate(-90,249,249)"><path d="m15.395 188.73h5.832" fill="none" stroke="#000" stroke-linejoin="round" stroke-miterlimit="10" stroke-width=".5"/></g><text transform="matrix(1 0 0 -1 180.4 .85653)" fill="#000000" font-family="NimbusSansL" font-size="10" writing-mode="lr"><tspan x="0 5.56 11.12" y="0">300</tspan></text><g transform="rotate(-90,249,249)"><path d="m485.06 247.31h-5.914" fill="none" stroke="#000" stroke-linejoin="round" stroke-miterlimit="10" stroke-width=".5"/></g><g transform="rotate(-90,249,249)"><path d="m15.395 247.31h5.832" fill="none" stroke="#000" stroke-linejoin="round" stroke-miterlimit="10" stroke-width=".5"/></g><text transform="matrix(1 0 0 -1 238.98 .85653)" fill="#000000" font-family="NimbusSansL" font-size="10" writing-mode="lr"><tspan x="0 5.56 11.12" y="0">400</tspan></text><g transform="rotate(-90,249,249)"><path d="m485.06 305.9h-5.914" fill="none" stroke="#000" stroke-linejoin="round" stroke-miterlimit="10" stroke-width=".5"/></g><g transform="rotate(-90,249,249)"><path d="m15.395 305.9h5.832" fill="none" stroke="#000" stroke-linejoin="round" stroke-miterlimit="10" stroke-width=".5"/></g><text transform="matrix(1 0 0 -1 297.56 .85653)" fill="#000000" font-family="NimbusSansL" font-size="10" writing-mode="lr"><tspan x="0 5.56 11.12" y="0">500</tspan></text><g transform="rotate(-90,249,249)"><path d="m485.06 364.48h-5.914" fill="none" stroke="#000" stroke-linejoin="round" stroke-miterlimit="10" stroke-width=".5"/></g><g transform="rotate(-90,249,249)"><path d="m15.395 364.48h5.832" fill="none" stroke="#000" stroke-linejoin="round" stroke-miterlimit="10" stroke-width=".5"/></g><text transform="matrix(1 0 0 -1 356.15 .85653)" fill="#000000" font-family="NimbusSansL" font-size="10" writing-mode="lr"><tspan x="0 5.56 11.12" y="0">600</tspan></text><g transform="rotate(-90,249,249)"><path d="m485.06 423.06h-5.914" fill="none" stroke="#000" stroke-linejoin="round" stroke-miterlimit="10" stroke-width=".5"/></g><g transform="rotate(-90,249,249)"><path d="m15.395 423.06h5.832" fill="none" stroke="#000" stroke-linejoin="round" stroke-miterlimit="10" stroke-width=".5"/></g><text transform="matrix(1 0 0 -1 414.73 .85653)" fill="#000000" font-family="NimbusSansL" font-size="10" writing-mode="lr"><tspan x="0 5.56 11.12" y="0">700</tspan></text><g transform="rotate(-90,249,249)"><path d="m485.06 481.65h-5.914" fill="none" stroke="#000" stroke-linejoin="round" stroke-miterlimit="10" stroke-width=".5"/></g><g transform="rotate(-90,249,249)"><path d="m15.395 481.65h5.832" fill="none" stroke="#000" stroke-linejoin="round" stroke-miterlimit="10" stroke-width=".5"/></g><text transform="matrix(1 0 0 -1 473.31 .85653)" fill="#000000" font-family="NimbusSansL" font-size="10" writing-mode="lr"><tspan x="0 5.56 11.12" y="0">800</tspan></text><g transform="rotate(-90,249,249)"><path d="m485.06 540.23h-5.914" fill="none" stroke="#000" stroke-linejoin="round" stroke-miterlimit="10" stroke-width=".5"/></g><g transform="rotate(-90,249,249)"><path d="m15.395 540.23h5.832" fill="none" stroke="#000" stroke-linejoin="round" stroke-miterlimit="10" stroke-width=".5"/></g><text transform="matrix(1 0 0 -1 531.9 .85653)" fill="#000000" font-family="NimbusSansL" font-size="10" writing-mode="lr"><tspan x="0 5.56 11.12" y="0">900</tspan></text><g transform="rotate(-90,249,249)"><path d="m485.06 598.9h-5.914" fill="none" stroke="#000" stroke-linejoin="round" stroke-miterlimit="10" stroke-width=".5"/></g><g transform="rotate(-90,249,249)"><path d="m15.395 598.9h5.832" fill="none" stroke="#000" stroke-linejoin="round" stroke-miterlimit="10" stroke-width=".5"/></g><text transform="matrix(1 0 0 -1 587.81 .85653)" fill="#000000" font-family="NimbusSansL" font-size="10" writing-mode="lr"><tspan x="0 5.56 11.12 16.68" y="0">1000</tspan></text><g transform="rotate(-90,249,249)"><path d="m485.06 12.98v5.832" fill="none" stroke="#000" stroke-linejoin="round" stroke-miterlimit="10" stroke-width=".5"/></g><g transform="rotate(-90,249,249)"><path d="m485.06 598.9v-5.918" fill="none" stroke="#000" stroke-linejoin="round" stroke-miterlimit="10" stroke-width=".5"/></g><text transform="matrix(1 0 0 -1 4.563 9.2735)" fill="#000000" font-family="NimbusSansL" font-size="10" writing-mode="lr"><tspan x="0" y="0">0</tspan></text><g transform="rotate(-90,249,249)"><path d="m432.81 12.98v5.832" fill="none" stroke="#000" stroke-linejoin="round" stroke-miterlimit="10" stroke-width=".5"/></g><g transform="rotate(-90,249,249)"><path d="m432.81 598.9v-5.918" fill="none" stroke="#000" stroke-linejoin="round" stroke-miterlimit="10" stroke-width=".5"/></g><text transform="matrix(1 0 0 -1 4.563 61.524)" fill="#000000" font-family="NimbusSansL" font-size="10" writing-mode="lr"><tspan x="0" y="0">2</tspan></text><g transform="rotate(-90,249,249)"><path d="m380.64 12.98v5.832" fill="none" stroke="#000" stroke-linejoin="round" stroke-miterlimit="10" stroke-width=".5"/></g><g transform="rotate(-90,249,249)"><path d="m380.64 598.9v-5.918" fill="none" stroke="#000" stroke-linejoin="round" stroke-miterlimit="10" stroke-width=".5"/></g><text transform="matrix(1 0 0 -1 4.563 113.69)" fill="#000000" font-family="NimbusSansL" font-size="10" writing-mode="lr"><tspan x="0" y="0">4</tspan></text><g transform="rotate(-90,249,249)"><path d="m328.48 12.98v5.832" fill="none" stroke="#000" stroke-linejoin="round" stroke-miterlimit="10" stroke-width=".5"/></g><g transform="rotate(-90,249,249)"><path d="m328.48 598.9v-5.918" fill="none" stroke="#000" stroke-linejoin="round" stroke-miterlimit="10" stroke-width=".5"/></g><text transform="matrix(1 0 0 -1 4.563 165.86)" fill="#000000" font-family="NimbusSansL" font-size="10" writing-mode="lr"><tspan x="0" y="0">6</tspan></text><g transform="rotate(-90,249,249)"><path d="m276.31 12.98v5.832" fill="none" stroke="#000" stroke-linejoin="round" stroke-miterlimit="10" stroke-width=".5"/></g><g transform="rotate(-90,249,249)"><path d="m276.31 598.9v-5.918" fill="none" stroke="#000" stroke-linejoin="round" stroke-miterlimit="10" stroke-width=".5"/></g><text transform="matrix(1 0 0 -1 4.563 218.02)" fill="#000000" font-family="NimbusSansL" font-size="10" writing-mode="lr"><tspan x="0" y="0">8</tspan></text><g transform="rotate(-90,249,249)"><path d="m224.06 12.98v5.832" fill="none" stroke="#000" stroke-linejoin="round" stroke-miterlimit="10" stroke-width=".5"/></g><g transform="rotate(-90,249,249)"><path d="m224.06 598.9v-5.918" fill="none" stroke="#000" stroke-linejoin="round" stroke-miterlimit="10" stroke-width=".5"/></g><text transform="matrix(1 0 0 -1 -1.02 270.27)" fill="#000000" font-family="NimbusSansL" font-size="10" writing-mode="lr"><tspan x="0 5.56" y="0">10</tspan></text><g transform="rotate(-90,249,249)"><path d="m171.9 12.98v5.832" fill="none" stroke="#000" stroke-linejoin="round" stroke-miterlimit="10" stroke-width=".5"/></g><g transform="rotate(-90,249,249)"><path d="m171.9 598.9v-5.918" fill="none" stroke="#000" stroke-linejoin="round" stroke-miterlimit="10" stroke-width=".5"/></g><text transform="matrix(1 0 0 -1 -1.02 322.44)" fill="#000000" font-family="NimbusSansL" font-size="10" writing-mode="lr"><tspan x="0 5.56" y="0">12</tspan></text><g transform="rotate(-90,249,249)"><path d="m119.73 12.98v5.832" fill="none" stroke="#000" stroke-linejoin="round" stroke-miterlimit="10" stroke-width=".5"/></g><g transform="rotate(-90,249,249)"><path d="m119.73 598.9v-5.918" fill="none" stroke="#000" stroke-linejoin="round" stroke-miterlimit="10" stroke-width=".5"/></g><text transform="matrix(1 0 0 -1 -1.02 374.61)" fill="#000000" font-family="NimbusSansL" font-size="10" writing-mode="lr"><tspan x="0 5.56" y="0">14</tspan></text><g transform="rotate(-90,249,249)"><path d="m67.559 12.98v5.832" fill="none" stroke="#000" stroke-linejoin="round" stroke-miterlimit="10" stroke-width=".5"/></g><g transform="rotate(-90,249,249)"><path d="m67.559 598.9v-5.918" fill="none" stroke="#000" stroke-linejoin="round" stroke-miterlimit="10" stroke-width=".5"/></g><text transform="matrix(1 0 0 -1 -1.02 426.77)" fill="#000000" font-family="NimbusSansL" font-size="10" writing-mode="lr"><tspan x="0 5.56" y="0">16</tspan></text><g transform="rotate(-90,249,249)"><path d="m15.395 12.98v5.832" fill="none" stroke="#000" stroke-linejoin="round" stroke-miterlimit="10" stroke-width=".5"/></g><g transform="rotate(-90,249,249)"><path d="m15.395 598.9v-5.918" fill="none" stroke="#000" stroke-linejoin="round" stroke-miterlimit="10" stroke-width=".5"/></g><text transform="matrix(1 0 0 -1 -1.02 478.94)" fill="#000000" font-family="NimbusSansL" font-size="10" writing-mode="lr"><tspan x="0 5.56" y="0">18</tspan><tspan x="14 19 21.78 27.34" y="-8.1668">x 10</tspan></text><text transform="matrix(1 0 0 -1 31.813 493.27)" fill="#000000" font-family="NimbusSansL" font-size="6.6667" writing-mode="lr"><tspan x="0" y="0">8</tspan></text><g transform="rotate(-90,249,249)"><path d="m485.06 12.98v585.92" fill="none" stroke="#000" stroke-linejoin="round" stroke-miterlimit="10" stroke-width=".5"/></g><g transform="rotate(-90,249,249)"><path d="m15.395 12.98v585.92" fill="none" stroke="#000" stroke-linejoin="round" stroke-miterlimit="10" stroke-width=".5"/></g><g transform="rotate(-90,249,249)"><path d="m485.06 12.98h-469.66" fill="none" stroke="#000" stroke-linejoin="round" stroke-miterlimit="10" stroke-width=".5"/></g><g transform="rotate(-90,249,249)"><path d="m485.06 598.9h-469.66" fill="none" stroke="#000" stroke-linejoin="round" stroke-miterlimit="10" stroke-width=".5"/></g></g></pattern><clipPath id="clipPath356"><path d="m12.98 481.98v-469.75h586v469.75z"/></clipPath><clipPath id="clipPath362"><path d="m0 0h610v498h-610z"/></clipPath><pattern id="pattern416" width="610" height="498" patternUnits="userSpaceOnUse"><g clip-path="url(#clipPath362)"><g transform="rotate(-90,249,249)"><path d="m478.23 540.81 0.082 0.586v0.582l0.086 0.668v0.582l0.082 0.582v0.586l0.082 0.582v1.168l0.086 0.582v0.582l0.082 0.586v0.582l0.082 0.582v1.168l0.086 0.582v0.586l0.082 0.582v0.582l0.082 0.586v1.164l0.086 0.586v0.582l0.082 0.582v1.168l0.082 0.582v1.168l0.086 0.582v0.586l0.082 0.582v1.25l0.082 0.582v1.168l0.086 0.582v0.586l0.082 0.582v1.168l0.082 0.582v1.168l0.086 0.582v1.168l0.082 0.582v1.168l0.082 0.582v1.168l0.086 0.582v1.168l0.082 0.582v1.168l0.082 0.582v1.168l0.086 0.582v1.25l0.082 0.582v1.75l0.082 0.586v1.164l0.086 0.586v1.164l0.082 0.586v1.75l0.082 0.582v1.168l0.086 0.582v1.75l0.082 0.582v1.168l0.082 0.582v1.75l0.086 0.586v1.25" fill="none" stroke="#00f" stroke-linejoin="round" stroke-miterlimit="10" stroke-width=".5"/></g><g transform="rotate(-90,249,249)"><path d="m473.23 482.81 0.082 0.586v0.582l0.086 0.582 0.082 0.586 0.082 0.664 0.086 0.586v0.582l0.082 0.582 0.082 0.586 0.086 0.582v0.582l0.082 0.586 0.082 0.582 0.086 0.582v0.586l0.164 1.164 0.086 0.586v0.582l0.082 0.582 0.082 0.586v0.582l0.086 0.582 0.082 0.586 0.082 0.582v0.582l0.086 0.586 0.082 0.582v0.582l0.082 0.586 0.086 0.582v0.582l0.082 0.586 0.082 0.582v0.582l0.086 0.586 0.082 0.664v0.586l0.082 0.582v0.582l0.086 0.586 0.082 0.582v0.582l0.082 0.586 0.086 0.582v0.582l0.082 0.586v0.582l0.082 0.582 0.086 0.586v0.582l0.082 0.582v0.586l0.082 0.582 0.086 0.582v0.586l0.082 0.582v0.582l0.082 0.586 0.086 0.582v0.582l0.082 0.586v0.582l0.082 0.582v0.586l0.086 0.582v0.582l0.082 0.586 0.082 0.664v0.586l0.086 0.582v0.582l0.082 0.586v0.582l0.082 0.582v0.586l0.086 0.582v0.582l0.082 0.586v0.582l0.082 0.582v0.586l0.086 0.582v0.582l0.082 0.586v0.582l0.082 0.582v0.586l0.086 0.582v0.582l0.082 0.586v0.582l0.082 0.582v0.586l0.086 0.582v0.582l0.082 0.586v1.164" fill="none" stroke="#00f" stroke-linejoin="round" stroke-miterlimit="10" stroke-width=".5"/></g><g transform="rotate(-90,249,249)"><path d="m464.4 424.81 0.082 0.586 0.168 0.582 0.082 0.582 0.168 0.586 0.164 1.164 0.168 0.668 0.082 0.582 0.086 0.586 0.164 0.582 0.086 0.582 0.082 0.586 0.168 0.582 0.082 0.582 0.082 0.586 0.086 0.582 0.164 0.582 0.086 0.586 0.164 1.164 0.168 0.586 0.082 0.582 0.086 0.582 0.082 0.586 0.168 0.582 0.082 0.582 0.082 0.586 0.086 0.582 0.082 0.582 0.168 0.586 0.164 1.164 0.086 0.586 0.164 1.164 0.168 0.586 0.082 0.582 0.086 0.582 0.082 0.668 0.082 0.582 0.086 0.586 0.164 1.164 0.086 0.586 0.164 0.582 0.086 0.582 0.082 0.586 0.082 0.582 0.086 0.582 0.082 0.586 0.082 0.582 0.086 0.582 0.082 0.586 0.082 0.582 0.086 0.582 0.082 0.586 0.082 0.582 0.086 0.582 0.082 0.586 0.082 0.582 0.086 0.582 0.082 0.586 0.082 0.582 0.086 0.582 0.082 0.586 0.082 0.582 0.086 0.582 0.082 0.586 0.082 0.582 0.086 0.582 0.082 0.586 0.082 0.664 0.086 0.586v0.582l0.082 0.582 0.082 0.586 0.086 0.582 0.082 0.582 0.082 0.586 0.086 0.582 0.082 0.582 0.082 0.586 0.086 0.582v0.582l0.082 0.586 0.082 0.582 0.086 0.582 0.082 0.586 0.082 0.582 0.086 0.582v0.586l0.164 1.164 0.086 0.586 0.082 0.582v0.582l0.082 0.586 0.086 0.582 0.082 0.582" fill="none" stroke="#00f" stroke-linejoin="round" stroke-miterlimit="10" stroke-width=".5"/></g><g transform="rotate(-90,249,249)"><path d="m448.98 366.81 0.168 0.586 0.25 0.582 0.164 0.582 0.25 0.586 0.336 1.164 0.25 0.586 0.164 0.582 0.168 0.668 0.25 0.582 0.168 0.582 0.164 0.586 0.25 0.582 0.168 0.582 0.168 0.586 0.164 0.582 0.25 0.582 0.168 0.586 0.168 0.582 0.164 0.582 0.168 0.586 0.25 0.582 0.168 0.582 0.164 0.586 0.336 1.164 0.164 0.586 0.336 1.164 0.164 0.586 0.336 1.164 0.164 0.586 0.25 0.582 0.168 0.582 0.168 0.586 0.164 0.582 0.086 0.582 0.164 0.586 0.336 1.164 0.164 0.668 0.168 0.582 0.168 0.586 0.164 0.582 0.168 0.582 0.168 0.586 0.164 0.582 0.086 0.582 0.164 0.586 0.336 1.164 0.164 0.586 0.168 0.582 0.082 0.582 0.168 0.586 0.168 0.582 0.164 0.582 0.086 0.586 0.164 0.582 0.168 0.582 0.168 0.586 0.082 0.582 0.168 0.582 0.164 0.586 0.086 0.582 0.164 0.582 0.168 0.586 0.082 0.582 0.168 0.582 0.168 0.586 0.082 0.582 0.168 0.582 0.164 0.668 0.086 0.582 0.164 0.586 0.086 0.582 0.164 0.582 0.168 0.586 0.082 0.582 0.168 0.582 0.082 0.586 0.168 0.582 0.082 0.582 0.168 0.586 0.082 0.582 0.168 0.582 0.082 0.586 0.168 0.582 0.082 0.582 0.168 0.586 0.082 0.582 0.168 0.582 0.082 0.586 0.086 0.582 0.164 0.582 0.086 0.586 0.164 0.582 0.086 0.582" fill="none" stroke="#00f" stroke-linejoin="round" stroke-miterlimit="10" stroke-width=".5"/></g><g transform="rotate(-90,249,249)"><path d="m422.06 308.81 0.336 0.586 0.664 1.164 0.418 0.586 0.332 0.582 0.336 0.582 0.332 0.586 0.332 0.582 0.336 0.582 0.332 0.586 0.332 0.582 0.336 0.668 0.664 1.164 0.336 0.586 0.664 1.164 0.336 0.586 0.332 0.582 0.25 0.582 0.332 0.586 0.336 0.582 0.332 0.582 0.25 0.586 0.332 0.582 0.336 0.582 0.25 0.586 0.664 1.164 0.25 0.586 0.336 0.582 0.332 0.582 0.25 0.586 0.332 0.582 0.25 0.582 0.336 0.586 0.25 0.582 0.332 0.582 0.25 0.586 0.25 0.582 0.332 0.582 0.25 0.586 0.25 0.582 0.336 0.668 0.5 1.164 0.332 0.586 0.5 1.164 0.25 0.586 0.332 0.582 0.25 0.582 0.25 0.586 0.5 1.164 0.25 0.586 0.25 0.582 0.336 0.582 0.25 0.586 0.5 1.164 0.25 0.586 0.5 1.164 0.25 0.586 0.5 1.164 0.164 0.586 0.5 1.164 0.25 0.586 0.5 1.164 0.25 0.586 0.168 0.582 0.25 0.668 0.5 1.164 0.168 0.586 0.5 1.164 0.25 0.586 0.164 0.582 0.25 0.582 0.25 0.586 0.168 0.582 0.25 0.582 0.168 0.586 0.5 1.164 0.164 0.586 0.25 0.582 0.168 0.582 0.25 0.586 0.168 0.582 0.25 0.582 0.164 0.586 0.25 0.582 0.168 0.582" fill="none" stroke="#00f" stroke-linejoin="round" stroke-miterlimit="10" stroke-width=".5"/></g><g transform="rotate(-90,249,249)"><path d="m374.98 250.81 0.668 0.586 1.164 1.164 0.668 0.586 0.582 0.582 0.586 0.582 0.582 0.586 0.582 0.582 0.586 0.582 0.582 0.586 0.582 0.582 0.586 0.582 0.582 0.586 0.582 0.664 1.75 1.75 0.5 0.586 0.586 0.582 0.582 0.582 0.5 0.586 0.582 0.582 0.586 0.582 0.5 0.586 0.582 0.582 0.5 0.582 0.5 0.586 0.582 0.582 0.5 0.582 0.5 0.586 0.586 0.582 0.5 0.582 0.5 0.586 1 1.164 0.5 0.586 0.582 0.582 0.5 0.582 0.5 0.586 0.5 0.582 0.418 0.582 0.5 0.586 1 1.164 0.5 0.586 0.5 0.664 0.414 0.586 1 1.164 0.418 0.586 0.5 0.582 0.418 0.582 0.5 0.586 0.414 0.582 0.5 0.582 0.418 0.586 0.5 0.582 0.418 0.582 0.5 0.586 0.414 0.582 0.418 0.582 0.418 0.586 0.5 0.582 0.414 0.582 0.418 0.586 0.418 0.582 0.414 0.582 0.418 0.586 0.418 0.582 0.414 0.582 0.418 0.586 0.418 0.582 0.414 0.582 0.418 0.586 0.418 0.582 0.414 0.582 0.418 0.586 0.418 0.664 0.414 0.586 0.336 0.582 0.414 0.582 0.418 0.586 0.332 0.582 0.418 0.582 0.418 0.586 0.332 0.582 0.418 0.582 0.332 0.586 0.418 0.582 0.332 0.582 0.418 0.586 0.332 0.582 0.418 0.582 0.332 0.586 0.332 0.582 0.418 0.582 0.332 0.586 0.336 0.582 0.414 0.582" fill="none" stroke="#00f" stroke-linejoin="round" stroke-miterlimit="10" stroke-width=".5"/></g><g transform="rotate(-90,249,249)"><path d="m293.48 192.81 1.082 0.586 1.086 0.582 1 0.582 1.082 0.586 1 0.582 1.082 0.582 1 0.586 2 1.164 1 0.586 2 1.164 1 0.586 2 1.164 1 0.668 1 0.582 0.918 0.586 1 0.582 0.918 0.582 1 0.586 0.914 0.582 0.918 0.582 1 0.586 0.918 0.582 0.914 0.582 0.918 0.586 0.918 0.582 0.914 0.582 0.918 0.586 0.918 0.582 0.832 0.582 0.918 0.586 0.914 0.582 0.836 0.582 0.914 0.586 0.918 0.582 0.832 0.582 0.836 0.586 0.914 0.582 0.836 0.582 0.832 0.586 0.832 0.582 0.836 0.582 0.832 0.586 0.832 0.582 0.836 0.582 0.832 0.668 0.832 0.582 0.836 0.586 0.832 0.582 0.75 0.582 0.832 0.586 0.75 0.582 0.836 0.582 0.75 0.586 0.832 0.582 0.75 0.582 0.75 0.586 0.832 0.582 0.75 0.582 0.75 0.586 1.5 1.164 0.75 0.586 1.5 1.164 0.75 0.586 0.75 0.582 0.668 0.582 0.75 0.586 0.75 0.582 0.668 0.582 0.75 0.586 0.664 0.582 0.75 0.582 0.668 0.586 0.75 0.582 0.668 0.582 0.664 0.586 0.75 0.664 0.668 0.586 0.668 0.582 0.664 0.582 0.668 0.586 0.668 0.582 0.664 0.582 0.668 0.586 0.668 0.582 0.664 0.582 0.586 0.586 0.664 0.582 0.668 0.582 0.668 0.586 0.582 0.582 0.668 0.582 0.582 0.586 0.668 0.582 0.582 0.582" fill="none" stroke="#00f" stroke-linejoin="round" stroke-miterlimit="10" stroke-width=".5"/></g><g transform="rotate(-90,249,249)"><path d="m159.9 134.81 1.582 0.586 1.582 0.582 1.668 0.582 1.582 0.586 1.586 0.582 1.582 0.582 1.582 0.586 1.586 0.582 1.582 0.582 1.582 0.586 1.586 0.582 1.582 0.582 1.582 0.586 1.5 0.582 1.586 0.582 1.5 0.586 1.582 0.582 1.5 0.668 1.582 0.582 1.5 0.582 1.5 0.586 1.586 0.582 1.5 0.582 1.5 0.586 3 1.164 1.414 0.586 3 1.164 1.5 0.586 1.418 0.582 1.5 0.582 1.418 0.586 1.5 0.582 1.414 0.582 1.418 0.586 1.418 0.582 1.414 0.582 1.418 0.586 1.418 0.582 1.414 0.582 1.418 0.586 1.418 0.582 1.414 0.582 1.336 0.586 1.414 0.582 1.336 0.582 1.414 0.586 1.336 0.582 1.332 0.582 1.332 0.668 1.336 0.582 1.332 0.586 1.332 0.582 1.336 0.582 1.332 0.586 1.332 0.582 1.25 0.582 1.336 0.586 1.332 0.582 1.25 0.582 1.25 0.586 1.332 0.582 1.25 0.582 1.25 0.586 2.5 1.164 1.25 0.586 2.5 1.164 1.25 0.586 1.168 0.582 1.25 0.582 1.168 0.586 1.25 0.582 1.164 0.582 1.168 0.586 1.25 0.582 1.168 0.582 1.164 0.586 2.336 1.164 1.164 0.668 1.086 0.582 1.164 0.586 1.168 0.582 1.082 0.582 1.168 0.586 1.082 0.582 1.168 0.582 1.082 0.586 1.086 0.582 1.164 0.582 1.086 0.586 2.164 1.164 1.086 0.586 1 0.582 1.082 0.582" fill="none" stroke="#00f" stroke-linejoin="round" stroke-miterlimit="10" stroke-width=".5"/></g><g transform="rotate(-90,249,249)"><path d="m27.395 76.812 0.25 0.586 0.25 0.582 0.332 0.582 0.332 0.586 0.836 1.164 0.5 0.586 1.75 1.75 0.664 0.582 0.75 0.582 0.75 0.586 0.75 0.582 0.836 0.582 0.832 0.586 0.918 0.582 0.914 0.582 1 0.586 0.918 0.582 1.082 0.668 1 0.582 1.086 0.582 1.082 0.586 1.168 0.582 1.164 0.582 1.168 0.586 1.168 0.582 1.25 0.582 1.25 0.586 2.5 1.164 1.332 0.586 1.332 0.582 1.336 0.582 1.332 0.586 1.418 0.582 1.414 0.582 1.336 0.586 1.5 0.582 1.414 0.582 1.418 0.586 3 1.164 1.5 0.586 3 1.164 1.5 0.586 1.582 0.582 1.5 0.582 1.586 0.586 1.582 0.582 1.5 0.668 1.582 0.582 1.586 0.582 1.664 0.586 1.586 0.582 1.582 0.582 1.582 0.586 1.668 0.582 1.582 0.582 1.668 0.586 1.582 0.582 1.668 0.582 1.668 0.586 1.582 0.582 1.668 0.582 1.664 0.586 3.336 1.164 1.582 0.586 1.668 0.582 1.664 0.582 1.668 0.586 1.668 0.582 1.664 0.582 1.668 0.586 1.668 0.582 1.664 0.582 1.668 0.586 1.582 0.582 1.668 0.582 1.668 0.586 1.664 0.582 1.668 0.668 1.668 0.582 1.664 0.582 1.586 0.586 1.664 0.582 1.668 0.582 1.582 0.586 3.336 1.164 1.582 0.586 1.668 0.582 1.582 0.582 1.668 0.586 1.582 0.582 1.668 0.582" fill="none" stroke="#00f" stroke-linejoin="round" stroke-miterlimit="10" stroke-width=".5"/></g><g transform="rotate(-90,249,249)"><path d="m452.4 18.812-5.918 0.586-6.168 0.582-6.5 0.582-6.75 0.586-7 0.582-7.164 0.582-7.336 0.586-7.5 0.582-7.664 0.582-7.75 0.586-7.75 0.582-7.918 0.582-7.918 0.586-16 1.164-8 0.586-8 0.582-7.914 0.582-7.918 0.586-7.918 0.582-7.832 0.582-7.832 0.586-7.668 0.664-7.668 0.586-7.582 0.582-7.418 0.582-7.414 0.586-7.25 0.582-7.168 0.582-7.082 0.586-6.918 0.582-6.832 0.582-6.668 0.586-6.582 0.582-6.5 0.582-6.336 0.586-6.164 0.582-6.086 0.582-5.914 0.586-5.836 0.582-5.664 0.582-5.5 0.586-5.418 0.582-5.25 0.582-5.168 0.586-4.914 0.582-4.918 0.582-4.668 0.586-4.664 0.582-4.418 0.582-4.332 0.586-4.168 0.582-4.082 0.582-3.918 0.586-3.832 0.664-3.668 0.586-3.582 0.582-3.418 0.582-3.332 0.586-3.168 0.582-3.082 0.582-3 0.586-2.836 0.582-2.664 0.582-2.668 0.586-2.5 0.582-2.418 0.582-2.25 0.586-2.164 0.582-2.086 0.582-2 0.586-3.664 1.164-1.668 0.586-1.582 0.582-1.5 0.582-1.418 0.586-1.332 0.582-1.25 0.582-1.168 0.586-2 1.164-0.918 0.586-0.832 0.582-0.75 0.582-0.668 0.586-0.582 0.664-0.5 0.586-0.5 0.582-0.332 0.582-0.336 0.586-0.5 1.164-0.082 0.586-0.082 0.582v1.168l0.082 0.582 0.168 0.582" fill="none" stroke="#00f" stroke-linejoin="round" stroke-miterlimit="10" stroke-width=".5"/></g><g transform="rotate(-90,249,249)"><path d="m484.64 13.562-1.25 0.586-1.836 0.582-2.582 0.582-3.168 0.586-3.75 0.582-4.25 0.582-4.75 0.586-5.164 0.582-5.5 0.582" fill="none" stroke="#00f" stroke-linejoin="round" stroke-miterlimit="10" stroke-width=".5"/></g></g></pattern><clipPath id="clipPath426"><path d="m7.48 475.32v-468.75h596.92v468.75z"/></clipPath><clipPath id="clipPath432"><path d="m0 0h610v498h-610z"/></clipPath><pattern id="pattern456" width="610" height="498" patternUnits="userSpaceOnUse"><g clip-path="url(#clipPath432)"><path d="m14.562 13.355c0-0.55-0.449-1-1-1-0.55 0-1 0.45-1 1 0 0.555 0.45 1 1 1 0.551 0 1-0.445 1-1" fill="#00f"/><path d="m31.48 194.69c0-0.554-0.449-1-1-1-0.55 0-1 0.446-1 1 0 0.551 0.45 1 1 1 0.551 0 1-0.449 1-1" fill="#00f"/><path d="m49.062 384.02c0-0.55-0.449-1-1-1-0.55 0-1 0.45-1 1 0 0.551 0.45 1 1 1 0.551 0 1-0.449 1-1" fill="#00f"/><path d="m72.562 469.86c0-0.55-0.449-1-1-1-0.55 0-1 0.45-1 1 0 0.555 0.45 1 1 1 0.551 0 1-0.445 1-1" fill="#00f"/><path d="m131.15 351.19c0-0.554-0.449-1-1-1-0.554 0-1 0.446-1 1 0 0.551 0.446 1 1 1 0.551 0 1-0.449 1-1" fill="#00f"/><path d="m306.9 77.773c0-0.55-0.449-1-1-1-0.554 0-1 0.45-1 1 0 0.551 0.446 1 1 1 0.551 0 1-0.449 1-1" fill="#00f"/><path d="m599.23 16.855c0-0.55-0.449-1-1-1-0.55 0-1 0.45-1 1 0 0.555 0.45 1 1 1 0.551 0 1-0.445 1-1" fill="#00f"/></g></pattern><clipPath id="clipPath466"><path d="m-85.27 525.23v-576.33h756v576.33z"/></clipPath><clipPath id="clipPath472"><path d="m0 0h610v498h-610z"/></clipPath><pattern id="pattern498" width="610" height="498" patternUnits="userSpaceOnUse"><g clip-path="url(#clipPath472)"><text transform="matrix(1 0 0 -1 19.397 9.8565)" fill="#000000" font-family="NimbusSansL" font-size="10" writing-mode="lr"><tspan x="0" y="0">1</tspan><tspan x="17" y="-181.33299">2</tspan><tspan x="34.5832" y="-370.66699">3</tspan><tspan x="58" y="-456.50021">4</tspan><tspan x="116.5832" y="-337.83319">5</tspan><tspan x="292.33319" y="-64.4172">6</tspan><tspan x="584.75018" y="-3.5004">7</tspan></text></g></pattern></defs><g transform="matrix(1.3333 0 0 -1.3333 0 663.16)"><g clip-path="url(#clipPath28)"><path d="m0 0h609.56v497.37h-609.56z" fill="url(#pattern346)"/></g><g clip-path="url(#clipPath356)"><path d="m0 0h609.56v497.37h-609.56z" fill="url(#pattern416)"/></g><g clip-path="url(#clipPath426)"><path d="m0 0h609.56v497.37h-609.56z" fill="url(#pattern456)"/></g><g clip-path="url(#clipPath466)"><path d="m0 0h609.56v497.37h-609.56z" fill="url(#pattern498)"/></g></g></svg>
