<?xml version="1.0" encoding="UTF-8"?>
<svg width="692.43" height="289.33" version="1.1" viewBox="0 0 692.43 289.33" xml:space="preserve" xmlns="http://www.w3.org/2000/svg" xmlns:cc="http://creativecommons.org/ns#" xmlns:dc="http://purl.org/dc/elements/1.1/" xmlns:rdf="http://www.w3.org/1999/02/22-rdf-syntax-ns#"><metadata><rdf:RDF><cc:Work rdf:about=""><dc:format>image/svg+xml</dc:format><dc:type rdf:resource="http://purl.org/dc/dcmitype/StillImage"/><dc:title/></cc:Work></rdf:RDF></metadata><defs><linearGradient id="linearGradient458" x1="153.93" x2="28.345" y1="469.69" y2="595.28" gradientUnits="userSpaceOnUse"><stop stop-color="#fff" offset="0"/><stop offset=".2009"/><stop offset="1"/></linearGradient><linearGradient id="linearGradient614" x1="465.74" x2="340.16" y1="469.69" y2="595.28" gradientUnits="userSpaceOnUse"><stop stop-color="#fff" offset="0"/><stop offset=".2009"/><stop offset="1"/></linearGradient><clipPath id="clipPath712"><path d="m146.29 404.25h5.0449v8.4688h-5.0449z"/></clipPath><clipPath id="clipPath716"><path d="m146.29 404.25h5.0449v8.4688h-5.0449z"/></clipPath><clipPath id="clipPath738"><path d="m105.8 404.25h45.535v113.12h-45.535z"/></clipPath><clipPath id="clipPath742"><path d="m105.8 410.91h43.505v106.46h-43.505z"/></clipPath><clipPath id="clipPath746"><path d="m146.29 404.25h5.0449v8.4688h-5.0449z"/></clipPath><clipPath id="clipPath782"><path d="m189.65 390.78h8.4692v5.0449h-8.4692z"/></clipPath><clipPath id="clipPath786"><path d="m189.65 390.78h8.4692v5.0449h-8.4692z"/></clipPath><clipPath id="clipPath808"><path d="m184.25 390.78h13.863v5.0449h-13.863z"/></clipPath><clipPath id="clipPath812"><path d="m184.25 392.81h7.0869v1.001h-7.0869z"/></clipPath><clipPath id="clipPath816"><path d="m189.65 390.78h8.4692v5.0449h-8.4692z"/></clipPath><clipPath id="clipPath848"><path d="m411.77 515.17h4.9473v8.7988h-4.9473z"/></clipPath><clipPath id="clipPath852"><path d="m411.77 515.17h4.9473v8.7988h-4.9473z"/></clipPath><clipPath id="clipPath874"><path d="m258.16 403.93h158.55v120.04h-158.55z"/></clipPath><clipPath id="clipPath878"><path d="m258.16 403.93h156.89v113.53h-156.89z"/></clipPath><clipPath id="clipPath882"><path d="m411.77 515.17h4.9473v8.7988h-4.9473z"/></clipPath></defs><g transform="matrix(1.3333 0 0 -1.3333 -35.128 798.67)"><path d="m28.346 595.28v-205.51h12.351c0.14306 7.6289 6.6812 12.57 11.03 16.051 8.2856 6.2129 20.714 9.3203 23.822 21.75 1.0356 4.1426 5.1782 8.2852 8.2856 9.3213 8.2856 3.1074 18.643 1.0352 26.929 5.1787 6.2139 4.1426 7.25 13.464 13.464 16.571 17.607 7.25 33.143 16.571 46.608 27.964 4.1426 3.1069 3.1064 18.643 5.1777 25.893 8.2861 20.714 26.929 37.286 32.107 61.107 2.874 10.057 14.218 13.634 25.738 13.847v7.8301z" fill="url(#linearGradient458)" fill-opacity=".42"/><path d="m141.73 481.89h-85.039v85.04h85.039z" fill="#5ddf00"/><g fill="none" stroke="#000"><path d="m28.346 595.28v-198.42"/><path d="m56.692 595.28v-184.25"/><path d="m85.039 595.28v-155.91"/><path d="m113.39 595.28v-148.82"/><path d="m141.73 595.28v-127.56"/><path d="m170.08 595.28v-99.212"/><path d="m198.42 595.28v-35.434"/><path d="m28.346 425.2h49.607"/><path d="m120.47 453.54h-92.125"/><path d="m28.346 481.89h127.56"/><path d="m170.08 510.24h-141.73"/><path d="m28.346 538.58h155.91"/><path d="m198.42 566.93h-170.08"/><path d="m28.346 595.28h198.43"/></g><g fill="#000000" font-family="Myriad" font-size="24px"><text transform="matrix(1 0 0 -1 35.433 574.02)"><tspan x="0" y="0">2</tspan></text><text transform="matrix(1 0 0 -1 63.779 545.67)"><tspan x="0" y="0">5</tspan></text><text transform="matrix(1 0 0 -1 35.433 545.67)"><tspan x="0" y="0">2</tspan></text><text transform="matrix(1 0 0 -1 177.17 574.02)"><tspan x="0" y="0">2</tspan></text><text transform="matrix(1 0 0 -1 148.82 574.02)"><tspan x="0" y="0">3</tspan></text><text transform="matrix(1 0 0 -1 120.47 574.02)"><tspan x="0" y="0">1</tspan></text><text transform="matrix(1 0 0 -1 92.125 574.02)"><tspan x="0" y="0">6</tspan></text><text transform="matrix(1 0 0 -1 63.779 574.02)"><tspan x="0" y="0">4</tspan></text><text transform="matrix(1 0 0 -1 148.82 517.32)"><tspan x="0" y="0">5</tspan></text><text transform="matrix(1 0 0 -1 120.47 517.32)"><tspan x="0" y="0">3</tspan></text><text transform="matrix(1 0 0 -1 92.125 517.32)"><tspan x="0" y="0">3</tspan></text><text transform="matrix(1 0 0 -1 63.779 517.32)"><tspan x="0" y="0">4</tspan></text><text transform="matrix(1 0 0 -1 35.433 517.32)"><tspan x="0" y="0">3</tspan></text><text transform="matrix(1 0 0 -1 177.17 545.67)"><tspan x="0" y="0">6</tspan></text><text transform="matrix(1 0 0 -1 148.82 545.67)"><tspan x="0" y="0">3</tspan></text><text transform="matrix(1 0 0 -1 120.47 545.67)"><tspan x="0" y="0">4</tspan></text><text transform="matrix(1 0 0 -1 92.125 545.67)"><tspan x="0" y="0">3</tspan></text><text transform="matrix(1 0 0 -1 120.47 488.98)"><tspan x="0" y="0">4</tspan></text><text transform="matrix(1 0 0 -1 92.125 488.98)"><tspan x="0" y="0">3</tspan></text><text transform="matrix(1 0 0 -1 63.779 488.98)"><tspan x="0" y="0">4</tspan></text><text transform="matrix(1 0 0 -1 35.433 488.98)"><tspan x="0" y="0">2</tspan></text><text transform="matrix(1 0 0 -1 120.47 460.63)"><tspan x="0" y="0">4</tspan></text><text transform="matrix(1 0 0 -1 92.125 460.63)"><tspan x="0" y="0">4</tspan></text><text transform="matrix(1 0 0 -1 63.779 460.63)"><tspan x="0" y="0">5</tspan></text><text transform="matrix(1 0 0 -1 35.433 460.63)"><tspan x="0" y="0">3</tspan></text><text transform="matrix(1 0 0 -1 148.82 488.98)"><tspan x="0" y="0">4</tspan></text><text transform="matrix(1 0 0 -1 35.433 403.94)"><tspan x="0" y="0">5</tspan></text><text transform="matrix(1 0 0 -1 63.779 432.28)"><tspan x="0" y="0">5</tspan></text><text transform="matrix(1 0 0 -1 35.433 432.29)"><tspan x="0" y="0">5</tspan></text></g><path d="m340.16 595.28v-205.51h12.351c0.14258 7.6279 6.6816 12.57 11.031 16.05 8.2852 6.2139 20.713 9.3213 23.82 21.75 1.0371 4.1426 5.1797 8.2852 8.2871 9.3213 8.2852 3.1074 18.643 1.0352 26.928 5.1787 6.2148 4.1426 7.25 13.464 13.465 16.571 17.605 7.25 33.143 16.571 46.607 27.965 4.1426 3.1064 3.1055 18.643 5.1777 25.893 8.2852 20.714 26.928 37.285 32.107 61.107 2.873 10.057 14.217 13.633 25.738 13.846v7.8301z" fill="url(#linearGradient614)" fill-opacity=".42"/><g fill="none" stroke="#000"><path d="m340.16 595.28v-198.42"/><path d="m368.51 595.28v-184.25"/><path d="m396.85 595.28v-155.91"/><path d="m425.2 595.28v-148.82"/><path d="m453.54 595.28v-127.56"/><path d="m481.89 595.28v-99.212"/><path d="m510.24 595.28v-35.434"/><path d="m340.16 425.2h49.606"/><path d="m432.29 453.54h-92.126"/><path d="m340.16 481.89h127.56"/><path d="m481.89 510.24h-141.73"/><path d="m340.16 538.58h155.91"/><path d="m510.24 566.93h-170.08"/><path d="m340.16 595.28h198.42"/></g><g fill="#000000" font-family="Myriad" font-size="14px"><text transform="matrix(1 0 0 -1 350.79 574.02)"><tspan x="0" y="0">3</tspan></text><text transform="matrix(1 0 0 -1 379.13 545.67)"><tspan x="0" y="0">3</tspan></text><text transform="matrix(1 0 0 -1 347.25 545.67)"><tspan x="0 7.1820002 10.08" y="0">3.5</tspan></text><text transform="matrix(1 0 0 -1 488.98 574.02)"><tspan x="0 7.1820002 10.08" y="0">3.5</tspan></text><text transform="matrix(1 0 0 -1 464.17 574.02)"><tspan x="0" y="0">3</tspan></text><text transform="matrix(1 0 0 -1 435.83 574.02)"><tspan x="0" y="0">3</tspan></text><text transform="matrix(1 0 0 -1 407.48 574.02)"><tspan x="0" y="0">4</tspan></text><text transform="matrix(1 0 0 -1 375.59 574.02)"><tspan x="0 7.1820002 10.08" y="0">3.5</tspan></text><text transform="matrix(1 0 0 -1 379.13 517.32)"><tspan x="0" y="0">3</tspan></text><text transform="matrix(1 0 0 -1 347.25 517.32)"><tspan x="0 7.1820002 10.08" y="0">3.5</tspan></text><text transform="matrix(1 0 0 -1 492.52 545.67)"><tspan x="0" y="0">4</tspan></text><text transform="matrix(1 0 0 -1 464.17 545.67)"><tspan x="0" y="0">3</tspan></text><text transform="matrix(1 0 0 -1 435.83 545.67)"><tspan x="0" y="0">3</tspan></text><text transform="matrix(1 0 0 -1 407.48 545.67)"><tspan x="0" y="0">4</tspan></text><text transform="matrix(1 0 0 -1 56.693 389.76)"><tspan x="0 6.95786 14.64386 19.557301 24.191299 27.1593 31.1353 38.317299 41.215302 48.397301 51.2953 58.477299 61.375301 68.557297 71.455299 78.637299 81.535301 88.7173 91.615303 98.797302 101.6953 108.8773 111.7753 118.9573" y="0">Sort {5,3,4,4,3,3,4,3,4}</tspan></text></g><g clip-path="url(#clipPath712)"><g clip-path="url(#clipPath716)"><path d="m149.84 408.66c0.49902 1.6533 0.95898 2.7285 1.4922 4.0547h-5.0449c0.22558-0.47461 0.99218-2.4014 1.4912-4.0547 0.53515-1.7695 0.90039-3.374 1.0312-4.4141 0.13086 1.04 0.49609 2.6445 1.0303 4.4141z" fill="#fff"/></g></g><g clip-path="url(#clipPath738)"><g clip-path="url(#clipPath742)"><path d="m106.3 517.32s4.7241-53.149 18.898-64.961c14.173-11.811 23.622-35.433 23.622-41.338" fill="none" stroke="#000"/></g><g clip-path="url(#clipPath746)"><path d="m149.84 408.66c0.49902 1.6533 0.95898 2.7285 1.4922 4.0547h-5.0449c0.22558-0.47461 0.99218-2.4014 1.4912-4.0547 0.53515-1.7695 0.90039-3.374 1.0312-4.4141 0.13086 1.04 0.49609 2.6445 1.0303 4.4141z"/></g></g><text transform="matrix(1 0 0 -1 201.97 389.76)" fill="#000000" font-family="Myriad" font-size="14px"><tspan x="0 3.9760001 11.158 13.09 16.058001 23.24 25.171721 28.139721 35.32172 37.253159 40.221161 47.40316 49.3353 52.303299 59.485298 61.41674 64.384743 71.566742 73.498459 76.466461 83.64846 85.580177 88.54818 95.730179 97.661903 100.6299 107.8119" y="0">{3, 3, 3, 3, 4, 4, 4, 4, 5}</tspan></text><g clip-path="url(#clipPath782)"><g clip-path="url(#clipPath786)"><path d="m193.7 394.33c-1.6533 0.49902-2.7285 0.95899-4.0547 1.4922l9.8e-4 -5.0449c0.47461 0.22558 2.4004 0.99218 4.0537 1.4912 1.7695 0.53613 3.374 0.90137 4.4146 1.0322-1.0405 0.13086-2.645 0.4961-4.4146 1.0293z" fill="#fff"/></g></g><g clip-path="url(#clipPath808)"><g clip-path="url(#clipPath812)"><path d="m184.25 393.31 7.0869 9.8e-4" fill="none" stroke="#000"/></g><g clip-path="url(#clipPath816)"><path d="m193.7 394.33c-1.6533 0.49902-2.7285 0.95899-4.0547 1.4922l9.8e-4 -5.0449c0.47461 0.22558 2.4004 0.99218 4.0537 1.4912 1.7695 0.53613 3.374 0.90137 4.4146 1.0322-1.0405 0.13086-2.645 0.4961-4.4146 1.0293z"/></g></g><g clip-path="url(#clipPath848)"><g clip-path="url(#clipPath852)"><path d="m414.03 519.84c-0.81348-1.523-1.4756-2.4868-2.2588-3.6826l4.9473-0.98926c-0.12793 0.50976-0.50195 2.5488-0.66699 4.2681-0.17773 1.8398-0.22168 3.4849-0.14551 4.5308-0.333-0.99463-1.0059-2.4961-1.876-4.127z" fill="#fff"/></g></g><g clip-path="url(#clipPath874)"><g clip-path="url(#clipPath878)"><path d="m258.66 403.94c0 10.63-0.85058 43.362 24.803 46.062 67.323 7.0869 88.583 10.63 102.76 17.717 13.067 6.5342 24.804 31.89 28.347 49.606" fill="none" stroke="#000"/></g><g clip-path="url(#clipPath882)"><path d="m414.03 519.84c-0.81348-1.523-1.4756-2.4868-2.2588-3.6826l4.9473-0.98926c-0.12793 0.50976-0.50195 2.5488-0.66699 4.2681-0.17773 1.8398-0.22168 3.4849-0.14551 4.5308-0.333-0.99463-1.0059-2.4961-1.876-4.127z"/></g></g><path d="m265.75 394.27c0-4.4473-3.9658-8.0527-8.8579-8.0527-4.8926 0-8.8584 3.6055-8.8584 8.0527 0 4.4482 3.9658 8.0537 8.8584 8.0537 4.8921 0 8.8579-3.6055 8.8579-8.0537z" fill="none" stroke="#e72120"/></g></svg>
