<?xml version="1.0" encoding="UTF-8"?>
<svg width="692.43" height="326.67" version="1.1" viewBox="0 0 692.43 326.67" xml:space="preserve" xmlns="http://www.w3.org/2000/svg" xmlns:cc="http://creativecommons.org/ns#" xmlns:dc="http://purl.org/dc/elements/1.1/" xmlns:rdf="http://www.w3.org/1999/02/22-rdf-syntax-ns#"><metadata><rdf:RDF><cc:Work rdf:about=""><dc:format>image/svg+xml</dc:format><dc:type rdf:resource="http://purl.org/dc/dcmitype/StillImage"/><dc:title/></cc:Work></rdf:RDF></metadata><defs><linearGradient id="linearGradient26" x1="153.93" x2="28.345" y1="469.69" y2="595.28" gradientUnits="userSpaceOnUse"><stop stop-color="#fff" offset="0"/><stop offset=".2009"/><stop offset="1"/></linearGradient><linearGradient id="linearGradient182" x1="465.74" x2="340.16" y1="469.69" y2="595.27" gradientUnits="userSpaceOnUse"><stop stop-color="#fff" offset="0"/><stop offset=".2009"/><stop offset="1"/></linearGradient><clipPath id="clipPath280"><path d="m160.46 375.9h5.0449v8.4688h-5.0449z"/></clipPath><clipPath id="clipPath284"><path d="m160.46 375.9h5.0449v8.4688h-5.0449z"/></clipPath><clipPath id="clipPath306"><path d="m105.8 375.9h59.707v141.47h-59.707z"/></clipPath><clipPath id="clipPath310"><path d="m105.8 382.56h57.676v134.81h-57.676z"/></clipPath><clipPath id="clipPath314"><path d="m160.46 375.9h5.0449v8.4688h-5.0449z"/></clipPath><clipPath id="clipPath346"><path d="m408.51 508.54h5.0449v8.4688h-5.0449z"/></clipPath><clipPath id="clipPath350"><path d="m408.51 508.54h5.0449v8.4688h-5.0449z"/></clipPath><clipPath id="clipPath372"><path d="m247.53 375.58h166.02v141.43h-166.02z"/></clipPath><clipPath id="clipPath376"><path d="m247.53 375.58h163.99v134.68h-163.99z"/></clipPath><clipPath id="clipPath380"><path d="m408.51 508.54h5.0449v8.4688h-5.0449z"/></clipPath></defs><g transform="matrix(1.3333 0 0 -1.3333 -35.128 798.67)"><path d="m28.346 595.28v-205.51h12.351c0.14306 7.6289 6.6812 12.57 11.03 16.051 8.2856 6.2129 20.714 9.3203 23.822 21.75 1.0356 4.1426 5.1782 8.2852 8.2856 9.3213 8.2856 3.1074 18.643 1.0352 26.929 5.1787 6.2139 4.1426 7.25 13.464 13.464 16.571 17.607 7.25 33.143 16.571 46.608 27.964 4.1426 3.1069 3.1064 18.643 5.1777 25.893 8.2861 20.714 26.929 37.286 32.107 61.107 2.874 10.057 14.218 13.634 25.738 13.847v7.8301z" fill="url(#linearGradient26)" fill-opacity=".42"/><path d="m141.73 481.89h-85.039v85.04h85.039z" fill="#5ddf00"/><g fill="none" stroke="#000"><path d="m28.346 595.28v-198.42"/><path d="m56.692 595.28v-184.25"/><path d="m85.039 595.28v-155.91"/><path d="m113.39 595.28v-148.82"/><path d="m141.73 595.28v-127.56"/><path d="m170.08 595.28v-99.212"/><path d="m198.42 595.28v-35.434"/><path d="m28.346 425.2h49.607"/><path d="m120.47 453.54h-92.125"/><path d="m28.346 481.89h127.56"/><path d="m170.08 510.24h-141.73"/><path d="m28.346 538.58h155.91"/><path d="m198.42 566.93h-170.08"/><path d="m28.346 595.28h198.43"/></g><g fill="#000000" font-family="Myriad" font-size="24px"><text transform="matrix(1 0 0 -1 35.433 574.02)"><tspan x="0" y="0">2</tspan></text><text transform="matrix(1 0 0 -1 63.779 545.67)"><tspan x="0" y="0">5</tspan></text><text transform="matrix(1 0 0 -1 35.433 545.67)"><tspan x="0" y="0">2</tspan></text><text transform="matrix(1 0 0 -1 177.17 574.02)"><tspan x="0" y="0">2</tspan></text><text transform="matrix(1 0 0 -1 148.82 574.02)"><tspan x="0" y="0">3</tspan></text><text transform="matrix(1 0 0 -1 120.47 574.02)"><tspan x="0" y="0">1</tspan></text><text transform="matrix(1 0 0 -1 92.125 574.02)"><tspan x="0" y="0">6</tspan></text><text transform="matrix(1 0 0 -1 63.779 574.02)"><tspan x="0" y="0">4</tspan></text><text transform="matrix(1 0 0 -1 148.82 517.32)"><tspan x="0" y="0">5</tspan></text><text transform="matrix(1 0 0 -1 120.47 517.32)"><tspan x="0" y="0">3</tspan></text><text transform="matrix(1 0 0 -1 92.125 517.32)"><tspan x="0" y="0">3</tspan></text><text transform="matrix(1 0 0 -1 63.779 517.32)"><tspan x="0" y="0">4</tspan></text><text transform="matrix(1 0 0 -1 35.433 517.32)"><tspan x="0" y="0">3</tspan></text><text transform="matrix(1 0 0 -1 177.17 545.67)"><tspan x="0" y="0">6</tspan></text><text transform="matrix(1 0 0 -1 148.82 545.67)"><tspan x="0" y="0">3</tspan></text><text transform="matrix(1 0 0 -1 120.47 545.67)"><tspan x="0" y="0">4</tspan></text><text transform="matrix(1 0 0 -1 92.125 545.67)"><tspan x="0" y="0">3</tspan></text><text transform="matrix(1 0 0 -1 120.47 488.98)"><tspan x="0" y="0">4</tspan></text><text transform="matrix(1 0 0 -1 92.125 488.98)"><tspan x="0" y="0">3</tspan></text><text transform="matrix(1 0 0 -1 63.779 488.98)"><tspan x="0" y="0">4</tspan></text><text transform="matrix(1 0 0 -1 35.433 488.98)"><tspan x="0" y="0">2</tspan></text><text transform="matrix(1 0 0 -1 120.47 460.63)"><tspan x="0" y="0">4</tspan></text><text transform="matrix(1 0 0 -1 92.125 460.63)"><tspan x="0" y="0">4</tspan></text><text transform="matrix(1 0 0 -1 63.779 460.63)"><tspan x="0" y="0">5</tspan></text><text transform="matrix(1 0 0 -1 35.433 460.63)"><tspan x="0" y="0">3</tspan></text><text transform="matrix(1 0 0 -1 148.82 488.98)"><tspan x="0" y="0">4</tspan></text><text transform="matrix(1 0 0 -1 35.433 403.94)"><tspan x="0" y="0">5</tspan></text><text transform="matrix(1 0 0 -1 63.779 432.28)"><tspan x="0" y="0">5</tspan></text><text transform="matrix(1 0 0 -1 35.433 432.29)"><tspan x="0" y="0">5</tspan></text></g><path d="m340.16 595.28v-205.51h12.351c0.14257 7.6279 6.6816 12.57 11.031 16.05 8.2852 6.2139 20.713 9.3213 23.82 21.75 1.0371 4.1426 5.1797 8.2852 8.2871 9.3213 8.2852 3.1074 18.643 1.0352 26.928 5.1787 6.2148 4.1426 7.25 13.464 13.465 16.571 17.605 7.25 33.143 16.571 46.607 27.965 4.1426 3.1064 3.1055 18.643 5.1777 25.893 8.2852 20.714 26.928 37.285 32.107 61.107 2.873 10.057 14.217 13.633 25.738 13.846v7.8301z" fill="url(#linearGradient182)" fill-opacity=".42"/><g fill="none" stroke="#000"><path d="m340.16 595.28v-198.42"/><path d="m368.5 595.28v-184.25"/><path d="m396.85 595.28v-155.91"/><path d="m425.2 595.28v-148.82"/><path d="m453.54 595.28v-127.56"/><path d="m481.89 595.28v-99.212"/><path d="m510.24 595.28v-35.434"/><path d="m340.16 425.2h49.606"/><path d="m432.28 453.54h-92.126"/><path d="m340.16 481.89h127.56"/><path d="m481.89 510.24h-141.73"/><path d="m340.16 538.58h155.91"/><path d="m510.24 566.93h-170.08"/><path d="m340.16 595.28h198.42"/></g><g fill="#000000" font-family="Myriad" font-size="14px"><text transform="matrix(1 0 0 -1 347.24 574.02)"><tspan x="0 7.1820002 10.08" y="0">3.3</tspan></text><text transform="matrix(1 0 0 -1 375.59 545.67)"><tspan x="0 7.1820002 10.08" y="0">3.6</tspan></text><text transform="matrix(1 0 0 -1 347.24 545.67)"><tspan x="0 7.1820002 10.08" y="0">3.3</tspan></text><text transform="matrix(1 0 0 -1 488.98 574.02)"><tspan x="0 7.1820002 10.08" y="0">3.2</tspan></text><text transform="matrix(1 0 0 -1 460.63 574.02)"><tspan x="0 7.1820002 10.08" y="0">3.2</tspan></text><text transform="matrix(1 0 0 -1 432.28 574.02)"><tspan x="0 7.1820002 10.08" y="0">3.3</tspan></text><text transform="matrix(1 0 0 -1 403.94 574.02)"><tspan x="0 7.1820002 10.08" y="0">3.8</tspan></text><text transform="matrix(1 0 0 -1 375.59 574.02)"><tspan x="0 7.1820002 10.08" y="0">3.7</tspan></text><text transform="matrix(1 0 0 -1 375.59 517.32)"><tspan x="0 7.1820002 10.08" y="0">3.2</tspan></text><text transform="matrix(1 0 0 -1 347.24 517.32)"><tspan x="0 7.1820002 10.08" y="0">3.3</tspan></text><text transform="matrix(1 0 0 -1 488.98 545.67)"><tspan x="0 7.1820002 10.08" y="0">3.7</tspan></text><text transform="matrix(1 0 0 -1 460.63 545.67)"><tspan x="0 7.1820002 10.08" y="0">3.7</tspan></text><text transform="matrix(1 0 0 -1 432.28 545.67)"><tspan x="0 7.1820002 10.08" y="0">3.4</tspan></text><text transform="matrix(1 0 0 -1 403.94 545.67)"><tspan x="0 7.1820002 10.08" y="0">3.7</tspan></text><text transform="matrix(1 0 0 -1 85.04 361.42)"><tspan x="0 3.9760001 11.158 19.502001 26.684 35.028 42.209999 50.554001 57.736 66.080002 73.262001 81.606003 88.788002 97.132004 104.314 112.658 119.84 128.18401 135.366 139.342 144.144 151.326 159.67 166.85201 169.75" y="0">(5+3+4+4+3+3+4+3+4)/9=3.7</tspan></text></g><g clip-path="url(#clipPath280)"><g clip-path="url(#clipPath284)"><path d="m164.02 380.31c0.49903 1.6533 0.95899 2.7285 1.4922 4.0547h-5.0449c0.22558-0.47461 0.99218-2.4014 1.4912-4.0547 0.53515-1.7695 0.90039-3.374 1.0312-4.4141 0.13086 1.04 0.49609 2.6445 1.0303 4.4141z" fill="#fff"/></g></g><g clip-path="url(#clipPath306)"><g clip-path="url(#clipPath310)"><path d="m106.3 517.32s6.2988-67.323 25.197-82.284c18.897-14.96 31.496-44.882 31.496-52.362" fill="none" stroke="#000"/></g><g clip-path="url(#clipPath314)"><path d="m164.02 380.31c0.49903 1.6533 0.95899 2.7285 1.4922 4.0547h-5.0449c0.22558-0.47461 0.99218-2.4014 1.4912-4.0547 0.53515-1.7695 0.90039-3.374 1.0312-4.4141 0.13086 1.04 0.49609 2.6445 1.0303 4.4141z"/></g></g><g clip-path="url(#clipPath346)"><g clip-path="url(#clipPath350)"><path d="m410 512.6c-0.49902-1.6533-0.95898-2.728-1.4922-4.0542h5.0449c-0.22559 0.4746-0.99219 2.4009-1.4912 4.0542-0.53516 1.7695-0.90039 3.374-1.0312 4.4146-0.13086-1.0405-0.4961-2.645-1.0303-4.4146z" fill="#fff"/></g></g><g clip-path="url(#clipPath372)"><g clip-path="url(#clipPath376)"><path d="m248.03 375.59s4.9e-4 63.779 44.453 77.953c44.452 14.173 70.179-3.7402 103.72 28.346 7.4072 7.0869 14.816 7.0869 14.816 28.346" fill="none" stroke="#000"/></g><g clip-path="url(#clipPath380)"><path d="m410 512.6c-0.49902-1.6533-0.95898-2.728-1.4922-4.0542h5.0449c-0.22559 0.4746-0.99219 2.4009-1.4912 4.0542-0.53516 1.7695-0.90039 3.374-1.0312 4.4146-0.13086-1.0405-0.4961-2.645-1.0303-4.4146z"/></g></g></g></svg>
