<?xml version="1.0" encoding="UTF-8"?>
<svg width="794" height="819.11" version="1.1" viewBox="0 0 794 819.11" xml:space="preserve" xmlns="http://www.w3.org/2000/svg" xmlns:cc="http://creativecommons.org/ns#" xmlns:dc="http://purl.org/dc/elements/1.1/" xmlns:rdf="http://www.w3.org/1999/02/22-rdf-syntax-ns#">
  <metadata>
    <rdf:RDF>
      <cc:Work rdf:about="">
        <dc:format>image/svg+xml</dc:format>
        <dc:type rdf:resource="http://purl.org/dc/dcmitype/StillImage"/>
        <dc:title/>
      </cc:Work>
    </rdf:RDF>
  </metadata>
  
  
  <g transform="matrix(1.3333 0 0 -1.3333 0 819.11)">
    
      <g transform="rotate(-90 307.17 307.17)">
        <path d="m217.21 9.75 8.668 2.5-19.668 2.5 1.168 2.5-2.168 2.5-0.918 2.5 5.336 2.5-9.418 2.5-0.5 2.5-2.668 2.5-0.082 2.5 4.582 2.5-1.5 2.5-8.25 2.5 11.086 2.5-6.586 2.586 5.336 2.5 12.832 2.5-10.332 2.5-5.5 2.5 9.5 2.5 8.914 2.5 3.586 2.5 7.914 2.5-10.5 2.5 14.336 2.5 4.25 2.5 17.332 2.5-2.168 2.5 9.836 2.5-10.086 2.5 3.418 2.5 15.582 2.582-9.414 2.5 0.914 2.5 15.336 2.5-2.25 2.5-6.086 2.5 9.75 2.5-14.25 2.5-0.082 2.5-10.332 2.5 5.5 2.5 6.332 2.5-7.168 2.5-12.582 2.5-5.418 2.5-0.164 2.5-13.418 2.5 3.668 2.582-4.336 2.5-0.664 2.5 4.332 2.5 5.5 2.5-14.832 2.5 7.914 2.5-6.832 2.5 10.168 2.5 1.25 2.5-1.75 2.5 6.5 2.5-6.086 2.5-0.332 2.5 5.418 2.5-36 2.5-5.5 2.5 1.832 2.586-0.168 2.5 3.086 2.5-0.918 2.5-9.332 2.5 3.25 2.5-2.086 2.5 6.836 2.5-7.418 2.5 1.168 2.5 4.414 2.5-8.5 2.5 3.418 2.5 14.918 2.5-14.5 2.5-1.086 2.5 5.918 2.5v2.582l28.582 2.5 2.668 2.5 8.5 2.5 1.332 2.5-9.914 2.5 3.082 2.5-0.082 2.5 1.164 2.5 7.918 2.5-10.832 2.5 7.332 2.5-14.082 2.5 9.332 2.5 5.25 2.5-3.582 2.5 7.25 2.582" fill="none" stroke="#00f" stroke-linejoin="round" stroke-miterlimit="10" stroke-width="1.5"/>
      </g>
      <g transform="rotate(-90 307.17 307.17)">
        <path d="m232.46 4.75-0.25 2.5-15 2.5" fill="none" stroke="#00f" stroke-linejoin="round" stroke-miterlimit="10" stroke-width="1.5"/>
      </g>
      <text transform="matrix(1 0 0 -1 123.83 436.04)" fill="#000000" font-family="'Bitstream Vera Sans'" font-size="12px"><tspan x="0 8.0039997" y="0">A1</tspan></text>
      <g transform="rotate(-90 307.17 307.17)">
        <path d="m249.88 342.67 18.582 2.5-22.918 2.5-10 2.5-4.582 2.5 25.5 2.5-28.5 2.5 27.168 2.5-13.418 2.5 9 2.5-5.668 2.5-6.914 2.5-13.668 2.5-11.332 2.582 11.25 2.5 17.832 2.5-11.25 2.5 10.832 2.5-4.332 2.5 2.332 2.5 13.668 2.5-17.582 2.5 15.5 2.5-10.336 2.5-1 2.5 5.836 2.5 4.414 2.5-20.332 2.586 5.082 2.5 9.668 2.5-7.418 2.5-25.75 2.5 13 2.5 39.418 2.5-34.668 2.5 18.25 2.5-17.582 2.5 18.582 2.5-23.832 2.5 15.5 2.5 30.668 2.5-32.668 2.5-4.418 2.582 9 2.5 8.586 2.5-17.5 2.5-14.336 2.5 9.586 2.5 25.082 2.5-9.668 2.5 5.336 2.5-22.086 2.5 23.75 2.5-6.414 2.5-23.5 2.5 7.25 2.5 3.082 2.582 23.5 2.5-35.582 2.5 17.082 2.5-11 2.5 9.75 2.5-8 2.5 51.082 2.5-69.164 2.5 32.582 2.5 1.418 2.5 8.664 2.5 0.168 2.5-17 2.5 16.332 2.5-19.832 2.586-0.832 2.5-16.586 2.5-6.332 2.5 14.5 2.5 15.668 2.5-6 2.5 21.082 2.5-12 2.5-0.5 2.5-7.418 2.5-1.75 2.5-44 2.5 49.918 2.5 4.25 2.582-30.668 2.5 26.086 2.5 32.164 2.5-33.664 2.5 0.664 2.5-12.082 2.5-7.832 2.5 16.664 2.5 4.668 2.5 11.082 2.5-20 2.5 12.75 2.5 3.086 2.5-19.168 2.582" fill="none" stroke="#00f" stroke-linejoin="round" stroke-miterlimit="10" stroke-width="1.5"/>
      </g>
      <g transform="rotate(-90 307.17 307.17)">
        <path d="m237.79 337.67-3.582 2.5 15.668 2.5" fill="none" stroke="#00f" stroke-linejoin="round" stroke-miterlimit="10" stroke-width="1.5"/>
      </g>
      <text transform="matrix(1 0 0 -1 456.5 436.04)" fill="#000000" font-family="'Bitstream Vera Sans'" font-size="12px"><tspan x="0 8.6639996" y="0">D1</tspan></text>
      <g transform="rotate(-90 307.17 307.17)">
        <path d="m399.81 4.75-2 2.25-9.835 2.336-15.832 2.332-1.25 2.332-2.333 2.336-6.667 2.332 3.417 2.332-5.167 2.25 2 2.336 13.25 2.332-10.418 2.332 14.335 2.336 11.165 2.332 2.585 2.332 22.665 2.25 11.25 2.336-1.75 2.332 8 2.332 10.418 2.336 0.582 2.332-3.082 2.332-14 2.25 7.667 2.336-15.585 2.332-11.665 2.332-11 2.336-3.75 2.332 6.75 2.332-8.085 2.336 4.585 2.25 4.665 2.332 0.418 2.332-0.168 2.336-39 2.332 0.085 2.332 1.25 2.336-8 2.25 4 2.332-2.835 2.332-3.25 2.336 11.5 2.332-9.582 2.332 7.332 2.336 31.75 2.25 9.668 2.332-7.083 2.332 3.583 2.336 1.582 2.332-7.915 2.332 7.583 2.336 4.917 2.332" fill="none" stroke="#00f" stroke-linejoin="round" stroke-miterlimit="10" stroke-width="1.5"/>
      </g>
      <text transform="matrix(1 0 0 -1 56.584 270.61)" fill="#000000" font-family="'Bitstream Vera Sans'" font-size="12px"><tspan x="0 8.0039997" y="0">A2</tspan></text>
      <g transform="rotate(-90 307.17 307.17)">
        <path d="m397.48 160.59-43.582 2.25 13.832 2.332 28.418 2.332 29.082 2.336-29 2.332-11 2.332 29.668 2.336 9.082 2.25-50.5 2.332 26.168 2.332-10.333 2.336 1.25 2.332-37.335 2.332 21 2.336 7.585 2.25-3 2.332 65.415 2.332-85.165 2.336 56.333 2.332 24.332 2.332-28.665 2.336-25.335 2.25 30.5 2.332-35.082 2.332-13.833 2.336 26.165 2.332-2.165 2.332-32.25 2.336 9.083 2.332 40.417 2.25 10.833 2.332-38.583 2.336-26.335 2.332 42.418 2.332 6.75 2.336-29.418 2.332 6.25 2.25 5.835 2.332 36.833 2.336-58.5 2.332 20.082 2.332 20.835 2.336 31 2.332-27.585 2.25-34 2.332 20.75 2.336 37.918 2.332-0.833 2.332-40.835 2.336-13.665 2.332 38.5 2.332" fill="none" stroke="#00f" stroke-linejoin="round" stroke-miterlimit="10" stroke-width="1.5"/>
      </g>
      <text transform="matrix(1 0 0 -1 212.08 270.61)" fill="#000000" font-family="'Bitstream Vera Sans'" font-size="12px"><tspan x="0 8.6639996" y="0">D2</tspan></text>
      <g transform="rotate(-90 307.17 307.17)">
        <path d="m565.09 4.75-0.086 2.168-23.25 2.168-9.832 2.25-5.332 2.164-0.336 2.25 5.5 2.168 17.668 2.25 26 2.168 17.832 2.25 16.086 2.164 0.25 2.25-9.086 2.168-22.664 2.25-17.168 2.168-1.25 2.164 5.5 2.25-0.832 2.168-38.336 2.25-4.582 2.168-2.582 2.25 3.5 2.164 1.914 2.25 41.586 2.168 0.25 2.25-3.5 2.168 9.25 2.25" fill="none" stroke="#00f" stroke-linejoin="round" stroke-miterlimit="10" stroke-width="1.5"/>
      </g>
      <text transform="matrix(1 0 0 -1 26 105.25)" fill="#000000" font-family="'Bitstream Vera Sans'" font-size="12px"><tspan x="0 8.0039997" y="0">A3</tspan></text>
      <g transform="rotate(-90 307.17 307.17)">
        <path d="m576.17 80.25 10.168 2.168-20.086 2.25-11.414 2.168 7.664 2.25 47.086 2.164-44.586 2.25-26.5 2.168 62.336 2.25-38.836 2.168 20.836 2.25-46.168 2.164 39 2.25-17.918 2.168 35.75 2.25-28.582 2.168 9.75 2.25-56.082 2.164 69.414 2.25-9.914 2.168-33.918 2.25 6.168 2.168 49.664 2.25-40.25 2.164 30.168 2.25-21.418 2.168 14.418 2.25" fill="none" stroke="#00f" stroke-linejoin="round" stroke-miterlimit="10" stroke-width="1.5"/>
      </g>
      <text transform="matrix(1 0 0 -1 101.25 105.25)" fill="#000000" font-family="'Bitstream Vera Sans'" font-size="12px"><tspan x="0 8.6639996" y="0">D3</tspan></text>
      <g transform="rotate(-90 307.17 307.17)">
        <path d="m64.699 300.67 2.25 2.918-6 2.914 7.5 2.918-6.5 2.918-0.25 2.914 7.25 3 6.25 2.918-5.414 2.918-3.168 2.914-10 2.918 1.832 2.918 13.25 3-12.832 2.914 2.418 2.918 1.75 2.918 7.414 2.914 6.668 2.918-8.5 3-5.918 2.918 9.5 2.914 0.75 2.918 4.086 2.918-10.418 2.914 4.168 3-2.25 2.918 1.664 2.918-4 2.914 6.668 2.918-5.418 2.918-37.914 2.914-2.25 3 13.414 2.918-2.332 2.918-1.668 2.914 2.168 2.918-3.75 2.918 8.668 3-7.086 2.914 8.418 2.918-8.418 2.918-4.582 2.914-3.332 2.918 9.5 3-5.918 2.918-1.418 2.914 2.836 2.918 1.414 2.918 8 2.914-16.164 3 11.082 2.918-15.5 2.918 17.918 2.914-10.586 2.918 10.668 2.918-8.75 2.914-3.832 3 0.164 2.918 4.168 2.918 14.168 2.914-1.918 2.918-6.918 2.918-8.582 3 3.918 2.914-1.836 2.918 2.668 2.918 5.5 2.914-2 2.918 5.582 3-6.332 2.918 41.25 2.914-13.832 2.918 1.25 2.918 7.914 2.914 2.836 3-11.918 2.918 15.668 2.918-13.918 2.914-5.25 2.918 17.668 2.918-16.168 2.914 5 3 1.25 2.918 0.332 2.918 2 2.914-0.664 2.918 12.082 2.918-20.168 3 7.336 2.914-0.25 2.918 6 2.918-11.586 2.914-6.664 2.918 13.5 3-1.586 2.918-0.332 2.914 7.332 2.918-3.664 2.918-4 2.914 9.582 3" fill="none" stroke="#00f" stroke-linejoin="round" stroke-miterlimit="10" stroke-width="1.5"/>
      </g>
      <g transform="rotate(-90 307.17 307.17)">
        <path d="m57.867 10.586-5 2.914 10.668 2.918-3.918 2.918 2.082 2.914-26.25 3 13.75 2.918-3.5 2.918-0.832 2.914 0.832 2.918-5.082 2.918 2.918 3 10.832 2.914-7.5 2.918-8.418 2.918 0.75 2.914 6.586 2.918-9.918 3 2.832 2.918-3.664 2.914 6.414 2.918-7.332 2.918 8.5 2.914-1.832 3 0.5 2.918-0.168 2.918-9.582 2.914 5 2.918-5.168 2.918 19.582 2.914-17.5 3 4.668 2.918 3.75 2.918 0.418 2.914 4.5 2.918 9.664 2.918-8.332 3-6.75 2.914-1.25 2.918-2.25 2.918 6.582 2.914 2.75 2.918 11.336 3-4.5 2.918 2.164 2.914 2.336 2.918 9.582 2.918-3.918 2.914-3.914 3-6.418 2.918 11.668 2.918 5.082 2.914 3.5 2.918-2.918 2.918 17.5 2.914 1.336 3-5.25 2.918 3.75 2.918 3 2.914 5.914 2.918-5.5 2.918-8.164 3 6.25 2.914 3.082 2.918-2.418 2.918 22.586 2.914-21.418 2.918 2.25 3 11.5 2.918-13.75 2.914 10.168 2.918 11.582 2.918-1.082 2.914-6 3-5.668 2.918 1.332 2.918 10.836 2.914-1 2.918-14.418 2.918 1.082 2.914-1.332 3-2.5 2.918 8.832 2.918-23.164 2.914 12.164 2.918 2.668 2.918 0.75 3 5.168 2.914-5.086 2.918-6.414 2.918 0.664 2.914-12.914 2.918 0.5 3 0.664 2.918-8 2.914 10.75 2.918-17 2.918-1.664 2.914 9.5 3-7.586 2.918" fill="none" stroke="#00f" stroke-linejoin="round" stroke-miterlimit="10" stroke-width="1.5"/>
      </g>
      <g transform="rotate(-90 307.17 307.17)">
        <path d="m69.367 4.75 0.25 2.918-11.75 2.918" fill="none" stroke="#00f" stroke-linejoin="round" stroke-miterlimit="10" stroke-width="1.5"/>
      </g>
      <g transform="rotate(-90 307.17 307.17)">
        <path d="m68.367 300.67v84.918l-32.832 2.914v114.34l32.832 2.914v85" fill="none" stroke="#f00" stroke-linejoin="round" stroke-miterlimit="10" stroke-width="1.5"/>
      </g>
      <g transform="rotate(-90 307.17 307.17)">
        <path d="m64.199 10.586-2 2.914-4 5.836-1.914 2.914-1.918 3-1.832 2.918-1.75 2.918-1.668 2.914-1.668 2.918-1.582 2.918-1.418 3-1.332 2.914-1.25 2.918-1.168 2.918-1.082 2.914-0.918 2.918-0.832 3-0.668 2.918-0.582 2.914-0.5 2.918-0.25 2.918-0.25 2.914-0.082 3 0.082 2.918 0.25 2.918 0.25 2.914 0.5 2.918 0.582 2.918 0.668 2.914 0.832 3 0.918 2.918 1.082 2.918 1.168 2.914 1.25 2.918 1.332 2.918 1.418 3 1.582 2.914 3.336 5.836 1.75 2.914 1.832 2.918 1.918 3 1.914 2.918 2 2.914 4 5.836 2.086 2.914 2.082 3 2 2.918 2.082 2.918 2 2.914 4 5.836 1.918 2.914 1.918 3 1.832 2.918 1.75 2.918 1.75 2.914 1.582 2.918 1.586 2.918 1.414 3 1.418 2.914 1.25 2.918 1.168 2.918 1 2.914 0.914 2.918 0.836 3 0.75 2.918 0.582 2.914 0.418 2.918 0.332 2.918 0.168 2.914 0.082 3-0.082 2.918-0.168 2.918-0.332 2.914-0.418 2.918-0.582 2.918-0.75 2.914-0.836 3-0.914 2.918-1 2.918-1.168 2.914-1.25 2.918-1.418 2.918-1.414 3-1.586 2.914-1.582 2.918-1.75 2.918-1.75 2.914-1.832 2.918-1.918 3-1.918 2.918-2 2.914-4 5.836-2.082 2.914-2 3v2.918" fill="none" stroke="#f00" stroke-linejoin="round" stroke-miterlimit="10" stroke-width="1.5"/>
      </g>
      <g transform="rotate(-90 307.17 307.17)">
        <path d="m68.367 4.75-2.082 2.918-2.086 2.918" fill="none" stroke="#f00" stroke-linejoin="round" stroke-miterlimit="10" stroke-width="1.5"/>
      </g>
      <text transform="matrix(1 0 0 -1 264 601.22)" fill="#000000" font-family="'Bitstream Vera Sans'" font-size="12px"><tspan x="0 3.3239999 9.9840002 16.656 23.316 29.988001 35.976002 38.627998 45.287998 51.948002 58.608002 61.271999" y="0">Inputsignals</tspan></text>
      <path d="m498 538.14v-32.5h87.832v32.5z" fill="#fff" fill-rule="evenodd"/>
      <g transform="rotate(-90 307.17 307.17)">
        <path d="m108.7 498h-32.5v87.836h32.5v-87.836" fill="none" stroke="#fff" stroke-linejoin="round" stroke-miterlimit="10" stroke-width=".5"/>
      </g>
      <g transform="rotate(-90 307.17 307.17)">
        <path d="m108.7 498v87.836" fill="none" stroke="#000" stroke-linejoin="round" stroke-miterlimit="10" stroke-width=".5"/>
      </g>
      <g transform="rotate(-90 307.17 307.17)">
        <path d="m76.199 498v87.836" fill="none" stroke="#000" stroke-linejoin="round" stroke-miterlimit="10" stroke-width=".5"/>
      </g>
      <g transform="rotate(-90 307.17 307.17)">
        <path d="m108.7 498h-32.5" fill="none" stroke="#000" stroke-linejoin="round" stroke-miterlimit="10" stroke-width=".5"/>
      </g>
      <g transform="rotate(-90 307.17 307.17)">
        <path d="m108.7 585.84h-32.5" fill="none" stroke="#000" stroke-linejoin="round" stroke-miterlimit="10" stroke-width=".5"/>
      </g>
      <g transform="rotate(-90 307.17 307.17)">
        <path d="m108.7 498v87.836" fill="none" stroke="#000" stroke-linejoin="round" stroke-miterlimit="10" stroke-width=".5"/>
      </g>
      <g transform="rotate(-90 307.17 307.17)">
        <path d="m108.7 498h-32.5" fill="none" stroke="#000" stroke-linejoin="round" stroke-miterlimit="10" stroke-width=".5"/>
      </g>
      <g transform="rotate(-90 307.17 307.17)">
        <path d="m108.7 498v87.836" fill="none" stroke="#000" stroke-linejoin="round" stroke-miterlimit="10" stroke-width=".5"/>
      </g>
      <g transform="rotate(-90 307.17 307.17)">
        <path d="m76.199 498v87.836" fill="none" stroke="#000" stroke-linejoin="round" stroke-miterlimit="10" stroke-width=".5"/>
      </g>
      <g transform="rotate(-90 307.17 307.17)">
        <path d="m108.7 498h-32.5" fill="none" stroke="#000" stroke-linejoin="round" stroke-miterlimit="10" stroke-width=".5"/>
      </g>
      <g transform="rotate(-90 307.17 307.17)">
        <path d="m108.7 585.84h-32.5" fill="none" stroke="#000" stroke-linejoin="round" stroke-miterlimit="10" stroke-width=".5"/>
      </g>
      <text transform="matrix(1 0 0 -1 535.33 524.97)" fill="#000000" font-family="'Bitstream Vera Sans'" font-size="12px"><tspan x="0 7.9920001 16.656 25.308001 32.304001 38.976002" y="0">SNR=10</tspan></text>
      <g transform="rotate(-90 307.17 307.17)">
        <path d="m85.035 503.67v28.668" fill="none" stroke="#00f" stroke-linejoin="round" stroke-miterlimit="10" stroke-width="1.5"/>
      </g>
      <text transform="matrix(1 0 0 -1 535.33 510.22)" fill="#000000" font-family="'Bitstream Vera Sans'" font-size="12px"><tspan x="0 9.3360004 13.332 15.984 22.643999 25.296 31.968 38.627998" y="0">Original</tspan></text>
      <g transform="rotate(-90 307.17 307.17)">
        <path d="m99.785 503.67v28.668" fill="none" stroke="#f00" stroke-linejoin="round" stroke-miterlimit="10" stroke-width="1.5"/>
      </g>
      <g transform="matrix(1 0 0 -1 0 614.33)">
        <path d="m188.73 170.46 100.74-44.668 104.54 45.617" fill="none" stroke="#bc5055" stroke-width="4"/>
      </g>
      <g transform="matrix(1 .4434 .4434 -1 0 614.33)">
        <path d="m109.19 212.39 7.314-7.316-25.595 7.315 25.593 7.313z" fill="#bc5055" fill-rule="evenodd" stroke="#bc5055" stroke-width="1.8283"/>
      </g>
      <g transform="matrix(-1 .43636 .43636 1 0 614.33)">
        <path d="m-379.16 0.438 7.331-7.332-25.664 7.332 25.665 7.332z" fill="#bc5055" fill-rule="evenodd" stroke="#bc5055" stroke-width="1.8331"/>
      </g>
      <g transform="rotate(-90 307.17 307.17)">
        <path d="m328.6 77.93-37.063 62.726 37.063 65.574" fill="none" stroke="#bc5055" stroke-width="4"/>
      </g>
      <g transform="matrix(1 .59091 -.59091 1 0 614.33)">
        <path d="m-72.384-277.69 6.888-6.886-24.105 6.889 24.103 6.885z" fill="#bc5055" fill-rule="evenodd" stroke="#bc5055" stroke-width="1.7218"/>
      </g>
      <g transform="matrix(-1 .56522 -.56522 -1 0 614.33)">
        <path d="m-283.13 160.7 6.964-6.966-24.377 6.964 24.376 6.965z" fill="#bc5055" fill-rule="evenodd" stroke="#bc5055" stroke-width="1.7411"/>
      </g>
      <g transform="rotate(-90 307.17 307.17)">
        <path d="m493.02 40.867-38.016 26.61 42.77 29.461" fill="none" stroke="#bc5055" stroke-width="4"/>
      </g>
      <g transform="matrix(.7 1 -1 .7 0 614.33)">
        <path d="m-298.58-259.05 6.555-6.552-22.938 6.552 22.937 6.557z" fill="#bc5055" fill-rule="evenodd" stroke="#bc5055" stroke-width="1.6385"/>
      </g>
      <g transform="matrix(-.68889 1 -1 -.68889 0 614.33)">
        <path d="m-369.68 166.81 6.591-6.588-23.06 6.589 23.059 6.588z" fill="#bc5055" fill-rule="evenodd" stroke="#bc5055" stroke-width="1.647"/>
      </g>
    
  </g>
</svg>
