<?xml version="1.0" encoding="UTF-8"?>
<svg width="803.71" height="752.5" version="1.1" viewBox="0 0 803.71 752.5" xml:space="preserve" xmlns="http://www.w3.org/2000/svg" xmlns:cc="http://creativecommons.org/ns#" xmlns:dc="http://purl.org/dc/elements/1.1/" xmlns:rdf="http://www.w3.org/1999/02/22-rdf-syntax-ns#">
  <metadata>
    <rdf:RDF>
      <cc:Work rdf:about="">
        <dc:format>image/svg+xml</dc:format>
        <dc:type rdf:resource="http://purl.org/dc/dcmitype/StillImage"/>
        <dc:title/>
      </cc:Work>
    </rdf:RDF>
  </metadata>
  
  
  <g transform="matrix(1.3333 0 0 -1.3333 0 752.5)">
    
      <g transform="rotate(-90 282.19 282.19)">
        <path d="m75.367 304.19-1.082 2.917-3.918 2.915 0.082 2.918 3.918 2.917-6.082 2.915-6.25 3 8.75 2.918-0.25 2.917 11.582 2.915-8.25 2.918 3.582 2.917-5.832 3-5.332 2.915-5.75 2.918-1.586 2.917 11.086 2.915 1.164 2.918-6.582 3 1.918 2.917-1.668 2.915v2.918l13.082 2.917-11.75 2.915 3.668 3 3.918 2.918-0.418 2.917-11.418 2.915 12.086 2.918 2.5 2.917-37.418 2.915-10.418 3 11.5 2.918-1.664 2.917 7.25 2.915-15.168 2.918 9 2.917-2.332 3 8.582 2.915-10.5 2.918 2.75 2.917 8.918 2.915-6.918 2.918 2.832 3-3.25 2.917 2.086 2.915-0.336 2.918 4.918 2.917-4.168 2.915-6.25 3-5.664 2.918 16.832 2.917-20.5 2.915 4.918 2.918 7.832 2.917 2.75 2.915 2.25 3-8.832 2.918 8.832 2.917-1.332 2.915-7.836 2.918 2.668 2.917-2.668 3 2.25 2.915 5.25 2.918 0.668 2.917-7.668 2.915 8.586 2.918-10.836 3 2.336 2.917 31.914 2.915 1.668 2.918-2.168 2.917-18.332 2.915 21.168 3 8.332 2.918-20.168 2.917 7.586 2.915 7.332 2.918-18.918 2.917 11.918 2.915 1.5 3 6.25 2.918 1.668 2.917 4.082 2.915-7.832 2.918 3.664 2.917-9.832 3 5.582 2.915-12.082 2.918 1.5 2.917 7.75 2.915 2.582 2.918-8.25 3 13.25 2.917-10.5 2.915 7.75 2.918-1.5 2.917 1.5 2.915-7.164 3" fill="none" stroke="#00f" stroke-linejoin="round" stroke-miterlimit="10"/>
      </g>
      <g transform="rotate(-90 282.19 282.19)">
        <path d="m63.367 14.105 2.668 2.915-0.418 2.918-1.832 2.917-10.086 2.915 14.086 3-11.168 2.918-4.332 2.917 3.832 2.915-8 2.918 1.832 2.917 3.668 3-7.582 2.915 1.414 2.918-0.164 2.917 0.75 2.915-5.25 2.918 10.332 3-9 2.917 0.332 2.915 1.668 2.918-9.332 2.917 7.914 2.915-7.5 3-2.414 2.918 6.75 2.917-2.25 2.915-1.75 2.918 4.75 2.917-3 2.915 11.164 3-12.914 2.918 13.082 2.917 5.918 2.915-17.586 2.918 9.668 2.917-1.75 3 6.082 2.915 5.25 2.918 13.418 2.917-19.832 2.915 6.914 2.918 1.086 3-1.75 2.917 12.332 2.915-2.25 2.918-9.082 2.917 5 2.915 12.75 3 7.164 2.918-7.664 2.917-2.75 2.915-2.418 2.918 6.668 2.917 8.75 2.915-6.586 3 10.168 2.918 0.332 2.917-0.25 2.915 4.75 2.918-4.164 2.917 4.914 3-2.332 2.915 2.082 2.918 0.75 2.917 1.5 2.915-9.25 2.918 4.336 3 3.75 2.917 9.414 2.915 1.336 2.918 2.25 2.917-26.336 2.915 9.5 3 4.086 2.918 7 2.917 0.664 2.915-10.164 2.918-6.418 2.917 18.25 2.915-7.918 3-3 2.918 10.168 2.917-17.418 2.915 6.168 2.918-14.75 2.917 12.082 3-6 2.915 7.586 2.918-4.5 2.917 1.582 2.915-10.668 2.918-7 3 9.336 2.917-7.75 2.915 3.664 2.918-5.332 2.917-8.168 2.915 4.418 3 6.75 2.918" fill="none" stroke="#00f" stroke-linejoin="round" stroke-miterlimit="10"/>
      </g>
      <g transform="rotate(-90 282.19 282.19)">
        <path d="m67.117 8.27-2 2.918-1.75 2.917" fill="none" stroke="#00f" stroke-linejoin="round" stroke-miterlimit="10"/>
      </g>
      <text transform="matrix(1 0 0 -1 270.52 547.26)" fill="#000000" font-family="'Bitstream Vera Sans'" font-size="12px"><tspan x="0 3.3239999 9.9840002 16.656 23.316 29.988001 35.976002 38.627998 45.287998 51.948002 58.608002" y="0">Inputsignal</tspan></text>
      <g transform="rotate(-90 282.19 282.19)">
        <path d="m207.59 18.02-2.168 2.5-6.582 2.418-2.086 2.5-3.25 2.417-0.582 2.5-0.332 2.415-0.668 2.5-4.082 2.418-2.75 2.5-4.25 2.417 2.914 2.5 1 2.415 3.75 2.5 7.586 2.418-6.418 2.5 4.332 2.417 16.25 2.415-5.914 2.5 1.664 2.418 10.668 2.5-8.918 2.417 20.5 2.5-1.5 2.415-4.5 2.5 11.836 2.418 5.5 2.5 4.414 2.417 1.75 2.5 1.5 2.415 3 2.5-7.75 2.418 9.75 2.5 12.5 2.417-23.664 2.5 12 2.415 2 2.5-8.418 2.418 7.168 2.417-1.5 2.5-13.168 2.415-0.332 2.5 4.332 2.418-4.832 2.5-12.418 2.417 2.25 2.5-8.75 2.415-0.832 2.5 4.664 2.418-2 2.5-5.5 2.417 1.668 2.5 10.918 2.415-3.168 2.5-12.082 2.418-2.836 2.5 8.668 2.417-6.332 2.5 5.5 2.415 0.414 2.418 4.336 2.5-5.336 2.417-2.164 2.5-41.586 2.415 14.168 2.5-8.918 2.418 6.75 2.5-4 2.417 7 2.5-3.332 2.415 0.25 2.5 4.75 2.418-12 2.5 3.418 2.417-7.5 2.5 13.832 2.415-4.082 2.5 2.082 2.418-6.918 2.5 3.75 2.417 2.918 2.415-4.5 2.5 7.168 2.418 31.332 2.5-15.75 2.417 17.25 2.5-7.332 2.415-5.75 2.5 10.164 2.418 8.418 2.5-2.668 2.417-5.582 2.5-10 2.415 8 2.5 0.082 2.418 2.336 2.5 3.582 2.417-7.582 2.5 6.332 2.415-1.75 2.5" fill="none" stroke="#00f" stroke-linejoin="round" stroke-miterlimit="10"/>
      </g>
      <g transform="rotate(-90 282.19 282.19)">
        <path d="m213.59 8.27 1.664 2.418-2.75 2.417 1.168 2.5-6.082 2.415" fill="none" stroke="#00f" stroke-linejoin="round" stroke-miterlimit="10"/>
      </g>
      <text transform="matrix(1 0 0 -1 127.35 400.13)" fill="#000000" font-family="'Bitstream Vera Sans'" font-size="12px"><tspan x="0 8.0039997" y="0">A1</tspan></text>
      <g transform="rotate(-90 282.19 282.19)">
        <path d="m215.34 343.69 5.582 2.5-7.25 2.582 1.668 2.5-30.75 2.5 44.332 2.585 4.25 2.5-29.332 2.5 12.5 2.583-1.168 2.5-20.5 2.582 24.832 2.5 19.918 2.5-12.25 2.585-23 2.5 22.75 2.5 4.082 2.583 23.836 2.5-63.336 2.582 9.836 2.5 21.164 2.5-40.914 2.585 27.332 2.5 28.168 2.5-25.336 2.583 14.75 2.5-23.832 2.5 18.582 2.582-5.75 2.5 26.336 2.585-22.918 2.5-10.332 2.5 1.414 2.583 8.586 2.5-12 2.5 10.582 2.582-5.332 2.5-22.25 2.585 19.25 2.5 1.164 2.5 22.5 2.583-51.5 2.5 54 2.5 12.336 2.582 0.582 2.5-13.918 2.585-9.164 2.5 2.914 2.5-31.75 2.583 10.25 2.5 30.75 2.5-31.082 2.582 22.25 2.5-24.668 2.5 33.086 2.585-6.168 2.5 5.918 2.583-18.336 2.5 7.5 2.5-23.75 2.582 29.668 2.5-8.168 2.5-35.914 2.585 32.332 2.5-5.918 2.583-17 2.5 68 2.5-71.75 2.582 2.586 2.5 10.25 2.5-8.836 2.585 27.168 2.5 8.668 2.583-8.668 2.5 0.832 2.5-7.914 2.582 21.414 2.5 16.418 2.5-47.5 2.585 3.168 2.5-7.75 2.5 30.414 2.583-8 2.5-14.75 2.582 24.418 2.5 6.418 2.5-67.586 2.585 40.168 2.5-23.832 2.5 74.25 2.583-78.918 2.5 17.668 2.582 13.332 2.5-8.668 2.5-2.5 2.585-9.164 2.5 29.082 2.5-14.668 2.583-21.164 2.5 19.832 2.582" fill="none" stroke="#00f" stroke-linejoin="round" stroke-miterlimit="10"/>
      </g>
      <g transform="rotate(-90 282.19 282.19)">
        <path d="m225.59 341.19-10.25 2.5" fill="none" stroke="#00f" stroke-linejoin="round" stroke-miterlimit="10"/>
      </g>
      <g transform="rotate(-90 282.19 282.19)">
        <path d="m182.84 341.19v253.08" fill="none" stroke="#f00" stroke-linejoin="round" stroke-miterlimit="10"/>
      </g>
      <g transform="rotate(-90 282.19 282.19)">
        <path d="m254.92 341.19v253.08" fill="none" stroke="#f00" stroke-linejoin="round" stroke-miterlimit="10"/>
      </g>
      <g transform="rotate(-90 282.19 282.19)">
        <path d="m218.92 341.19v253.08" fill="none" stroke="#000" stroke-linejoin="round" stroke-miterlimit="10"/>
      </g>
      <text transform="matrix(1 0 0 -1 460.02 400.13)" fill="#000000" font-family="'Bitstream Vera Sans'" font-size="12px"><tspan x="0 8.6639996" y="0">D1</tspan></text>
      <g transform="rotate(-90 282.19 282.19)">
        <path d="m378.93 350.94v41.832l-37.332 2.418 37.332 2.5v44.167l-37.918 2.5 37.918 2.415v56.585l45.832 2.415-45.832 2.5v22.085l36 2.415-36 2.5v17.168l-45.168 2.5 45.168 2.417v2.5l45.418 2.415-45.418 2.5v29.5" fill="none" stroke="#00f" stroke-linejoin="round" stroke-miterlimit="10"/>
      </g>
      <g transform="rotate(-90 282.19 282.19)">
        <path d="m378.93 341.19v9.75" fill="none" stroke="#00f" stroke-linejoin="round" stroke-miterlimit="10"/>
      </g>
      <text transform="matrix(1 0 0 -1 436.6 245.44)" fill="#000000" font-family="'Bitstream Vera Sans'" font-size="12px"><tspan x="0 8.6639996" y="0">D1</tspan></text>
      <text transform="matrix(1 0 0 -1 451.94 239.44)" fill="#000000" font-family="'Bitstream Vera Sans'" font-size="9px"><tspan x="0 2.5020001 7.4970002 10.494 15.498 19.989 24.983999 29.979 31.968 36.972 41.966999" y="0">thresholded</tspan></text>
      <g transform="rotate(-90 282.19 282.19)">
        <path d="m516.32 304.19 2.5 2.917-0.332 2.915-1 2.918-2.5 2.917-2.418 2.915-0.25 3 0.586 2.918 4.75 2.917 5.414 2.915v2.918l-2 2.917-5.082 3-5.668 2.915-2.25 2.918-1.25 2.917 3.836 2.915 5.414 2.918-2.414 3-4.5 2.917 1.914 2.915 3.668 2.918 0.25 2.917-0.75 2.915 2.082 3 2.5 2.918-1.832 2.917-5.668 2.915 2.418 2.918 9.082 2.917-36.414 2.915-7.586 3 1.336 2.918 10.5 2.917-3.586 2.915-6.164 2.918 2.5 2.917 4.914 3-1.664 2.915-3.25 2.918 2.832 2.917 4.332 2.915-1.082 2.918-2.25 3-0.25 2.917-0.332 2.915 2.582 2.918 3.418 2.917-4.918 2.915-8.168 3 2.418 2.918 9.082 2.917-18.082 2.915 6.832 2.918 3.336 2.917 7.164 2.915-1.25 3-3.5 2.918 1 2.917 2.086 2.915-2.918 2.918-4 2.917 1 3 2.25 2.915 1.668 2.918 1.75 2.917-2.086 2.915-0.832 2.918-0.418 3-4.914 2.917 32.332 2.915 2.25 2.918-3 2.917-11.918 2.915 8.336 3 16.914 2.918-20.082 2.917 10.832 2.915-6.082 2.918-4.332 2.917 3.164 2.915 5.75 3 4.168 2.918 3.582 2.917-0.414 2.915-2.168 2.918-1.918 2.917-1.75 3-4.914 2.915-5.336 2.918 2.75 2.917 5.25 2.915 0.336 2.918-0.668 3 0.75 2.917 0.75 2.915 2 2.918 2.418 2.917-3.25 2.915-4.836 3" fill="none" stroke="#00f" stroke-linejoin="round" stroke-miterlimit="10"/>
      </g>
      <g transform="rotate(-90 282.19 282.19)">
        <path d="m509.32 14.105 0.668 2.915 1.25 2.918-2.418 2.917-3.5 2.915-0.832 3-0.25 2.918-2.75 2.917-3.25 2.915-1.082 2.918-0.336 2.917-1.414 3-1.5 2.915-0.418 2.918v2.917l-0.168 2.915-0.25 2.918-0.082 3-0.082 2.917-1.586 2.915-2.164 2.918-1.086 2.917-0.75 2.915-2.082 3-2.168 2.918 1 2.917 2 2.915 0.336 2.918 0.332 2.917 1.168 2.915 1.25 3 3.664 2.918 4.25 2.917-2.5 2.915-3.75 2.918 0.586 2.917 2.5 3 6.082 2.915 3.25 2.918 13.332 2.917-17 2.915 2.086 2.918 1.664 3 5.25 2.917 6.5 2.915-4.164 2.918-7.086 2.917 8.086 2.915 11.582 3 0.75 2.918-1.918 2.917-2.582 2.915-2.75 2.918 4.332 2.917 6.5 2.915 2.668 3 1.668 2.918 2 2.917 1.832 2.915 0.918 2.918 0.5 2.917 0.582 3 0.168 2.915 1.75 2.918 2.25 2.917-3.5 2.915-4.586 2.918 3 3 4.168 2.917 6.918 2.915 7.75 2.918-9.75 2.917-14.336 2.915 3.586 3 8 2.918 1.914 2.917 1.668 2.915-5 2.918-10.582 2.917 17.832 2.915-8.75 3 2.832 2.918 0.668 2.917-5.25 2.915-7.082 2.918-1.086 2.917 0.5 3 2 2.915 2.25 2.918-1.164 2.917-2.086 2.915-5.5 2.918-6.582 3 0.75 2.917 2.832 2.915-3.5 2.918-4.582 2.917-1.082 2.915v3l1.914 2.918" fill="none" stroke="#00f" stroke-linejoin="round" stroke-miterlimit="10"/>
      </g>
      <g transform="rotate(-90 282.19 282.19)">
        <path d="m512.32 8.27-1.082 2.918-1.918 2.917" fill="none" stroke="#00f" stroke-linejoin="round" stroke-miterlimit="10"/>
      </g><g>
      <text transform="matrix(1 0 0 -1 263.85 100.89)" fill="#000000" font-family="'Bitstream Vera Sans'" font-size="12px"><tspan x="0 7.3319998 9.9840002 12.636 15.972 22.643999 26.639999 33.299999 43.307999 49.296001 51.948002 58.608002 65.267998 71.940002" y="0">Filteredsignal</tspan></text>
      <path d="m404.78 125.67-18.504-13.652-6.781 21.246 7.148-2.063 5.5 44.176 10.942-9.457 14.344 1.863-20.137-39.781z" fill="#df8f87"/>
      <path d="m473.69 280.52-13.429-18.668-12.965 18.148 7.437 0.227-8.3 43.734 13.312-5.648 13.082 6.168-6.98-44.035z" fill="#9dde67"/>
      <path d="m276.71 397.4-22.129-6.274 1.129 22.274 5.965-4.445 20.687 39.418 6.918-12.704 14.082-3.3-32.843-30.153z" fill="#8d91d0"/>
      <path d="m364.4 424.27 5.317-22.375-22.207 2.082 4.699 5.77-38.496 22.359 12.988 6.367 3.903 13.926 28.714-34.11z" fill="#8d91d0"/>
      <path d="m225.73 204.91-2.714-22.836-20.129 9.601 6.394 3.797-28.437 34.25 14.386 1.504 8.457 11.73 15.215-41.91z" fill="#df8f87"/>
    </g>
  </g>
</svg>
