<?xml version="1.0" encoding="UTF-8"?>
<svg width="539.33" height="529.82" version="1.1" viewBox="0 0 539.33 529.82" xml:space="preserve" xmlns="http://www.w3.org/2000/svg" xmlns:cc="http://creativecommons.org/ns#" xmlns:dc="http://purl.org/dc/elements/1.1/" xmlns:rdf="http://www.w3.org/1999/02/22-rdf-syntax-ns#">
  <metadata>
    <rdf:RDF>
      <cc:Work rdf:about="">
        <dc:format>image/svg+xml</dc:format>
        <dc:type rdf:resource="http://purl.org/dc/dcmitype/StillImage"/>
        <dc:title/>
      </cc:Work>
    </rdf:RDF>
  </metadata>
  
  
  <g transform="matrix(1.3333 0 0 -1.3333 0 529.82)">
    
      <g transform="matrix(1 0 0 -1 0 397.37)">
        <path d="m316.88 309.75h79.23v79.227h-79.23z" fill="#fff" stroke="#000" stroke-width=".77058"/>
      </g>
      <text transform="matrix(1 0 0 -1 341.47 39.939)" fill="#000000" font-family="'Bitstream Vera Sans'" font-size="28.8px"><tspan x="0" y="0">d</tspan></text>
      <text transform="matrix(1 0 0 -1 359.75 34.179)" fill="#000000" font-family="'Bitstream Vera Sans'" font-size="18.72px"><tspan x="0" y="0">1</tspan></text>
      <g transform="matrix(1 0 0 -1 0 397.37)">
        <path d="m236.88 309.75h79.23v79.227h-79.23z" fill="#fff" stroke="#000" stroke-width=".77058"/>
      </g>
      <text transform="matrix(1 0 0 -1 260.96 39.939)" fill="#000000" font-family="'Bitstream Vera Sans'" font-size="28.8px"><tspan x="0" y="0">h</tspan></text>
      <text transform="matrix(1 0 0 -1 279.24 34.179)" fill="#000000" font-family="'Bitstream Vera Sans'" font-size="18.72px"><tspan x="0" y="0">1</tspan></text>
      <g transform="matrix(1 0 0 -1 0 397.37)">
        <path d="m236.88 229.75h79.23v79.227h-79.23z" fill="#fff" stroke="#000" stroke-width=".77058"/>
      </g>
      <text transform="matrix(1 0 0 -1 261.71 122.82)" fill="#000000" font-family="'Bitstream Vera Sans'" font-size="28.8px"><tspan x="0" y="0">a</tspan></text>
      <text transform="matrix(1 0 0 -1 279.37 117.06)" fill="#000000" font-family="'Bitstream Vera Sans'" font-size="18.72px"><tspan x="0" y="0">1</tspan></text>
      <g transform="matrix(1 0 0 -1 0 397.37)">
        <path d="m316.88 229.75h79.23v79.227h-79.23z" fill="#fff" stroke="#000" stroke-width=".77058"/>
      </g>
      <text transform="matrix(1 0 0 -1 342.45 123.01)" fill="#000000" font-family="'Bitstream Vera Sans'" font-size="28.8px"><tspan x="0" y="0">v</tspan></text>
      <text transform="matrix(1 0 0 -1 359.5 117.25)" fill="#000000" font-family="'Bitstream Vera Sans'" font-size="18.72px"><tspan x="0" y="0">1</tspan></text>
      <g transform="matrix(1 0 0 -1 0 397.37)">
        <path d="m88.387 99.07h79.227v79.227h-79.227z" fill="#fff" stroke="#000" stroke-width=".77058"/>
      </g><g fill="#000000" font-family="'Bitstream Vera Sans'">
      <text transform="matrix(1 0 0 -1 93.568 250.62)" font-size="28.8px"><tspan x="0" y="0">d</tspan></text>
      <text transform="matrix(1 0 0 -1 111.85 244.86)" font-size="18.72px"><tspan x="0 11.063676" y="0">v*</tspan></text>
      <text transform="matrix(1 0 0 -1 132.29 250.62)" font-size="28.8px"><tspan x="0" y="0">d</tspan></text>
      <text transform="matrix(1 0 0 -1 150.57 244.86)" font-size="18.72px"><tspan x="0" y="0">h</tspan></text>
      </g><g transform="matrix(1 0 0 -1 0 397.37)">
        <path d="m8.387 99.07h79.227v79.227h-79.227z" fill="#fff" stroke="#000" stroke-width=".77058"/>
      </g><g fill="#000000" font-family="'Bitstream Vera Sans'">
      <text transform="matrix(1 0 0 -1 13.877 250.62)" font-size="28.8px"><tspan x="0" y="0">d</tspan></text>
      <text transform="matrix(1 0 0 -1 32.158 244.86)" font-size="18.72px"><tspan x="0 11.063676" y="0">v*</tspan></text>
      <text transform="matrix(1 0 0 -1 52.597 250.62)" font-size="28.8px"><tspan x="0" y="0">a</tspan></text>
      <text transform="matrix(1 0 0 -1 70.26 244.86)" font-size="18.72px"><tspan x="0" y="0">h</tspan></text>
      </g><g transform="matrix(1 0 0 -1 0 397.37)">
        <path d="m8.387 19.07h79.227v79.227h-79.227z" fill="#fff" stroke="#000" stroke-width=".77058"/>
      </g><g fill="#000000" font-family="'Bitstream Vera Sans'">
      <text transform="matrix(1 0 0 -1 14.116 333.5)" font-size="28.8px"><tspan x="0" y="0">a</tspan></text>
      <text transform="matrix(1 0 0 -1 31.779 327.74)" font-size="18.72px"><tspan x="0 11.063676" y="0">v*</tspan></text>
      <text transform="matrix(1 0 0 -1 52.217 333.5)" font-size="28.8px"><tspan x="0" y="0">a</tspan></text>
      <text transform="matrix(1 0 0 -1 69.88 327.74)" font-size="18.72px"><tspan x="0" y="0">h</tspan></text>
      </g><g transform="matrix(1 0 0 -1 0 397.37)">
        <path d="m88.387 19.07h79.227v79.227h-79.227z" fill="#fff" stroke="#000" stroke-width=".77058"/>
      </g><g fill="#000000" font-family="'Bitstream Vera Sans'">
      <text transform="matrix(1 0 0 -1 93.807 330.62)" font-size="28.8px"><tspan x="0" y="0">a</tspan></text>
      <text transform="matrix(1 0 0 -1 111.47 324.86)" font-size="18.72px"><tspan x="0 11.063676" y="0">v*</tspan></text>
      <text transform="matrix(1 0 0 -1 131.91 330.62)" font-size="28.8px"><tspan x="0" y="0">d</tspan></text>
      <text transform="matrix(1 0 0 -1 150.19 324.86)" font-size="18.72px"><tspan x="0" y="0">h</tspan></text>
      </g><g transform="matrix(1 0 0 -1 0 397.37)">
        <path d="m256.59 28.098h19.809v19.805h-19.809z" fill="#fff" stroke="#000" stroke-width=".19265"/>
      </g>
      <text transform="matrix(1 0 0 -1 262.74 357.35)" fill="#000000" font-family="'Bitstream Vera Sans'" font-size="7.2px"><tspan x="0" y="0">d</tspan></text>
      <text transform="matrix(1 0 0 -1 267.31 355.91)" fill="#000000" font-family="'Bitstream Vera Sans'" font-size="4.6801px"><tspan x="0" y="0">3</tspan></text>
      <g transform="matrix(1 0 0 -1 0 397.37)">
        <path d="m236.59 28.098h19.809v19.805h-19.809z" fill="#fff" stroke="#000" stroke-width=".19265"/>
      </g>
      <text transform="matrix(1 0 0 -1 242.61 357.35)" fill="#000000" font-family="'Bitstream Vera Sans'" font-size="7.2px"><tspan x="0" y="0">h</tspan></text>
      <text transform="matrix(1 0 0 -1 247.18 355.91)" fill="#000000" font-family="'Bitstream Vera Sans'" font-size="4.6801px"><tspan x="0" y="0">3</tspan></text>
      <g transform="matrix(1 0 0 -1 0 397.37)">
        <path d="m236.59 8.098h19.809v19.805h-19.809z" fill="#fff" stroke="#000" stroke-width=".19265"/>
      </g>
      <text transform="matrix(1 0 0 -1 242.8 378.07)" fill="#000000" font-family="'Bitstream Vera Sans'" font-size="7.2px"><tspan x="0" y="0">a</tspan></text>
      <text transform="matrix(1 0 0 -1 247.22 376.63)" fill="#000000" font-family="'Bitstream Vera Sans'" font-size="4.6801px"><tspan x="0" y="0">3</tspan></text>
      <g transform="matrix(1 0 0 -1 0 397.37)">
        <path d="m256.59 8.098h19.809v19.805h-19.809z" fill="#fff" stroke="#000" stroke-width=".19265"/>
      </g>
      <text transform="matrix(1 0 0 -1 262.99 378.12)" fill="#000000" font-family="'Bitstream Vera Sans'" font-size="7.2px"><tspan x="0" y="0">v</tspan></text>
      <text transform="matrix(1 0 0 -1 267.25 376.68)" fill="#000000" font-family="'Bitstream Vera Sans'" font-size="4.6801px"><tspan x="0" y="0">3</tspan></text>
      <g transform="matrix(1 0 0 -1 0 397.37)">
        <path d="m276.69 138.88h39.613v39.617h-39.613z" fill="#fff" stroke="#000" stroke-width=".38529"/>
      </g>
      <text transform="matrix(1 0 0 -1 288.98 234.65)" fill="#000000" font-family="'Bitstream Vera Sans'" font-size="14.4px"><tspan x="0" y="0">d</tspan></text>
      <text transform="matrix(1 0 0 -1 298.12 231.77)" fill="#000000" font-family="'Bitstream Vera Sans'" font-size="9.3601px"><tspan x="0" y="0">2</tspan></text>
      <g transform="matrix(1 0 0 -1 0 397.37)">
        <path d="m236.69 138.88h39.613v39.617h-39.613z" fill="#fff" stroke="#000" stroke-width=".38529"/>
      </g>
      <text transform="matrix(1 0 0 -1 248.73 234.65)" fill="#000000" font-family="'Bitstream Vera Sans'" font-size="14.4px"><tspan x="0" y="0">h</tspan></text>
      <text transform="matrix(1 0 0 -1 257.87 231.77)" fill="#000000" font-family="'Bitstream Vera Sans'" font-size="9.3601px"><tspan x="0" y="0">2</tspan></text>
      <g transform="matrix(1 0 0 -1 0 397.37)">
        <path d="m236.69 98.875h39.613v39.617h-39.613z" fill="#fff" stroke="#000" stroke-width=".38529"/>
      </g>
      <text transform="matrix(1 0 0 -1 249.1 276.09)" fill="#000000" font-family="'Bitstream Vera Sans'" font-size="14.4px"><tspan x="0" y="0">a</tspan></text>
      <text transform="matrix(1 0 0 -1 257.93 273.21)" fill="#000000" font-family="'Bitstream Vera Sans'" font-size="9.3601px"><tspan x="0" y="0">2</tspan></text>
      <g transform="matrix(1 0 0 -1 0 397.37)">
        <path d="m276.69 98.875h39.613v39.617h-39.613z" fill="#fff" stroke="#000" stroke-width=".38529"/>
      </g>
      <text transform="matrix(1 0 0 -1 289.48 276.19)" fill="#000000" font-family="'Bitstream Vera Sans'" font-size="14.4px"><tspan x="0" y="0">v</tspan></text>
      <text transform="matrix(1 0 0 -1 298 273.31)" fill="#000000" font-family="'Bitstream Vera Sans'" font-size="9.3601px"><tspan x="0" y="0">2</tspan></text>
      <g transform="matrix(1 0 0 -1 0 397.37)">
        <path d="m8.77 230.14h158.46v158.46h-158.46z" fill="#fff" stroke="#000" stroke-width="1.5412"/>
      </g>
      <text transform="matrix(1 0 0 -1 76.652 66.119)" fill="#000000" font-family="'Bitstream Vera Sans'" font-size="57.6px"><tspan x="0" y="0">f</tspan></text><g fill="#8d91d0">
      <path d="m198.68 103.94 18.398-13.797-18.398-12.601-0.082 7.437-43.891-7.437 5.91 13.199-5.91 13.199 43.891-7.844z"/>
      <path d="m242.77 327.86 13.796 18.398 12.602-18.398-7.438-0.078 7.438-43.891-13.199 5.906-13.199-5.906 7.843 43.891z"/>
      <path d="m262.89 196.71 13.793 18.398 12.605-18.398-7.437-0.079 7.437-43.89-13.199 5.906-13.199-5.906 7.843 43.89z"/>
    </g>
  </g>
</svg>
